<svg width="681" height="568" viewBox="0 0 681 568" fill="none" xmlns="http://www.w3.org/2000/svg">
<g clip-path="url(#clip0_2513_932)">
<path d="M177.519 464.495C168.817 465.411 149.96 467.603 143.622 468.966C137.082 470.368 114.372 472.655 104.302 473.719C104.291 473.613 104.286 473.502 104.272 473.391C103.907 468.966 112.387 466.009 120.872 463.429C129.357 460.843 141.158 458.265 145.218 452.731L168.455 453.102L177.519 464.495Z" fill="#FD3C0B"/>
<path d="M181.367 469.331C181.367 469.331 160.343 470.44 144.847 473.39C129.357 476.341 104.646 477.816 104.646 477.816C104.646 477.816 104.646 477.816 104.302 473.716C114.372 472.652 137.085 470.365 143.622 468.963C149.96 467.6 168.817 465.408 177.519 464.493L181.367 469.331Z" fill="#E8DACF"/>
<path d="M123.651 462.611C122.698 462.886 121.766 463.159 120.872 463.431C112.387 466.009 103.907 468.965 104.272 473.393C104.283 473.504 104.288 473.615 104.302 473.721C110.029 473.115 119.837 472.115 128.441 471.109C128.208 469.071 126.652 465.633 123.651 462.611Z" fill="#F7EAE1"/>
<path d="M128.126 461.462C130.092 463.307 132.061 466.379 132.061 466.379" stroke="white" stroke-width="1.045" stroke-miterlimit="10" stroke-linecap="round" stroke-linejoin="round"/>
<path d="M132.183 460.11C134.15 461.955 136.119 465.027 136.119 465.027" stroke="white" stroke-width="1.045" stroke-miterlimit="10" stroke-linecap="round" stroke-linejoin="round"/>
<path d="M136.119 458.758C138.085 460.602 140.054 463.675 140.054 463.675" stroke="white" stroke-width="1.045" stroke-miterlimit="10" stroke-linecap="round" stroke-linejoin="round"/>
<path d="M140.054 457.159C142.021 459.003 143.99 462.076 143.99 462.076" stroke="white" stroke-width="1.045" stroke-miterlimit="10" stroke-linecap="round" stroke-linejoin="round"/>
<path d="M144.357 456.053C146.324 457.897 148.293 460.97 148.293 460.97" stroke="white" stroke-width="1.045" stroke-miterlimit="10" stroke-linecap="round" stroke-linejoin="round"/>
<path d="M213.113 472.488C204.411 473.404 185.554 475.595 179.216 476.958C172.676 478.361 149.966 480.648 139.896 481.711C139.885 481.606 139.88 481.494 139.869 481.383C139.504 476.958 147.984 474.002 156.469 471.422C164.953 468.836 176.755 466.258 180.814 460.724L204.051 461.095L213.113 472.488Z" fill="#FD3C0B"/>
<path d="M216.961 477.323C216.961 477.323 195.936 478.432 180.441 481.383C164.95 484.334 140.239 485.808 140.239 485.808C140.239 485.808 140.239 485.808 139.895 481.709C149.965 480.645 172.678 478.358 179.215 476.955C185.554 475.592 204.411 473.401 213.113 472.485L216.961 477.323Z" fill="#E8DACF"/>
<path d="M159.244 470.604C158.292 470.879 157.36 471.152 156.466 471.424C147.981 474.002 139.501 476.958 139.866 481.386C139.877 481.497 139.882 481.608 139.893 481.714C145.62 481.108 155.428 480.108 164.032 479.102C163.802 477.064 162.246 473.626 159.244 470.604Z" fill="#F7EAE1"/>
<path d="M163.72 469.455C165.686 471.3 167.655 474.372 167.655 474.372" stroke="white" stroke-width="1.045" stroke-miterlimit="10" stroke-linecap="round" stroke-linejoin="round"/>
<path d="M167.78 468.103C169.746 469.947 171.715 473.02 171.715 473.02" stroke="white" stroke-width="1.045" stroke-miterlimit="10" stroke-linecap="round" stroke-linejoin="round"/>
<path d="M171.712 466.75C173.679 468.595 175.648 471.668 175.648 471.668" stroke="white" stroke-width="1.045" stroke-miterlimit="10" stroke-linecap="round" stroke-linejoin="round"/>
<path d="M175.648 465.152C177.614 466.997 179.583 470.069 179.583 470.069" stroke="white" stroke-width="1.045" stroke-miterlimit="10" stroke-linecap="round" stroke-linejoin="round"/>
<path d="M179.951 464.045C181.918 465.89 183.887 468.963 183.887 468.963" stroke="white" stroke-width="1.045" stroke-miterlimit="10" stroke-linecap="round" stroke-linejoin="round"/>
<path d="M221.201 195.154L182.471 235.543L217.879 268.186L258.269 334.025L273.762 368.88L333.516 352.834C333.516 352.834 340.77 294.25 341.998 285.889C343.229 277.528 342.737 264.986 331.918 257.61C321.098 250.234 296.509 240.889 296.509 240.889C296.509 240.889 273.148 232.775 266.51 230.07C259.87 227.365 249.051 224.168 247.084 222.94C245.118 221.71 239.708 214.334 234.788 208.924C229.868 203.514 221.201 195.154 221.201 195.154Z" fill="#063E8E"/>
<path d="M116.677 450.164C116.677 450.164 120.308 376.468 123.661 353.448C127.014 330.428 130.595 288.85 142.23 272.513C153.864 256.176 164.032 250.263 186.284 251.775C208.537 253.286 228.026 266.098 231.057 285.288C234.087 304.478 230.593 362.981 230.08 368.518C229.567 374.054 215.254 459.2 215.254 459.2C175.775 458.295 137.148 457.125 116.677 450.164Z" fill="#75ACBA"/>
<path d="M172.697 464.413C172.697 464.413 163.659 386.585 162.553 363.348C161.446 340.111 157.019 298.616 165.318 280.357C173.618 262.098 182.471 254.352 204.601 251.586C226.732 248.82 248.31 257.673 254.95 275.929C261.59 294.188 269.334 352.28 269.887 357.814C270.44 363.348 272.653 449.658 272.653 449.658C236.935 457.704 201.852 467.091 172.697 464.413Z" fill="#94C7D4"/>
<path d="M211.242 280.357C214.561 290.87 226.179 403.738 228.394 433.615" stroke="#292F44" stroke-width="1.045" stroke-miterlimit="10" stroke-linecap="round" stroke-linejoin="round"/>
<path d="M270.811 195.521C267.86 193.123 265.094 193.309 262.882 195.521C260.669 197.734 261.037 203.082 264.912 206.219C268.784 209.355 272.288 210.276 272.288 210.276L270.811 195.521Z" fill="#E8DACF"/>
<path d="M271.179 184.271C269.85 187.039 269.149 195.889 269.519 202.897C269.887 209.905 271.364 216.914 272.838 219.311L270.072 232.774C268.606 232.147 266.934 232.954 266.492 234.487C265.399 238.274 264.419 244.896 269.519 248.082C276.895 252.693 283.308 253.055 289.498 252.446C295.768 251.832 298.105 249.863 300.442 248.511C301.283 248.024 301.892 247.397 302.334 246.77C303.115 245.655 303.038 244.144 302.154 243.109C301.577 242.432 301.061 241.291 301.241 239.415C301.609 235.543 303.454 219.311 303.454 219.311C303.454 219.311 306.958 213.777 307.879 210.644C307.879 210.644 313.595 212.856 318.023 208.614C322.448 204.371 321.712 197.363 318.023 194.783C314.334 192.202 308.064 193.862 308.064 193.862C308.064 193.862 305.759 186.393 304.467 180.859C303.538 176.884 292.203 173.759 284.827 174.682C277.451 175.603 273.394 179.66 271.179 184.271Z" fill="#F7EAE1"/>
<path d="M302.44 182.336C300.042 179.938 295.154 177.08 285.751 178.001C276.345 178.922 273.579 183.164 272.288 187.407C270.996 191.649 269.705 201.423 269.705 201.423L267.675 199.393C267.675 199.393 264.816 191.094 265.737 185.93C266.658 180.767 268.228 179.2 266.568 176.985C264.909 174.772 256.424 173.758 255.503 167.857C254.503 161.455 258.454 157.159 262.326 156.053C266.198 154.947 269.702 158.819 271.364 157.712C273.023 156.606 270.996 152.917 269.705 149.598C268.413 146.279 268.784 141.851 273.394 139.086C276.297 137.344 280.54 139.771 281.876 141.851C283.536 144.434 286.513 141.592 288.146 140.192C290.729 137.979 299.026 139.086 298.29 145.909C297.552 152.731 301.958 153.361 304.745 154.023C315.625 156.606 306.59 166.38 309.356 172.096C311.642 176.821 316.178 178.366 315.072 187.587C313.773 198.414 308.249 203.355 308.249 203.355C308.249 203.355 309.08 197.268 306.129 193.581C303.39 190.162 303.515 183.411 302.44 182.336Z" fill="#75ACBA"/>
<path d="M296.546 196.315C297.218 196.331 297.576 195.838 297.599 194.851C297.623 193.864 297.295 193.356 296.62 193.337C295.945 193.319 295.591 193.814 295.567 194.801C295.543 195.788 295.874 196.299 296.546 196.315Z" fill="#303336"/>
<path d="M277.92 195.455C278.592 195.471 278.949 194.978 278.973 193.991C278.997 193.004 278.668 192.496 277.994 192.477C277.321 192.462 276.964 192.954 276.94 193.941C276.916 194.928 277.247 195.439 277.92 195.455Z" fill="#303336"/>
<path d="M299.344 189.132C297.642 188.286 295.098 187.912 292.301 188.921" stroke="#292F44" stroke-width="2.09" stroke-miterlimit="10" stroke-linecap="round" stroke-linejoin="round"/>
<path d="M282.535 188.95C279.862 187.658 277.001 188.211 275.342 188.95" stroke="#292F44" stroke-width="2.09" stroke-miterlimit="10" stroke-linecap="round" stroke-linejoin="round"/>
<path d="M286.947 194.047C286.301 195.246 280.86 200.777 280.677 202.069C280.492 203.36 286.764 203.635 286.764 203.635" stroke="#FE7654" stroke-width="1.045" stroke-miterlimit="10" stroke-linecap="round" stroke-linejoin="round"/>
<path d="M292.666 207.971C291.56 205.941 290.268 208.338 285.012 207.878C279.756 207.417 278.11 206.007 277.544 207.785C276.898 209.815 279.664 213.502 284.92 213.687C290.176 213.872 293.772 209.998 292.666 207.971Z" fill="white" stroke="#FE7654" stroke-width="1.045" stroke-miterlimit="10" stroke-linecap="round" stroke-linejoin="round"/>
<path d="M314.564 200.076C311.798 201.921 311.338 204.133 311.338 204.133" stroke="#FE7654" stroke-width="1.045" stroke-miterlimit="10" stroke-linecap="round" stroke-linejoin="round"/>
<path d="M265.274 198.438C266.619 200.058 268.784 205.465 268.784 205.465" stroke="#FE7654" stroke-width="1.045" stroke-miterlimit="10" stroke-linecap="round" stroke-linejoin="round"/>
<path d="M298.084 206.994C299.545 207.121 300.384 206.097 300.569 203.958C300.757 201.82 300.108 200.666 298.648 200.536C297.187 200.409 296.348 201.434 296.162 203.572C295.975 205.71 296.623 206.864 298.084 206.994Z" fill="#FE9074"/>
<path d="M275.821 205.401C277.284 205.311 277.962 204.173 277.827 202.029C277.695 199.885 276.879 198.84 275.416 198.932C273.952 199.022 273.275 200.16 273.41 202.304C273.545 204.448 274.357 205.491 275.821 205.401Z" fill="#FE9074"/>
<path d="M272.838 219.311C275.482 224.66 280.031 226.258 285.317 227.118C290.605 227.979 299.579 224.292 303.451 219.311" stroke="#FE7654" stroke-width="1.045" stroke-miterlimit="10" stroke-linecap="round" stroke-linejoin="round"/>
<path d="M221.201 195.153L191.263 159.742L226.671 90.6453C226.671 90.6453 242.408 85.9741 248.556 78.5955C254.704 71.2194 257.901 51.5475 257.901 45.1533C257.901 38.7592 256.916 28.6784 251.753 28.1861C246.589 27.6939 246.343 34.3341 246.343 34.3341C246.343 34.3341 248.127 24.5603 243.699 23.6367C239.274 22.7157 236.138 24.1898 235.4 29.7238C235.4 29.7238 235.4 27.1407 230.236 26.9581C225.073 26.7729 223.966 33.9663 223.043 39.1297C222.122 44.2932 221.937 51.1161 220.092 52.4076C218.247 53.6991 202.939 53.6991 199.435 57.3858C195.931 61.0751 180.809 80.4401 169.19 104.969C157.572 129.497 142.079 156.302 145.276 180.399C148.473 204.496 175.46 230.194 184.128 236.649C184.128 236.649 192.61 234.251 205.152 222.818C217.697 211.382 221.201 195.153 221.201 195.153Z" fill="#F7EAE1"/>
<path d="M276.342 282.448L214.867 297.941L161.015 294.99C161.015 294.99 161.753 285.399 154.621 282.205C147.491 279.008 136.423 274.829 131.998 276.795C127.573 278.762 126.834 281.959 128.309 285.402C129.783 288.845 140.112 289.583 139.62 294.501C139.62 294.501 133.472 294.747 129.539 293.27C129.539 289.951 125.482 288.107 121.793 290.872C119.305 292.738 117.796 300.524 122.714 303.968C122.714 303.968 116.627 302.123 116.073 310.237C115.706 315.634 122.528 318.352 122.528 318.352C122.528 318.352 117.794 317.245 117.55 323.147C117.304 329.049 122.653 331.876 130.521 334.337C138.389 336.796 173.554 344.664 199.864 344.418C226.176 344.172 239.7 342.451 257.16 338.516C274.619 334.581 293.799 328.189 293.799 328.189C293.799 328.189 303.39 322.287 298.47 301.877C293.555 281.464 276.342 282.448 276.342 282.448Z" fill="#F7EAE1"/>
<path d="M276.342 282.448C291.833 278.33 301.792 273.167 313.042 273.349" stroke="#292F44" stroke-width="1.045" stroke-miterlimit="10" stroke-linecap="round" stroke-linejoin="round"/>
<path d="M293.802 328.184C315.625 320.191 333.331 312.815 335.911 304.701" stroke="#292F44" stroke-width="1.045" stroke-miterlimit="10" stroke-linecap="round" stroke-linejoin="round"/>
<path d="M264.049 231.054C260.359 233.759 259.131 243.596 262.575 248.514C266.018 253.431 274.624 257.613 283.967 257.366C293.309 257.12 304.131 254.908 307.082 246.793" stroke="#292F44" stroke-width="1.045" stroke-miterlimit="10" stroke-linecap="round" stroke-linejoin="round"/>
<path d="M214.132 68.2688C214.132 68.2688 221.571 60.8927 230.607 59.2307C239.645 57.5713 238.583 47.9748 239.827 43.0019C241.302 37.1 249.419 36.9148 250.154 43.3698C250.893 49.8248 248.68 61.0754 246.465 65.6857C244.252 70.296 237.612 78.0426 237.612 78.0426" stroke="#FE7654" stroke-width="1.045" stroke-miterlimit="10" stroke-linecap="round" stroke-linejoin="round"/>
<path d="M235.402 29.7241C235.955 33.5961 234.942 47.5223 234.203 51.3943" stroke="#FE7654" stroke-width="1.045" stroke-miterlimit="10" stroke-linecap="round" stroke-linejoin="round"/>
<path d="M246.558 32.3047C246.558 36.8224 246.28 38.5744 246.28 38.5744" stroke="#FE7654" stroke-width="1.045" stroke-miterlimit="10" stroke-linecap="round" stroke-linejoin="round"/>
<path d="M253.936 29.6313C253.751 32.5823 254.857 40.0509 257.44 41.4351" stroke="#FE7654" stroke-width="1.045" stroke-miterlimit="10" stroke-linecap="round" stroke-linejoin="round"/>
<path d="M244.991 38.7593C242.225 41.7102 242.225 49.5494 244.623 51.2088C247.021 52.8682 249.786 52.315 249.786 52.315" stroke="#FE7654" stroke-width="1.045" stroke-miterlimit="10" stroke-linecap="round" stroke-linejoin="round"/>
<path d="M232.451 337.529C234.296 334.946 241.672 333.84 244.255 336.423" stroke="#FE7654" stroke-width="1.045" stroke-miterlimit="10" stroke-linecap="round" stroke-linejoin="round"/>
<path d="M262.696 163.063C262.511 165.647 263.617 170.257 269.705 171.178" stroke="#292F44" stroke-width="1.045" stroke-miterlimit="10" stroke-linecap="round" stroke-linejoin="round"/>
<path d="M276.898 146.279C280.402 145.726 284.827 149.23 284.274 153.102" stroke="#292F44" stroke-width="1.045" stroke-miterlimit="10" stroke-linecap="round" stroke-linejoin="round"/>
<path d="M294.786 155.132C294.601 158.269 298.29 163.061 303.269 163.432" stroke="#292F44" stroke-width="1.045" stroke-miterlimit="10" stroke-linecap="round" stroke-linejoin="round"/>
<path d="M281.508 163.617C285.012 163.432 288.331 166.936 288.516 170.257" stroke="#292F44" stroke-width="1.045" stroke-miterlimit="10" stroke-linecap="round" stroke-linejoin="round"/>
<path d="M302.901 173.391C302.533 178.369 307.143 179.846 308.988 182.058C310.832 184.271 309.173 188.328 309.173 188.328" stroke="#292F44" stroke-width="1.045" stroke-miterlimit="10" stroke-linecap="round" stroke-linejoin="round"/>
<path d="M576.588 307.836C576.588 307.836 580.46 298.984 581.752 295.665C583.043 292.346 584.517 288.289 587.286 288.842C590.051 289.395 621.773 306.362 630.811 312.079C639.849 317.796 659.95 329.414 660.503 332.182C661.056 334.948 658.291 338.823 654.787 338.823C651.282 338.823 636.528 333.474 629.337 331.447C622.144 329.417 609.051 326.283 609.051 326.283L576.588 307.836Z" fill="#FD3C0B"/>
<path d="M582.175 294.574C591.88 298.613 613.436 309.747 622.324 314.659C631.669 319.823 636.586 322.774 636.586 322.774C636.586 322.774 633.921 328.818 632.669 332.442C640.36 334.837 651.759 338.82 654.784 338.82C658.288 338.82 661.054 334.948 660.5 332.18C659.947 329.414 639.844 317.795 630.809 312.076C621.77 306.36 590.051 289.392 587.283 288.839C584.816 288.347 583.374 291.526 582.175 294.574Z" fill="#F7EAE1"/>
<path d="M629.242 325.449C628.043 328.861 627.49 330.983 627.49 330.983" stroke="white" stroke-width="1.045" stroke-miterlimit="10" stroke-linecap="round" stroke-linejoin="round"/>
<path d="M624.168 323.605C622.969 327.016 622.416 329.139 622.416 329.139" stroke="white" stroke-width="1.045" stroke-miterlimit="10" stroke-linecap="round" stroke-linejoin="round"/>
<path d="M619.283 321.114C618.084 324.526 617.345 327.937 617.345 327.937" stroke="white" stroke-width="1.045" stroke-miterlimit="10" stroke-linecap="round" stroke-linejoin="round"/>
<path d="M614.302 318.902C613.103 322.313 612.182 326.831 612.182 326.831" stroke="white" stroke-width="1.045" stroke-miterlimit="10" stroke-linecap="round" stroke-linejoin="round"/>
<path d="M609.509 316.411C608.31 319.823 607.389 324.34 607.389 324.34" stroke="white" stroke-width="1.045" stroke-miterlimit="10" stroke-linecap="round" stroke-linejoin="round"/>
<path d="M501.711 309.128C504.477 319.087 519.417 380.501 519.417 380.501L573.084 304.15C573.084 304.15 589.683 305.809 600.749 313.556C611.814 321.302 613.474 327.94 613.474 327.94C613.474 327.94 574.744 392.673 566.444 407.612C558.144 422.55 540.994 441.915 514.436 435.83C487.878 429.743 435.317 327.943 435.317 327.943L501.711 309.128Z" fill="#100C27"/>
<path d="M564.414 442.833C562.019 446.711 504.662 469.948 504.662 469.948L508.719 436.873L521.015 425.07L524.951 426.978C524.951 426.978 538.229 430.85 540.624 434.171C540.624 434.171 545.422 425.779 547.661 421.949C552.698 426.475 557.022 430.469 558.515 431.959C561.648 435.092 566.817 438.961 564.414 442.833Z" fill="#FD3C0B"/>
<path d="M564.414 442.833C566.248 439.875 563.662 436.918 560.944 434.288C556.366 436.704 543.39 443.556 538.964 445.97C535.394 447.917 517.58 455.434 505.877 460.319L504.662 469.945C504.662 469.948 562.019 446.711 564.414 442.833Z" fill="#F7EAE1"/>
<path d="M547.661 421.947C545.42 425.779 540.624 434.168 540.624 434.168C535.77 431.707 524.951 426.975 524.951 426.975L506.507 421.134L519.293 393.594C523.741 397.272 542.103 416.944 547.661 421.947Z" fill="#F6B60D"/>
<path d="M518.311 428.388C525.197 431.831 532.081 440.192 532.081 440.192" stroke="white" stroke-width="1.045" stroke-miterlimit="10" stroke-linecap="round" stroke-linejoin="round"/>
<path d="M513.761 432.199C519.785 435.642 525.565 443.389 525.565 443.389" stroke="white" stroke-width="1.045" stroke-miterlimit="10" stroke-linecap="round" stroke-linejoin="round"/>
<path d="M509.826 436.873C515.481 441.176 519.046 445.972 519.046 445.972" stroke="white" stroke-width="1.045" stroke-miterlimit="10" stroke-linecap="round" stroke-linejoin="round"/>
<path d="M503.432 440.07C509.087 444.374 513.883 448.923 513.883 448.923" stroke="white" stroke-width="1.045" stroke-miterlimit="10" stroke-linecap="round" stroke-linejoin="round"/>
<path d="M534.354 277.591C534.907 288.657 535.46 304.703 519.417 311.341C503.371 317.981 441.957 331.259 441.957 331.259L521.812 390.828C521.812 390.828 520.153 410.193 509.64 421.811C499.128 433.43 490.275 441.176 490.275 441.176C490.275 441.176 394.374 372.201 378.884 360.03C363.391 347.858 358.966 332.365 366.159 313C373.352 293.635 441.957 270.951 441.957 270.951L534.354 277.591Z" fill="#292F44"/>
<path d="M397.616 289.003C382.745 296.332 369.147 304.952 366.159 313C358.966 332.365 363.393 347.855 378.884 360.03C380.363 361.191 382.711 362.97 385.746 365.235C405.249 349.488 441.957 331.259 441.957 331.259C437.834 320.892 408.549 294.257 397.616 289.003Z" fill="#F6B60D"/>
<path d="M494.579 132.324C505.768 135.15 544.496 150.151 568.842 192.2C593.185 234.249 590.972 256.379 585.809 267.077C580.645 277.774 564.417 283.305 554.087 284.412L517.94 264.494L448.965 264.128L423.145 201.301C423.145 201.301 406.916 195.399 406.424 193.433C406.003 191.747 409.867 180.891 409.867 180.891C409.867 180.891 353.278 182.508 348.76 181.875C342.612 181.015 318.391 180.401 314.704 163.802C311.015 147.203 316.549 133.186 328.72 126.549C340.892 119.909 357.859 118.434 381.835 119.541C405.81 120.647 437.286 125.075 437.286 125.075L494.579 132.324Z" fill="#063E8E"/>
<path d="M442.214 85.4476C439.027 83.3727 436.296 83.8438 434.327 86.276C432.358 88.7082 433.284 93.9881 437.463 96.7008C441.642 99.4136 445.223 99.9641 445.223 99.9641L442.214 85.4476Z" fill="#E8DACF"/>
<path d="M442.203 78.5957C441.171 81.4857 440.602 85.9876 441.703 92.9189C442.801 99.8503 445.035 102.677 446.753 104.908L445.892 124.58L437.286 125.072C437.286 125.072 437.812 133.933 444.908 138.967C451.67 143.762 460.332 143.553 466.546 143.27C474.661 142.902 481.915 140.166 483.392 139.581C489.908 136.998 494.581 132.326 494.581 132.326C494.581 132.326 476.916 126.136 476.876 122.246C476.839 118.355 477.167 105.697 477.167 105.697C477.167 105.697 477.392 103.698 477.982 100.483C477.982 100.483 483.246 100.737 487.203 96.0578C491.162 91.376 490.527 85.5774 486.589 83.3939C482.651 81.2105 479.335 85.2386 479.335 85.2386C479.335 85.2386 476.156 79.4188 474.293 74.0489C472.954 70.1928 464.826 65.6883 455.481 67.0407C448.123 68.1047 443.923 73.7789 442.203 78.5957Z" fill="#F7EAE1"/>
<path d="M465.218 85.2066C465.89 85.1537 466.192 84.6244 466.112 83.6425C466.033 82.6606 465.652 82.1869 464.979 82.2398C464.307 82.2928 464.006 82.8221 464.085 83.804C464.164 84.7885 464.548 85.2596 465.218 85.2066Z" fill="#303336"/>
<path d="M451.583 85.9293C452.255 85.8764 452.556 85.347 452.477 84.3652C452.398 83.3833 452.017 82.9096 451.344 82.9625C450.672 83.0154 450.37 83.5447 450.45 84.5266C450.529 85.5111 450.913 85.9822 451.583 85.9293Z" fill="#303336"/>
<path d="M468.724 76.6635C466.943 75.9992 464.376 75.8934 461.698 77.1876" stroke="#292F44" stroke-width="1.045" stroke-miterlimit="10" stroke-linecap="round" stroke-linejoin="round"/>
<path d="M455.031 77.8702C452.236 76.8672 449.452 77.7141 447.877 78.6219" stroke="#292F44" stroke-width="1.045" stroke-miterlimit="10" stroke-linecap="round" stroke-linejoin="round"/>
<path d="M458.186 82.5601C457.355 85.4184 455.192 87.7129 455.142 89.0151C455.095 90.3172 458.554 90.3992 458.554 90.3992" stroke="#FE7654" stroke-width="1.045" stroke-miterlimit="10" stroke-linecap="round" stroke-linejoin="round"/>
<path d="M486.096 87.1704C483.537 89.293 480.441 94.6708 480.441 94.6708" stroke="#FE7654" stroke-width="1.045" stroke-miterlimit="10" stroke-linecap="round" stroke-linejoin="round"/>
<path d="M437.193 88.123C438.699 89.5945 440.882 94.7633 440.882 94.7633" stroke="#FE7654" stroke-width="1.045" stroke-miterlimit="10" stroke-linecap="round" stroke-linejoin="round"/>
<path d="M470.537 94.0037C472.003 93.9772 472.731 92.871 472.692 90.7246C472.655 88.5782 471.887 87.4984 470.421 87.5249C468.955 87.5514 468.227 88.6576 468.266 90.804C468.304 92.9504 469.071 94.0302 470.537 94.0037Z" fill="#FE9074"/>
<path d="M448.229 94.7475C449.674 94.504 450.23 93.3024 449.873 91.1852C449.515 89.0679 448.597 88.1125 447.152 88.356C445.707 88.5995 445.151 89.801 445.509 91.9183C445.866 94.0382 446.784 94.9909 448.229 94.7475Z" fill="#FE9074"/>
<path d="M452.654 93.9031C456.344 95.4699 462.335 94.4562 465.011 93.2573" stroke="#FE7654" stroke-width="1.045" stroke-miterlimit="10" stroke-linecap="round" stroke-linejoin="round"/>
<path d="M446.752 104.908C451.548 110.442 459.295 109.825 462.246 109.333" stroke="#FE7654" stroke-width="1.045" stroke-miterlimit="10" stroke-linecap="round" stroke-linejoin="round"/>
<path d="M440.975 86.4638C439.377 86.2176 437.992 81.4141 438.27 79.3339C438.763 75.6446 443.1 74.0169 442.695 71.5874C442.081 67.898 444.169 64.5792 448.351 63.2268C452.533 61.8744 455.301 63.6794 457.079 61.5066C459.292 58.8018 461.751 58.4339 463.841 61.0143C465.609 63.1977 468.267 61.0143 470.111 60.2759C471.956 59.5375 476.627 62.6128 476.627 62.6128C476.627 62.6128 479.086 58.8018 477.487 54.1305C476.503 51.2537 477.866 44.5023 482.283 43.9254C487.939 43.187 488.06 39.9899 489.537 37.5312C491.011 35.0726 495.315 33.2279 498.39 34.8264C501.463 36.425 503.432 37.8991 507.243 37.2851C511.054 36.6711 512.16 31.3832 515.971 30.7692C519.782 30.1552 521.995 31.0154 524.332 32.86C526.669 34.7047 526.356 39.7649 529.619 38.6375C533.184 37.4068 538.348 41.5884 536.381 45.2778C534.415 48.9671 538.226 49.335 540.071 51.3014C541.915 53.2678 541.545 57.4494 538.226 59.4158C535.087 61.2763 534.783 61.3822 534.907 64.5792C535.029 67.7763 529.207 71.5424 526.301 68.6364C523.104 65.4394 517.94 68.5147 516.834 71.9552C515.807 75.1497 508.158 75.4328 505.644 71.463C503.307 67.7736 499.867 67.5275 496.423 69.6183C493.451 71.4233 491.382 72.691 488.309 68.3876C486.504 65.8628 482.161 66.6674 480.809 68.6338C479.456 70.6002 479.088 71.9526 480.687 73.5511C482.285 75.1497 484.498 78.3467 484.622 81.0515C484.744 83.7563 478.845 87.9379 478.845 87.9379C478.845 87.9379 477.86 83.0206 476.632 80.6836C475.648 78.8125 472.821 72.691 468.518 71.0924C464.807 69.7136 459.173 68.3876 453.271 70.3541C446.176 72.7201 443.804 76.8699 442.698 79.5747C441.589 82.2848 440.975 86.4638 440.975 86.4638Z" fill="#39A3BC"/>
<path d="M359.519 146.279C359.519 146.279 349.56 149.045 347.347 161.955C345.135 174.865 349.253 181.013 349.253 181.013C349.253 181.013 374.088 184.639 388.29 185.748C402.491 186.854 457.079 186.669 457.079 186.669C457.079 186.669 460.398 177.816 458.678 172.285C456.958 166.751 450.317 158.022 440.358 156.177C430.399 154.333 410.973 151.628 398.677 150.154C386.384 148.677 359.519 146.279 359.519 146.279Z" fill="#F7EAE1"/>
<path d="M436.055 279.065C436.423 282.755 445.093 286.812 456.158 288.839C467.224 290.869 491.937 291.237 504.109 290.684C516.281 290.131 554.09 284.414 554.09 284.414C554.09 284.414 558.147 271.504 553.351 260.071C548.556 248.638 534.539 244.763 534.539 244.763C534.539 244.763 508.905 249.741 503.371 249.374C497.837 249.006 488.063 248.453 484.191 250.848C480.319 253.245 436.055 279.065 436.055 279.065Z" fill="#F7EAE1"/>
<path d="M483.042 279.251H423.555C421.809 279.251 420.379 277.822 420.379 276.075V189.476C420.379 187.729 421.809 186.3 423.555 186.3H483.042C484.789 186.3 486.218 187.729 486.218 189.476V276.075C486.218 277.822 484.789 279.251 483.042 279.251Z" fill="white" stroke="#75ACBA" stroke-width="2.09" stroke-miterlimit="10"/>
<path d="M428.801 182.979C428.679 187.161 429.907 190.355 433.226 190.601C436.545 190.847 438.882 188.018 439.128 185.067C439.128 185.067 439.374 189.125 443.799 189.249C448.224 189.371 449.576 187.036 449.947 185.067C449.947 185.067 449.579 188.264 452.776 188.386C455.973 188.508 456.833 187.772 457.818 184.697C458.802 181.624 451.302 179.409 443.434 179.533C435.563 179.66 428.801 182.979 428.801 182.979Z" fill="#F7EAE1"/>
<path d="M488.433 249.559C483.638 250.48 481.24 256.014 476.815 260.439C472.39 264.864 462.246 265.973 459.848 270.398C457.45 274.823 459.109 277.592 463.72 277.959C468.33 278.327 475.153 277.592 479.948 275.376C484.744 273.164 490.093 270.028 490.093 270.028L488.433 249.559Z" fill="#F7EAE1"/>
<path d="M453.766 205.48V247.897" stroke="#FE7654" stroke-width="2.09" stroke-miterlimit="10" stroke-linecap="round" stroke-linejoin="round"/>
<path d="M456.289 257.958C456.581 256.719 455.814 255.478 454.575 255.185C453.336 254.892 452.095 255.66 451.802 256.899C451.509 258.138 452.277 259.379 453.516 259.672C454.755 259.964 455.996 259.197 456.289 257.958Z" stroke="#FE7654" stroke-width="2.09" stroke-miterlimit="10" stroke-linecap="round" stroke-linejoin="round"/>
<path d="M358.291 145.787C343.721 144.988 332.164 143.757 325.523 144.988" stroke="#292F44" stroke-width="1.045" stroke-miterlimit="10" stroke-linecap="round" stroke-linejoin="round"/>
<path d="M506.261 183.104C512.901 194.169 538.964 244.332 538.964 244.332" stroke="#292F44" stroke-width="1.045" stroke-miterlimit="10" stroke-linecap="round" stroke-linejoin="round"/>
<path d="M570.194 240.889C563.8 240.889 539.949 243.715 534.539 244.761" stroke="#292F44" stroke-width="1.045" stroke-miterlimit="10" stroke-linecap="round" stroke-linejoin="round"/>
<path d="M410.235 175.418C413.739 176.892 418.717 178.369 423.698 174.679C423.698 174.679 426.834 177.262 427.941 180.028C429.047 182.794 428.862 185.93 428.862 185.93" stroke="#FE7654" stroke-width="1.045" stroke-miterlimit="10" stroke-linecap="round" stroke-linejoin="round"/>
<path d="M439.13 185.07C439.744 180.952 439.191 174.864 436.24 171.36" stroke="#FE7654" stroke-width="1.045" stroke-miterlimit="10" stroke-linecap="round" stroke-linejoin="round"/>
<path d="M449.95 185.07C451.18 179.66 450.257 171.729 446.567 168.042" stroke="#FE7654" stroke-width="1.045" stroke-miterlimit="10" stroke-linecap="round" stroke-linejoin="round"/>
<path d="M458.924 274.577C462.243 272.732 470.603 273.346 471.588 277.406" stroke="#FE7654" stroke-width="1.045" stroke-miterlimit="10" stroke-linecap="round" stroke-linejoin="round"/>
<path d="M448.719 286.752C449.579 284.907 445.276 281.71 442.203 280.482" stroke="#FE7654" stroke-width="1.045" stroke-miterlimit="10" stroke-linecap="round" stroke-linejoin="round"/>
<path d="M487.449 271.382C491.384 269.416 495.688 267.325 495.688 267.325" stroke="#FE7654" stroke-width="1.045" stroke-miterlimit="10" stroke-linecap="round" stroke-linejoin="round"/>
<path d="M432.122 189.987C432 187.775 433.721 183.225 439.13 183.718" stroke="#FE7654" stroke-width="1.045" stroke-miterlimit="10" stroke-linecap="round" stroke-linejoin="round"/>
<path d="M443.802 189.252C444.416 186.669 445.522 182.365 450.071 182.365" stroke="#FE7654" stroke-width="1.045" stroke-miterlimit="10" stroke-linecap="round" stroke-linejoin="round"/>
<path d="M452.776 188.391C453.022 185.319 454.496 180.031 458.678 179.909" stroke="#FE7654" stroke-width="1.045" stroke-miterlimit="10" stroke-linecap="round" stroke-linejoin="round"/>
<path d="M435.319 327.94C427.08 322.284 391.918 303.104 391.918 303.104" stroke="#FAD87C" stroke-width="1.045" stroke-miterlimit="10" stroke-linecap="round" stroke-linejoin="round"/>
<path d="M425.604 327.694C418.717 326.463 391.669 321.3 391.669 321.3" stroke="#FAD87C" stroke-width="1.045" stroke-miterlimit="10" stroke-linecap="round" stroke-linejoin="round"/>
<path d="M499.62 51.7304C499.62 53.3263 498.326 54.6205 496.73 54.6205C495.135 54.6205 493.84 53.3263 493.84 51.7304C493.84 50.1345 495.135 48.8403 496.73 48.8403C498.326 48.843 499.62 50.1345 499.62 51.7304Z" stroke="#FE7654" stroke-width="1.045" stroke-miterlimit="10" stroke-linecap="round" stroke-linejoin="round"/>
<path d="M510.747 65.4395C512.138 65.4395 513.266 64.3114 513.266 62.9199C513.266 61.5284 512.138 60.4004 510.747 60.4004C509.355 60.4004 508.227 61.5284 508.227 62.9199C508.227 64.3114 509.355 65.4395 510.747 65.4395Z" stroke="#FE7654" stroke-width="1.045" stroke-miterlimit="10" stroke-linecap="round" stroke-linejoin="round"/>
<path d="M516.834 42.4484C516.834 43.6711 515.844 44.6609 514.621 44.6609C513.399 44.6609 512.409 43.6711 512.409 42.4484C512.409 41.2257 513.399 40.2358 514.621 40.2358C515.844 40.2358 516.834 41.2257 516.834 42.4484Z" stroke="#FE7654" stroke-width="1.045" stroke-miterlimit="10" stroke-linecap="round" stroke-linejoin="round"/>
<path d="M526.978 58.1848C528.777 58.1848 530.236 56.7262 530.236 54.9269C530.236 53.1276 528.777 51.6689 526.978 51.6689C525.179 51.6689 523.72 53.1276 523.72 54.9269C523.72 56.7262 525.179 58.1848 526.978 58.1848Z" stroke="#FE7654" stroke-width="1.045" stroke-miterlimit="10" stroke-linecap="round" stroke-linejoin="round"/>
<path d="M469.068 414.803C495.627 414.25 513.33 426.421 513.883 445.233C514.436 464.045 505.03 490.601 481.24 497.794C457.45 504.987 350.666 527.118 350.666 527.118L331.854 467.917L439.742 437.487L469.068 414.803Z" fill="#100C27"/>
<path d="M386.752 483.101C390.412 484.932 380.604 502.773 375.687 510.887C370.769 519.002 363.391 540.396 357.489 536.707C351.587 533.018 359.455 515.069 364.375 504.985C369.293 494.904 380.85 480.15 386.752 483.101Z" fill="#211D36"/>
<path d="M374.088 490.048C383.679 496.503 389.396 506.094 394.559 513.285C399.662 520.391 407.837 531.726 408.39 540.764C408.808 547.616 407.652 550.355 406.916 551.83C406.178 553.304 400.646 556.993 400.646 556.993L367.265 500.004L374.088 490.048Z" fill="#F7EAE1"/>
<path d="M369.11 495.582C375.565 500.931 389.766 518.451 394.006 524.906C398.249 531.361 404.518 543.165 405.072 547.96C405.625 552.756 404.704 555.522 400.646 556.998C396.589 558.473 390.134 554.233 386.077 547.593C382.02 540.952 374.826 534.315 370.401 529.334C366.675 525.142 356.938 513.288 356.938 513.288L369.11 495.582Z" fill="#FD3C0B"/>
<path d="M388.856 551.367C392.699 555.736 397.426 558.166 400.646 556.996C404.704 555.519 405.625 552.754 405.072 547.958C404.884 546.325 404.053 543.816 402.872 540.96C394.522 542.667 391.148 547.834 388.856 551.367Z" fill="#E8DACF"/>
<path d="M387.014 542.625C388.761 540.214 391.386 538.26 392.966 537.824" stroke="white" stroke-width="1.045" stroke-miterlimit="10" stroke-linecap="round" stroke-linejoin="round"/>
<path d="M383.539 538.954C385.04 536.553 388.022 534.338 390.081 533.512" stroke="white" stroke-width="1.045" stroke-miterlimit="10" stroke-linecap="round" stroke-linejoin="round"/>
<path d="M380.13 533.928C381.758 531.646 383.894 529.712 386.31 528.626" stroke="white" stroke-width="1.045" stroke-miterlimit="10" stroke-linecap="round" stroke-linejoin="round"/>
<path d="M376.968 528.891C378.492 527.105 381.221 524.654 382.917 523.969" stroke="white" stroke-width="1.045" stroke-miterlimit="10" stroke-linecap="round" stroke-linejoin="round"/>
<path d="M373.207 524.247C374.017 522.982 376.361 520.179 378.532 519.104" stroke="white" stroke-width="1.045" stroke-miterlimit="10" stroke-linecap="round" stroke-linejoin="round"/>
<path d="M367.845 519.549C369.457 516.897 371.598 515.087 373.89 514.007" stroke="white" stroke-width="1.045" stroke-miterlimit="10" stroke-linecap="round" stroke-linejoin="round"/>
<path d="M363.401 516.286C364.293 514.034 367.104 510.596 369.401 509.638" stroke="white" stroke-width="1.045" stroke-miterlimit="10" stroke-linecap="round" stroke-linejoin="round"/>
<path d="M337.666 483.283C327.019 487.782 319.571 496.103 313.127 502.174C306.759 508.172 296.565 517.734 294.291 526.499C292.568 533.142 293.18 536.053 293.622 537.641C294.064 539.232 298.788 543.911 298.788 543.911L342.459 494.364L337.666 483.283Z" fill="#F7EAE1"/>
<path d="M341.495 489.667C334.135 493.681 316.845 508.158 311.446 513.684C306.047 519.208 297.634 529.593 296.173 534.193C294.712 538.792 295.088 541.685 298.788 543.908C302.488 546.134 309.636 543.204 314.887 537.464C320.14 531.723 328.469 526.584 333.768 522.542C338.227 519.141 350.052 509.37 350.052 509.37L341.495 489.667Z" fill="#FD3C0B"/>
<path d="M311.436 540.64C306.828 544.195 301.723 545.674 298.788 543.909C295.088 541.683 294.712 538.793 296.173 534.193C296.67 532.626 297.965 530.321 299.669 527.746C307.54 531.02 309.864 536.737 311.436 540.64Z" fill="#E8DACF"/>
<path d="M314.919 532.414C313.667 529.715 311.462 527.293 309.993 526.562" stroke="white" stroke-width="1.045" stroke-miterlimit="10" stroke-linecap="round" stroke-linejoin="round"/>
<path d="M319.031 529.476C318.018 526.832 315.514 524.088 313.651 522.884" stroke="white" stroke-width="1.045" stroke-miterlimit="10" stroke-linecap="round" stroke-linejoin="round"/>
<path d="M323.337 525.194C322.176 522.643 320.453 520.335 318.288 518.808" stroke="white" stroke-width="1.045" stroke-miterlimit="10" stroke-linecap="round" stroke-linejoin="round"/>
<path d="M327.405 520.856C326.249 518.811 324.041 515.884 322.509 514.886" stroke="white" stroke-width="1.045" stroke-miterlimit="10" stroke-linecap="round" stroke-linejoin="round"/>
<path d="M331.986 517.019C331.433 515.624 329.671 512.421 327.747 510.953" stroke="white" stroke-width="1.045" stroke-miterlimit="10" stroke-linecap="round" stroke-linejoin="round"/>
<path d="M338.15 513.433C337.076 510.522 335.321 508.336 333.278 506.835" stroke="white" stroke-width="1.045" stroke-miterlimit="10" stroke-linecap="round" stroke-linejoin="round"/>
<path d="M343.134 511.083C342.689 508.701 340.59 504.789 338.518 503.41" stroke="white" stroke-width="1.045" stroke-miterlimit="10" stroke-linecap="round" stroke-linejoin="round"/>
<path d="M222.307 396.544C239.462 395.642 285.933 418.122 285.933 418.122C285.933 418.122 325.216 447.446 336.282 454.083C347.347 460.723 386.752 483.1 386.752 483.1C386.752 483.1 377.899 485.067 364.375 509.659C356.533 523.916 357.489 536.707 357.489 536.707C357.489 536.707 318.391 522.69 302.898 516.789C288.598 511.342 223.951 487.263 206.258 474.248C189.045 461.584 180.499 441.052 191.011 421.133C201.529 401.215 211.795 397.097 222.307 396.544Z" fill="#292F44"/>
<path d="M375.687 316.872C387.49 318.592 424.868 337.774 446.014 358.182C467.16 378.59 484.62 400.723 477.49 427.771C470.36 454.819 443.555 461.952 430.031 461.46C416.507 460.967 407.655 459.739 407.655 459.739L396.343 409.33L417 407.856L393.638 395.07L387.49 445.479L312.246 443.021L308.31 392.858L286.672 404.661L300.688 405.154L301.673 454.335C301.673 454.335 259.87 463.188 243.641 449.91C227.412 436.632 223.231 420.401 229.625 401.713C236.019 383.026 252.986 361.631 274.871 345.894C296.755 330.158 330.443 317.862 346.183 316.385C361.917 314.905 375.687 316.872 375.687 316.872Z" fill="#90C63C"/>
<path d="M350.359 262.53C353.773 262.199 354.101 258.552 356.261 254.415C359.212 248.759 366.159 247.899 368.557 251.218C370.955 254.537 370.769 258.226 373.905 258.226C377.042 258.226 381.345 254.169 386.016 255.889C391.362 257.858 389.028 263.204 388.107 265.97C387.186 268.736 387.369 273.346 389.398 273.717C391.428 274.087 394.377 276.853 393.27 280.172C392.164 283.49 387.369 287.548 387.736 287.733C388.104 287.918 392.715 287.18 393.085 289.207C393.453 291.237 386.63 296.215 386.63 296.215C386.63 296.215 390.502 300.458 390.32 303.776C390.134 307.095 380.36 306.359 380.36 306.359C380.36 306.359 357.677 307.281 354.911 308.757C352.145 310.231 345.137 310.417 342.369 308.389C339.603 306.359 339.786 301.013 340.524 298.245C341.263 295.479 333.701 294.556 334.437 290.316C335.175 286.073 338.619 285.152 338.063 282.202C337.51 279.251 333.76 272.92 336.343 268.678C338.926 264.435 342.737 263.265 350.359 262.53Z" fill="#39A3BC"/>
<path d="M346.241 293.267C346.241 293.267 348.091 290.216 348.546 286.259C348.983 282.485 347.763 277.636 350.666 274.733C355.644 269.755 369.663 267.447 375.655 270.491C380.218 272.806 382.57 279.711 382.478 285.521C382.409 289.776 383.862 291.79 383.862 291.79C383.862 291.79 385.336 287.18 387.734 287.733C390.132 288.286 390.685 293.82 389.579 297.139C388.472 300.458 386.074 303.962 383.677 302.673C383.677 302.673 382.202 308.575 378.513 312.079C378.513 312.079 379.066 321.853 378.698 323.883C378.331 325.913 370.399 333.474 360.072 333.103C349.745 332.735 344.579 322.406 344.211 320.932C343.843 319.458 349.745 308.022 349.745 308.022C349.745 308.022 347.715 305.256 347.162 303.965C347.162 303.965 338.494 302.858 339.047 296.035C339.601 289.21 346.241 293.267 346.241 293.267Z" fill="#F7EAE1"/>
<path d="M355.588 290.183C354.916 290.199 354.559 289.707 354.535 288.72C354.511 287.733 354.84 287.224 355.514 287.206C356.187 287.19 356.544 287.682 356.568 288.67C356.592 289.654 356.263 290.165 355.588 290.183Z" fill="#303336"/>
<path d="M374.215 289.077C373.543 289.093 373.186 288.601 373.162 287.614C373.138 286.627 373.466 286.119 374.141 286.1C374.813 286.084 375.171 286.576 375.194 287.564C375.221 288.548 374.89 289.059 374.215 289.077Z" fill="#303336"/>
<path d="M352.05 282.294C353.524 281.096 355.922 280.175 358.873 280.542" stroke="#292F44" stroke-width="2.09" stroke-miterlimit="10" stroke-linecap="round" stroke-linejoin="round"/>
<path d="M369.478 279.619C372.151 278.327 375.012 278.88 376.671 279.619" stroke="#292F44" stroke-width="2.09" stroke-miterlimit="10" stroke-linecap="round" stroke-linejoin="round"/>
<path d="M364.775 285.428C365.421 286.627 368.094 288.193 368.279 289.485C368.464 290.776 367.633 292.068 367.633 292.068" stroke="#FE7654" stroke-width="1.045" stroke-miterlimit="10" stroke-linecap="round" stroke-linejoin="round"/>
<path d="M358.045 299.444C357.952 298.706 361.363 298.523 366.619 298.06C371.876 297.599 374.641 296.861 375.287 297.414C375.933 297.967 372.429 303.869 367.173 304.054C361.917 304.24 358.045 299.444 358.045 299.444Z" fill="white" stroke="#FE7654" stroke-width="1.045" stroke-miterlimit="10" stroke-linecap="round" stroke-linejoin="round"/>
<path d="M349.745 308.021C354.17 313.555 360.164 316.596 367.45 316.321C374.736 316.043 378.516 312.079 378.516 312.079" stroke="#FE7654" stroke-width="1.045" stroke-miterlimit="10" stroke-linecap="round" stroke-linejoin="round"/>
<path d="M341.998 295.665C344.764 297.51 345.225 299.722 345.225 299.722" stroke="#FE7654" stroke-width="1.045" stroke-miterlimit="10" stroke-linecap="round" stroke-linejoin="round"/>
<path d="M386.905 291.422C385.892 293.267 384.786 298.983 384.786 298.983" stroke="#FE7654" stroke-width="1.045" stroke-miterlimit="10" stroke-linecap="round" stroke-linejoin="round"/>
<path d="M353.069 299.629C351.608 299.756 350.769 298.732 350.584 296.594C350.396 294.455 351.044 293.301 352.508 293.172C353.969 293.045 354.808 294.069 354.993 296.207C355.178 298.348 354.53 299.502 353.069 299.629Z" fill="#FE9074"/>
<path d="M378.775 297.422C377.312 297.332 376.634 296.194 376.769 294.05C376.901 291.907 377.716 290.861 379.18 290.954C380.644 291.044 381.321 292.182 381.186 294.326C381.051 296.469 380.239 297.515 378.775 297.422Z" fill="#FE9074"/>
<path d="M396.343 409.333C405.196 411.545 413.31 420.644 414.295 431.217C415.279 441.79 407.655 459.742 407.655 459.742L374.951 458.022C374.951 458.022 358.968 440.07 361.673 430.974C364.378 421.875 371.018 416.219 376.674 413.022C382.327 409.822 396.343 409.333 396.343 409.333Z" fill="#F7EAE1"/>
<path d="M300.688 405.151C295.771 408.594 286.918 415.232 286.426 430.232C285.933 445.233 297.983 454.576 297.983 454.576H321.098L338.066 424.331C338.066 424.331 334.622 409.084 326.508 407.117C318.394 405.151 300.688 405.151 300.688 405.151Z" fill="#F7EAE1"/>
<path d="M396.097 442.036C392.654 442.036 385.524 444.495 385.524 444.495" stroke="#FE7654" stroke-width="1.045" stroke-miterlimit="10" stroke-linecap="round" stroke-linejoin="round"/>
<path d="M393.884 424.823C388.721 425.562 382.081 430.725 382.081 430.725" stroke="#FE7654" stroke-width="1.045" stroke-miterlimit="10" stroke-linecap="round" stroke-linejoin="round"/>
<path d="M311.507 436.626C314.95 436.626 325.523 441.052 327.244 443.513" stroke="#FE7654" stroke-width="1.045" stroke-miterlimit="10" stroke-linecap="round" stroke-linejoin="round"/>
<path d="M313.227 420.152C317.163 420.398 326.998 426.792 326.998 426.792" stroke="#FE7654" stroke-width="1.045" stroke-miterlimit="10" stroke-linecap="round" stroke-linejoin="round"/>
<path d="M386.246 466.242L319.375 463.529C317.631 463.457 316.26 461.973 316.332 460.226L318.057 417.68C318.129 415.935 319.614 414.565 321.36 414.636L388.231 417.349C389.975 417.42 391.346 418.905 391.275 420.652L389.549 463.198C389.478 464.942 387.991 466.313 386.246 466.242Z" fill="#414659"/>
<path d="M357.603 436.274C357.775 433.945 356.025 431.918 353.696 431.746C351.367 431.574 349.34 433.323 349.168 435.652C348.993 438.045 346.651 439.937 346.474 442.33C346.214 445.868 348.872 448.949 352.41 449.208C355.949 449.468 359.029 446.81 359.289 443.272C359.466 440.882 357.428 438.667 357.603 436.274ZM352.635 446.18C350.729 446.04 349.3 444.383 349.441 442.478C349.581 440.572 351.238 439.143 353.143 439.283C355.049 439.424 356.478 441.081 356.338 442.986C356.197 444.889 354.541 446.321 352.635 446.18Z" fill="white"/>
<path d="M393.638 395.07C395.851 385.725 401.999 367.037 402.737 362.366" stroke="#292F44" stroke-width="1.045" stroke-miterlimit="10" stroke-linecap="round" stroke-linejoin="round"/>
<path d="M308.31 392.855C307.326 383.018 304.867 360.397 303.639 356.708" stroke="#292F44" stroke-width="1.045" stroke-miterlimit="10" stroke-linecap="round" stroke-linejoin="round"/>
<path d="M417 407.855C430.77 406.871 455.851 407.609 462.984 407.855" stroke="#292F44" stroke-width="1.045" stroke-miterlimit="10" stroke-linecap="round" stroke-linejoin="round"/>
<path d="M286.672 404.659C273.886 403.428 247.82 403.428 243.146 403.92" stroke="#292F44" stroke-width="1.045" stroke-miterlimit="10" stroke-linecap="round" stroke-linejoin="round"/>
<path d="M412.572 386.955C417.735 384.25 428.308 380.069 428.308 380.069" stroke="#292F44" stroke-width="1.045" stroke-miterlimit="10" stroke-linecap="round" stroke-linejoin="round"/>
<path d="M276.099 383.758C279.788 384.251 295.032 385.725 295.032 385.725" stroke="#292F44" stroke-width="1.045" stroke-miterlimit="10" stroke-linecap="round" stroke-linejoin="round"/>
<path d="M253.476 449.412C257.165 449.412 271.674 443.51 271.674 443.51" stroke="#292F44" stroke-width="1.045" stroke-miterlimit="10" stroke-linecap="round" stroke-linejoin="round"/>
<path d="M418.474 449.166C422.163 451.379 432.982 455.806 435.687 455.806" stroke="#292F44" stroke-width="1.045" stroke-miterlimit="10" stroke-linecap="round" stroke-linejoin="round"/>
<path d="M344.211 320.929C339.54 321.789 328.474 323.019 326.013 324.494" stroke="#292F44" stroke-width="1.045" stroke-miterlimit="10" stroke-linecap="round" stroke-linejoin="round"/>
<path d="M349.867 392.119C353.802 390.888 368.554 387.937 371.505 385.232" stroke="#292F44" stroke-width="1.045" stroke-miterlimit="10" stroke-linecap="round" stroke-linejoin="round"/>
<path d="M339.418 214.333L347.162 240.888" stroke="#F9CC56" stroke-width="2.09" stroke-miterlimit="10" stroke-linecap="round" stroke-linejoin="round"/>
<path d="M408.022 229.455L397.696 244.578" stroke="#F9CC56" stroke-width="2.09" stroke-miterlimit="10" stroke-linecap="round" stroke-linejoin="round"/>
<path d="M380.85 193.677C375.933 198.348 373.228 204.988 377.161 210.89C381.096 216.792 382.078 223.186 375.194 227.611C368.311 232.036 369.539 241.381 372.982 243.84" stroke="#F9CC56" stroke-width="2.09" stroke-miterlimit="10" stroke-linecap="round" stroke-linejoin="round"/>
<path d="M65.0502 210.842C72.106 203.471 82.9146 204.85 87.0592 211.89C91.2037 218.93 98.7597 226.745 109.412 220.909C120.065 215.074 128.597 217.011 133.3 226.33C138.003 235.651 145.874 236.537 153.014 231.162" stroke="#FD3C0B" stroke-width="2.09" stroke-miterlimit="10" stroke-linecap="round" stroke-linejoin="round"/>
<path d="M600.474 278.229C598.211 268.281 605.317 260.018 613.473 260.439C621.633 260.86 632.317 258.859 633.315 246.754C634.315 234.648 640.63 228.595 650.999 229.805C661.369 231.014 666.447 224.935 665.894 216.014" stroke="#FE8263" stroke-width="2.09" stroke-miterlimit="10" stroke-linecap="round" stroke-linejoin="round"/>
<path d="M268.601 113.943C280.638 115.018 298.79 112.517 307.81 102.944C316.827 93.3716 322.271 77.6827 315.162 68.4249C308.053 59.1699 297.883 67.1122 299.431 75.4145C300.979 83.7168 314.643 91.3443 330.494 85.588C346.344 79.829 353.932 63.1874 353.895 52.5005" stroke="#FD3C0B" stroke-width="2.09" stroke-miterlimit="10" stroke-linecap="round" stroke-linejoin="round"/>
<path d="M142.936 31.6796C142.936 31.6796 144.723 14.7336 157.963 18.5393C170.299 22.0858 164.498 37.42 164.498 37.42C164.498 37.42 176.942 39.4552 174.56 51.5236C172.178 63.592 161.1 61.832 156.717 59.1881C156.717 59.1881 160.922 71.312 148.78 74.2868C136.635 77.2615 135.441 62.3666 135.441 62.3666C135.441 62.3666 124.675 68.8031 118.556 59.1352C112.437 49.4672 123.314 42.0965 130.463 42.6073C130.463 42.6073 126.75 34.342 131.723 29.6232C136.698 24.9044 142.936 31.6796 142.936 31.6796Z" stroke="#94C7D4" stroke-width="2.09" stroke-miterlimit="10" stroke-linecap="round" stroke-linejoin="round"/>
<path d="M372.68 40.3761C372.68 40.3761 372.302 23.4275 382.245 17.7453C392.188 12.0631 402.129 20.5851 402.129 20.5851C402.129 20.5851 404.116 6.57144 417.751 2.31046C431.386 -1.95053 441.613 5.52869 444.169 10.3587C446.726 15.1887 446.726 21.1541 446.726 21.1541C446.726 21.1541 454.356 14.9876 460.361 19.3544C466.61 23.8986 464.339 37.9148 451.649 39.4287C439.26 40.9081 372.68 40.3761 372.68 40.3761Z" stroke="#94C7D4" stroke-width="2.09" stroke-miterlimit="10" stroke-linecap="round" stroke-linejoin="round"/>
<path d="M552.16 137.699C541.222 136.331 541.331 126.29 545.586 122.616C549.839 118.943 555.836 121.457 557.189 123.196C557.189 123.196 554.868 113.139 562.217 107.144C569.567 101.15 579.621 104.823 582.329 113.332C582.329 113.332 586.195 103.275 596.445 104.823C606.696 106.372 606.502 117.974 605.727 119.906C605.727 119.906 614.236 115.071 620.617 120.872C626.998 126.673 624.483 136.341 624.483 136.341C624.483 136.341 562.99 139.052 552.16 137.699Z" stroke="#94C7D4" stroke-width="2.09" stroke-miterlimit="10" stroke-linecap="round" stroke-linejoin="round"/>
<path d="M1.04541 309.017L4.90412 307.241C4.90412 307.241 6.21682 300.836 13.0079 300.22C19.799 299.603 29.6761 299.293 29.6761 299.293C29.6761 299.293 29.9857 285.248 30.6024 277.84C31.219 270.433 33.4554 270.39 35.6176 270.509C37.0071 270.586 38.6268 272.052 38.6268 278.38C38.6268 278.38 38.0869 269.35 42.7157 269.35C48.2841 269.35 47.0376 278.841 47.0376 278.841C47.0376 278.841 47.2731 272.878 50.2003 272.743C53.5958 272.59 52.9792 277.528 53.1327 284.626C53.2862 291.727 52.6695 298.515 52.6695 298.515C52.6695 298.515 63.6263 298.592 66.7149 298.592C69.8008 298.592 75.4353 296.123 75.4353 296.123C75.4353 296.123 75.5121 303.454 71.8863 309.705C68.4907 315.557 61.9325 316.573 51.7459 317.19C41.5592 317.806 21.1858 317.806 14.5509 317.036C7.91327 316.263 4.82737 310.708 4.82737 310.708L1.04541 309.017Z" stroke="#F6B60D" stroke-width="2.09" stroke-miterlimit="10" stroke-linecap="round" stroke-linejoin="round"/>
<path d="M29.6761 299.293C29.5226 302.766 29.4458 306.624 29.4458 306.624" stroke="#F6B60D" stroke-width="2.09" stroke-miterlimit="10" stroke-linecap="round" stroke-linejoin="round"/>
<path d="M52.6721 298.521C52.5954 301.916 52.209 306.391 52.209 306.391" stroke="#F6B60D" stroke-width="2.09" stroke-miterlimit="10" stroke-linecap="round" stroke-linejoin="round"/>
<path d="M13.3649 311.118C15.2526 310.328 16.1426 308.158 15.3527 306.27C14.5629 304.382 12.3922 303.492 10.5045 304.282C8.61674 305.072 7.72675 307.243 8.51664 309.13C9.30652 311.018 11.4772 311.908 13.3649 311.118Z" stroke="#F6B60D" stroke-width="2.09" stroke-miterlimit="10" stroke-linecap="round" stroke-linejoin="round"/>
<path d="M200.176 24.7432L210.135 37.4679" stroke="#F9CC56" stroke-width="2.09" stroke-miterlimit="10" stroke-linecap="round" stroke-linejoin="round"/>
<path d="M271.549 57.3859L288.699 52.4077" stroke="#F9CC56" stroke-width="2.09" stroke-miterlimit="10" stroke-linecap="round" stroke-linejoin="round"/>
<path d="M392.484 80.1621L411.206 96.5762" stroke="#F9CC56" stroke-width="2.09" stroke-miterlimit="10" stroke-linecap="round" stroke-linejoin="round"/>
<path d="M530.482 94.4561L500.605 109.946" stroke="#F9CC56" stroke-width="2.09" stroke-miterlimit="10" stroke-linecap="round" stroke-linejoin="round"/>
<path d="M254.788 531.075L231.321 561.889" stroke="#F9CC56" stroke-width="2.09" stroke-miterlimit="10" stroke-linecap="round" stroke-linejoin="round"/>
<path d="M640.029 302.487L679.865 303.594" stroke="#F9CC56" stroke-width="2.09" stroke-miterlimit="10" stroke-linecap="round" stroke-linejoin="round"/>
<path d="M436.426 533.756L467.409 566.954" stroke="#F9CC56" stroke-width="2.09" stroke-miterlimit="10" stroke-linecap="round" stroke-linejoin="round"/>
<path d="M235.032 142.039L215.114 163.063" stroke="#F9CC56" stroke-width="2.09" stroke-miterlimit="10" stroke-linecap="round" stroke-linejoin="round"/>
<path d="M117.519 163.862C118.882 156.346 113.893 149.148 106.377 147.785C98.8604 146.422 91.6624 151.411 90.2997 158.927C88.9369 166.444 93.9255 173.642 101.442 175.005C108.958 176.367 116.156 171.379 117.519 163.862Z" stroke="#FD3C0B" stroke-width="2.09" stroke-miterlimit="10" stroke-linecap="round" stroke-linejoin="round"/>
<path d="M89.964 367.543C90.7533 363.027 87.7327 358.727 83.2172 357.938C78.7017 357.148 74.4013 360.169 73.612 364.684C72.8227 369.2 75.8433 373.5 80.3588 374.29C84.8743 375.079 89.1747 372.058 89.964 367.543Z" stroke="#F6B60D" stroke-width="2.09" stroke-miterlimit="10" stroke-linecap="round" stroke-linejoin="round"/>
</g>
<defs>
<clipPath id="clip0_2513_932">
<rect width="680.911" height="568" fill="white"/>
</clipPath>
</defs>
</svg>
