<svg width="568" height="317" viewBox="0 0 568 317" fill="none" xmlns="http://www.w3.org/2000/svg">
<path opacity="0.52" d="M-3.99997 50L-3.99999 317L478 317C473.098 300.97 464.275 283.484 447.777 272.88C405.376 245.628 357.928 293.172 303.832 268.263C261.575 248.806 273.101 211.769 228.708 190.493C176.146 165.301 138.001 206.689 101.79 180.673C66.134 155.058 88.4242 104.375 54.8525 71.5531C43.6085 60.5601 25.7874 51.2663 -3.99997 50Z" fill="#90C63C"/>
<path opacity="0.52" d="M65.4919 25.9468C52.3147 13.0578 31.4314 2.10724 -3.5 0.522407L-3.50003 316.5L567.323 316.5C561.482 297.698 551.078 277.395 531.864 265.038C506.928 249.004 480.511 254.932 452.107 261.306L452.037 261.321C423.661 267.689 393.373 274.457 361.102 259.59C336.1 248.073 326.856 231.375 317.507 214.488L317.249 214.021C307.824 196.999 298.136 179.812 271.944 167.253C240.915 152.375 214.15 157.147 189.669 161.831C189.232 161.915 188.795 161.999 188.359 162.082C164.425 166.668 142.551 170.859 121.252 155.55C99.9036 140.206 95.9236 117.345 92.2708 93.6512C92.1762 93.0375 92.0818 92.4233 91.9873 91.8086C88.4265 68.637 84.7629 44.7958 65.4919 25.9468Z" stroke="#052D70"/>
</svg>
