<svg width="546" height="338" viewBox="0 0 546 338" fill="none" xmlns="http://www.w3.org/2000/svg">
<path opacity="0.52" d="M546 267L546 1.16202e-05L64 -3.05176e-05C68.9025 16.0298 77.7247 33.5156 94.2225 44.1205C136.624 71.3723 184.072 23.8283 238.168 48.737C280.425 68.1939 268.899 105.231 313.292 126.507C365.854 151.699 403.999 110.311 440.21 136.327C475.866 161.942 453.576 212.625 487.147 245.447C498.392 256.44 516.213 265.734 546 267Z" fill="#90C63C"/>
<path opacity="0.52" d="M535.868 310.358C549.932 324.112 572.22 335.793 609.5 337.478L609.5 0.499992L0.677244 0.499939C6.9046 20.5628 18.0039 42.2415 38.5189 55.4323C65.1225 72.5357 93.3071 66.2124 123.593 59.4176L123.674 59.3994C153.936 52.61 186.225 45.397 220.629 61.2429C247.282 73.5185 257.136 91.3148 267.106 109.321L267.38 109.817C277.432 127.967 287.767 146.301 315.71 159.697C348.811 175.566 377.364 170.475 403.471 165.481C403.936 165.392 404.4 165.303 404.864 165.214C430.391 160.324 453.705 155.858 476.408 172.173C499.162 188.524 503.405 212.885 507.301 238.15C507.402 238.805 507.503 239.461 507.604 240.118C511.4 264.822 515.309 290.252 535.868 310.358Z" stroke="#052D70"/>
</svg>
