<svg width="298" height="156" viewBox="0 0 298 156" fill="none" xmlns="http://www.w3.org/2000/svg">
<mask id="mask0_2701_1396" style="mask-type:luminance" maskUnits="userSpaceOnUse" x="5" y="5" width="278" height="144">
<path d="M282.831 5.53552H5.70374V148.955H282.831V5.53552Z" fill="white"/>
</mask>
<g mask="url(#mask0_2701_1396)">
<path d="M133.294 56.1097C133.294 48.0581 139.742 41.3903 147.677 41.3903C155.613 41.3903 162.061 47.9323 162.061 56.1097C162.061 64.2871 155.489 70.829 147.677 70.829C139.742 70.829 133.294 64.2871 133.294 56.1097Z" fill="white"/>
<path d="M151.521 7.17098C153.629 9.30969 153.629 12.7065 151.521 14.971L108.371 58.8774C106.263 61.0161 102.915 61.0161 100.683 58.8774C98.5756 56.7387 98.5756 53.3419 100.683 51.0774L143.958 7.17098C146.065 4.90647 149.413 4.90647 151.521 7.17098Z" fill="white"/>
<path d="M143.958 7.17098C141.85 9.30969 141.85 12.7065 143.958 14.971L187.108 59.0032C189.216 61.142 192.563 61.142 194.795 59.0032C196.903 56.8645 196.903 53.4678 194.795 51.2032L151.521 7.17098C149.413 4.90647 146.065 4.90647 143.958 7.17098Z" fill="white"/>
<path d="M15.7473 137.758H12.7714V148.829H15.7473V137.758Z" fill="white"/>
<path d="M18.5992 148.829V137.758H21.3271L24.9229 144.048V137.758H27.6508V148.829H25.0469L21.3271 141.91H21.2031V148.829H18.5992Z" fill="white"/>
<path d="M31.8666 139.394H29.0147V137.758H37.8183V139.394H34.8425V148.829H31.8666V139.394Z" fill="white"/>
<path d="M39.0582 148.829V137.758H47.1179V139.394H42.0341V142.287H45.8779V143.923H42.0341V147.194H47.3659V148.829H39.0582Z" fill="white"/>
<path d="M52.3257 142.665H53.3176C54.9295 142.665 55.5495 142.287 55.5495 140.903C55.5495 139.645 54.9295 139.142 53.3176 139.142H52.3257V142.665ZM52.3257 148.829H49.3498V137.758H53.5656C56.9135 137.758 58.6494 138.639 58.6494 141.029C58.6494 142.79 57.5334 143.419 56.5415 143.797L59.0214 148.829H55.9215L53.6896 144.3C53.3176 144.3 52.6976 144.3 52.2017 144.3V148.829H52.3257Z" fill="white"/>
<path d="M60.8813 148.829V137.758H63.6092L67.205 144.048H67.329V137.758H69.9329V148.829H67.329L63.6092 141.91V148.829H60.8813Z" fill="white"/>
<path d="M72.4127 148.829V137.758H80.5964V139.394H75.5126V142.287H79.2324V143.923H75.5126V147.194H80.7203V148.829H72.4127Z" fill="white"/>
<path d="M84.4402 139.394H81.5884V137.758H90.392V139.394H87.4161V148.829H84.4402V139.394Z" fill="white"/>
<path d="M108.495 137.758V148.829H105.891V140.148H105.767L103.163 148.829H101.675L98.9476 140.148V148.829H96.3437V137.758H100.312L102.419 144.174H102.543L104.651 137.758H108.495Z" fill="white"/>
<path d="M113.455 144.677H115.811L114.695 139.897L113.455 144.677ZM112.587 148.829H109.735L112.959 137.758H116.555L119.779 148.829H116.927L116.307 146.439H112.959L112.587 148.829Z" fill="white"/>
<path d="M123.994 142.665H124.986C126.598 142.665 127.218 142.287 127.218 140.903C127.218 139.645 126.598 139.142 124.986 139.142H123.994V142.665ZM123.994 148.829H121.019V137.758H125.234C128.582 137.758 130.318 138.639 130.318 141.029C130.318 142.79 129.326 143.419 128.21 143.797L130.69 148.829H127.59L125.358 144.3C124.986 144.3 124.366 144.3 123.746 144.3L123.994 148.829Z" fill="white"/>
<path d="M132.426 148.829V137.758H135.402V141.784H135.526L138.626 137.758H141.726L138.378 141.784L141.974 148.829H138.874L136.518 143.671L135.402 144.803V148.829H132.426Z" fill="white"/>
<path d="M142.842 148.829V137.758H150.901V139.394H145.817V142.287H149.661V143.923H145.817V147.194H151.149V148.829H142.842Z" fill="white"/>
<path d="M154.869 139.394H151.893V137.758H160.697V139.394H157.845V148.829H154.869V139.394Z" fill="white"/>
<path d="M165.409 137.758H162.433V148.829H165.409V137.758Z" fill="white"/>
<path d="M168.26 148.829V137.758H170.988L174.584 144.048H174.708V137.758H177.312V148.829H174.832L170.988 141.91V148.829H168.26Z" fill="white"/>
<path d="M184.008 143.168H188.968V148.703H187.48L186.86 147.948C185.992 148.703 185.248 148.829 183.884 148.829C181.528 148.829 179.916 147.823 179.916 146.061V140.4C179.916 138.89 181.404 137.632 184.256 137.632C187.232 137.632 188.72 139.016 188.72 140.652V141.406H185.868C185.868 139.771 185.248 139.268 184.132 139.268C183.388 139.268 182.768 139.519 182.768 140.4V146.061C182.768 146.816 183.14 147.194 184.132 147.194C185.372 147.194 185.744 146.69 185.744 145.684V144.677H184.008V143.168Z" fill="white"/>
<path d="M48.2339 101.526V98.6323C48.2339 96.242 48.1099 94.6065 47.8619 94.1033C47.4899 93.3484 46.4979 93.0968 45.01 93.0968C43.3981 93.0968 42.5301 93.4742 42.1581 94.1033C41.7861 94.8581 41.5382 96.3678 41.5382 98.7581V101.526H48.2339ZM58.7734 123.668C58.7734 125.932 58.0294 127.568 56.2935 128.574C54.0616 129.832 50.3418 130.587 45.01 130.587C39.5542 130.587 35.7104 129.832 33.6025 128.574C31.8666 127.568 31.1226 125.932 31.1226 123.668V98.3807C31.1226 93.2226 35.8344 90.5807 45.01 90.5807C54.3096 90.5807 58.8974 93.0968 58.8974 98.3807V104.294H41.5382V123.29C41.5382 125.429 41.7861 126.687 42.2821 127.316C42.7781 127.945 43.6461 128.071 45.01 128.071C46.2499 128.071 47.1179 127.819 47.4899 127.316C48.1099 126.561 48.2339 125.303 48.2339 123.165V109.074H58.7734V123.668Z" fill="white"/>
<path d="M92.2518 123.668C92.2518 125.932 91.5079 127.568 89.772 128.574C87.5401 129.832 83.8202 130.587 78.4885 130.587C73.1567 130.587 69.1889 129.832 67.205 128.574C65.469 127.568 64.6011 125.932 64.6011 123.668V98.3807C64.6011 93.2226 69.3129 90.5807 78.4885 90.5807C87.788 90.5807 92.3758 93.0968 92.3758 98.2549V102.91H81.7123V98.5065C81.7123 96.1162 81.5883 94.4807 81.3403 93.9775C80.9683 93.2226 80.1004 92.971 78.4885 92.971C76.8765 92.971 76.0086 93.3484 75.6366 93.9775C75.2646 94.7323 75.0166 96.242 75.0166 98.6323V123.29C75.0166 125.429 75.2646 126.687 75.7606 127.316C76.2566 127.945 77.1245 128.071 78.4885 128.071C79.7284 128.071 80.5964 127.819 80.9683 127.316C81.5883 126.561 81.7123 125.303 81.7123 123.165V109.074H92.2518V123.668Z" fill="white"/>
<path d="M125.234 130.084H114.695V99.7645C114.695 97.1226 114.323 95.3613 113.827 94.4807C113.331 93.8516 112.463 93.6 111.099 93.6H107.999V129.958H97.4596V83.6613H107.999V90.8323H111.099C120.647 90.8323 125.234 93.4742 125.234 98.8839V130.084Z" fill="white"/>
<path d="M31.9906 86.9323H25.0469V129.958H12.6474V86.9323H5.70374V83.6613H31.9906V86.9323Z" fill="white"/>
<path d="M249.105 124.423C249.105 128.574 244.393 130.713 235.217 130.713C225.918 130.713 221.33 128.323 221.33 123.416V113.855H231.87V122.661C231.87 125.177 232.118 126.687 232.614 127.568C233.11 128.197 233.854 128.323 235.217 128.323C236.457 128.323 237.449 128.071 237.821 127.568C238.317 126.939 238.565 125.555 238.565 123.542V112.848C238.565 111.716 237.077 110.71 234.102 109.955C229.018 108.571 226.29 107.69 225.918 107.565C222.942 106.306 221.454 104.545 221.454 102.281V95.2355C221.454 91.9645 226.042 90.329 235.341 90.329C240.673 90.329 244.517 90.9581 246.625 92.2161C248.361 93.0968 249.229 94.7323 249.229 96.871V103.413H238.565V97.6258C238.565 95.4871 238.317 94.1032 237.821 93.6C237.325 93.0968 236.581 92.8452 235.217 92.8452C232.986 92.8452 231.87 93.6 231.87 95.2355V103.79C231.87 104.671 233.358 105.552 236.457 106.306C240.921 107.439 243.649 108.319 244.765 108.823C247.741 110.206 249.229 112.094 249.229 114.358L249.105 124.423Z" fill="white"/>
<path d="M272.168 101.526V98.6323C272.168 96.242 272.044 94.6065 271.796 94.1033C271.424 93.3484 270.432 93.0968 268.944 93.0968C267.332 93.0968 266.464 93.4742 266.092 94.1033C265.72 94.8581 265.472 96.3678 265.472 98.7581V101.526H272.168ZM282.831 123.668C282.831 125.932 282.087 127.568 280.351 128.574C278.12 129.832 274.4 130.587 269.068 130.587C263.612 130.587 259.768 129.832 257.66 128.574C255.925 127.568 255.181 125.932 255.181 123.668V98.3807C255.181 93.2226 259.892 90.5807 269.068 90.5807C278.368 90.5807 282.955 93.0968 282.955 98.3807V104.294H265.596V123.29C265.596 125.429 265.844 126.687 266.34 127.316C266.836 127.945 267.704 128.071 269.068 128.071C270.308 128.071 271.176 127.819 271.548 127.316C272.168 126.561 272.292 125.303 272.292 123.165V109.074H282.831V123.668Z" fill="white"/>
<path d="M204.715 90.8323V122.661C204.715 125.177 204.591 126.687 204.343 127.19C203.971 127.945 202.979 128.197 201.491 128.197C200.127 128.197 199.259 127.945 198.763 127.442C198.143 126.687 198.019 125.052 198.019 122.41V90.8323H187.48V122.913C187.48 126.939 190.455 129.455 196.159 130.335V148.703H206.699V130.335C212.403 129.581 215.254 127.065 215.254 123.039V90.8323H204.715Z" fill="white"/>
<path d="M181.528 122.158C181.528 127.694 176.32 130.587 165.781 130.587C160.697 130.587 157.721 129.581 156.233 127.442C154.621 129.581 151.397 130.587 146.561 130.587C136.022 130.587 130.814 127.819 130.814 122.158V83.6613H143.214V121.403C143.214 121.655 143.214 122.032 143.09 122.536C142.966 123.165 142.966 123.542 142.966 123.794C142.966 126.184 144.206 127.442 146.561 127.442C148.421 127.442 149.413 126.687 149.909 125.429C150.033 125.303 150.033 124.171 150.033 122.158V83.6613H162.433V122.158C162.433 122.41 162.433 122.787 162.309 123.29C162.185 123.794 162.185 124.171 162.185 124.423C162.185 126.561 163.301 127.442 165.781 127.442C168.136 127.442 169.376 126.184 169.376 123.668C169.376 123.29 169.376 122.913 169.252 122.284V121.152V83.6613H181.652V122.158H181.528Z" fill="white"/>
</g>
</svg>
