<svg width="417" height="229" viewBox="0 0 417 229" fill="none" xmlns="http://www.w3.org/2000/svg">
<mask id="mask0_2701_791" style="mask-type:luminance" maskUnits="userSpaceOnUse" x="7" y="23" width="387" height="197">
<path d="M393.048 23.0718H7.92639V219.357H393.048V23.0718Z" fill="white"/>
</mask>
<g mask="url(#mask0_2701_791)">
<path d="M185.238 92.2887C185.238 81.2691 194.198 72.1436 205.226 72.1436C216.254 72.1436 225.214 81.0969 225.214 92.2887C225.214 103.48 216.082 112.434 205.226 112.434C194.198 112.434 185.238 103.48 185.238 92.2887Z" fill="#8DC63F"/>
<path d="M210.568 25.3103C213.497 28.2373 213.497 32.8862 210.568 35.9855L150.602 96.0764C147.673 99.0035 143.021 99.0035 139.919 96.0764C136.99 93.1494 136.99 88.5005 139.919 85.4012L200.057 25.3103C202.986 22.211 207.638 22.211 210.568 25.3103Z" fill="#1C3F94"/>
<path d="M200.057 25.3103C197.127 28.2373 197.127 32.8862 200.057 35.9855L260.022 96.2486C262.951 99.1757 267.604 99.1757 270.705 96.2486C273.635 93.3216 273.635 88.6727 270.705 85.5734L210.568 25.3103C207.638 22.211 202.986 22.211 200.057 25.3103Z" fill="#1C3F94"/>
<path d="M21.8838 204.034H17.7483V219.186H21.8838V204.034Z" fill="#1C3F94"/>
<path d="M25.847 219.186V204.034H29.638L34.6351 212.643V204.034H38.426V219.186H34.8074L29.638 209.716H29.4656V219.186H25.847Z" fill="#1C3F94"/>
<path d="M44.2846 206.272H40.3214V204.034H52.5557V206.272H48.4202V219.186H44.2846V206.272Z" fill="#1C3F94"/>
<path d="M54.2788 219.186V204.034H65.4792V206.272H58.4143V210.232H63.7561V212.471H58.4143V216.947H65.8239V219.186H54.2788Z" fill="#1C3F94"/>
<path d="M72.7165 210.749H74.095C76.3351 210.749 77.1966 210.232 77.1966 208.338C77.1966 206.616 76.3351 205.928 74.095 205.928H72.7165V210.749ZM72.7165 219.186H68.5809V204.034H74.4396C79.0921 204.034 81.5045 205.239 81.5045 208.51C81.5045 210.921 79.9537 211.782 78.5751 212.298L82.0214 219.186H77.7136L74.6119 212.987C74.095 212.987 73.2334 212.987 72.5442 212.987V219.186H72.7165Z" fill="#1C3F94"/>
<path d="M84.6061 219.186V204.034H88.3971L93.3942 212.643H93.5665V204.034H97.1851V219.186H93.5665L88.3971 209.716V219.186H84.6061Z" fill="#1C3F94"/>
<path d="M100.631 219.186V204.034H112.004V206.272H104.939V210.232H110.109V212.471H104.939V216.947H112.176V219.186H100.631Z" fill="#1C3F94"/>
<path d="M117.346 206.272H113.383V204.034H125.617V206.272H121.481V219.186H117.346V206.272Z" fill="#1C3F94"/>
<path d="M150.775 204.034V219.186H147.156V207.305H146.984L143.365 219.186H141.297L137.507 207.305V219.186H133.888V204.034H139.402L142.331 212.815H142.504L145.433 204.034H150.775Z" fill="#1C3F94"/>
<path d="M157.667 213.504H160.941L159.39 206.961L157.667 213.504ZM156.461 219.186H152.498L156.978 204.034H161.975L166.455 219.186H162.492L161.631 215.914H156.978L156.461 219.186Z" fill="#1C3F94"/>
<path d="M172.314 210.749H173.693C175.933 210.749 176.794 210.232 176.794 208.338C176.794 206.616 175.933 205.928 173.693 205.928H172.314V210.749ZM172.314 219.186H168.178V204.034H174.037C178.69 204.034 181.102 205.239 181.102 208.51C181.102 210.921 179.724 211.782 178.173 212.298L181.619 219.186H177.311L174.209 212.987C173.693 212.987 172.831 212.987 171.969 212.987L172.314 219.186Z" fill="#1C3F94"/>
<path d="M184.031 219.186V204.034H188.167V209.543H188.339L192.647 204.034H196.955L192.302 209.543L197.3 219.186H192.992L189.718 212.126L188.167 213.676V219.186H184.031Z" fill="#1C3F94"/>
<path d="M198.506 219.186V204.034H209.706V206.272H202.641V210.232H207.983V212.471H202.641V216.947H210.051V219.186H198.506Z" fill="#1C3F94"/>
<path d="M215.22 206.272H211.085V204.034H223.319V206.272H219.356V219.186H215.22V206.272Z" fill="#1C3F94"/>
<path d="M229.867 204.034H225.731V219.186H229.867V204.034Z" fill="#1C3F94"/>
<path d="M233.83 219.186V204.034H237.621L242.618 212.643H242.79V204.034H246.409V219.186H242.963L237.621 209.716V219.186H233.83Z" fill="#1C3F94"/>
<path d="M255.714 211.437H262.606V219.013H260.539L259.677 217.98C258.471 219.013 257.437 219.185 255.542 219.185C252.268 219.185 250.028 217.808 250.028 215.397V207.649C250.028 205.583 252.095 203.861 256.059 203.861C260.194 203.861 262.262 205.755 262.262 207.994V209.027H258.299C258.299 206.788 257.437 206.1 255.886 206.1C254.852 206.1 253.991 206.444 253.991 207.649V215.397C253.991 216.43 254.508 216.947 255.886 216.947C257.609 216.947 258.126 216.258 258.126 214.881V213.503H255.714V211.437Z" fill="#1C3F94"/>
<path d="M67.0301 154.446V150.485C67.0301 147.214 66.8578 144.976 66.5131 144.287C65.9962 143.254 64.6177 142.909 62.5499 142.909C60.3098 142.909 59.1036 143.426 58.5867 144.287C58.0697 145.32 57.7251 147.386 57.7251 150.658V154.446H67.0301ZM81.6768 184.749C81.6768 187.849 80.6429 190.087 78.2305 191.464C75.1288 193.186 69.9594 194.219 62.5499 194.219C54.9681 194.219 49.6264 193.186 46.697 191.464C44.2846 190.087 43.2507 187.849 43.2507 184.749V150.141C43.2507 143.082 49.7987 139.466 62.5499 139.466C75.4735 139.466 81.8491 142.909 81.8491 150.141V158.233H57.7251V184.233C57.7251 187.16 58.0697 188.882 58.759 189.743C59.4482 190.603 60.6544 190.776 62.5499 190.776C64.273 190.776 65.4792 190.431 65.9962 189.743C66.8578 188.709 67.0301 186.988 67.0301 184.061V164.776H81.6768V184.749Z" fill="#1C3F94"/>
<path d="M128.202 184.749C128.202 187.849 127.168 190.087 124.755 191.464C121.654 193.186 116.484 194.219 109.075 194.219C101.665 194.219 96.1512 193.186 93.3942 191.464C90.9818 190.087 89.7756 187.849 89.7756 184.749V150.141C89.7756 143.082 96.3235 139.466 109.075 139.466C121.998 139.466 128.374 142.909 128.374 149.969V156.34H113.555V150.313C113.555 147.042 113.383 144.803 113.038 144.115C112.521 143.082 111.315 142.737 109.075 142.737C106.835 142.737 105.628 143.254 105.112 144.115C104.595 145.148 104.25 147.214 104.25 150.485V184.233C104.25 187.16 104.595 188.882 105.284 189.743C105.973 190.603 107.179 190.776 109.075 190.776C110.798 190.776 112.004 190.431 112.521 189.743C113.383 188.709 113.555 186.988 113.555 184.061V164.776H128.202V184.749Z" fill="#1C3F94"/>
<path d="M174.037 193.531H159.39V152.035C159.39 148.419 158.873 146.009 158.184 144.804C157.495 143.943 156.289 143.598 154.393 143.598H150.085V193.359H135.439V129.996H150.085V139.81H154.393C167.662 139.81 174.037 143.426 174.037 150.83V193.531Z" fill="#1C3F94"/>
<path d="M44.457 134.473H34.8074V193.359H17.576V134.473H7.92639V129.996H44.457V134.473Z" fill="#1C3F94"/>
<path d="M346.179 185.782C346.179 191.464 339.631 194.392 326.88 194.392C313.956 194.392 307.581 191.12 307.581 184.405V171.319H322.227V183.372C322.227 186.816 322.572 188.882 323.261 190.087C323.95 190.948 324.984 191.12 326.88 191.12C328.603 191.12 329.981 190.776 330.498 190.087C331.188 189.226 331.532 187.332 331.532 184.577V169.942C331.532 168.392 329.464 167.015 325.329 165.982C318.264 164.088 314.473 162.882 313.956 162.71C309.821 160.989 307.753 158.578 307.753 155.479V145.837C307.753 141.36 314.129 139.122 327.052 139.122C334.462 139.122 339.803 139.982 342.733 141.704C345.145 142.91 346.351 145.148 346.351 148.075V157.028H331.532V149.108C331.532 146.181 331.188 144.287 330.498 143.598C329.809 142.91 328.775 142.565 326.88 142.565C323.778 142.565 322.227 143.598 322.227 145.837V157.545C322.227 158.75 324.295 159.955 328.603 160.989C334.806 162.538 338.597 163.743 340.148 164.432C344.283 166.326 346.351 168.909 346.351 172.008L346.179 185.782Z" fill="#8DC63F"/>
<path d="M378.229 154.446V150.485C378.229 147.214 378.057 144.976 377.712 144.287C377.195 143.254 375.817 142.909 373.749 142.909C371.509 142.909 370.303 143.426 369.786 144.287C369.269 145.32 368.924 147.386 368.924 150.658V154.446H378.229ZM393.048 184.749C393.048 187.849 392.014 190.087 389.602 191.464C386.5 193.186 381.331 194.219 373.921 194.219C366.34 194.219 360.998 193.186 358.069 191.464C355.656 190.087 354.622 187.849 354.622 184.749V150.141C354.622 143.082 361.17 139.466 373.921 139.466C386.845 139.466 393.221 142.909 393.221 150.141V158.233H369.097V184.233C369.097 187.16 369.441 188.882 370.131 189.743C370.82 190.603 372.026 190.776 373.921 190.776C375.645 190.776 376.851 190.431 377.368 189.743C378.229 188.709 378.402 186.988 378.402 184.061V164.776H393.048V184.749Z" fill="#8DC63F"/>
<path d="M284.49 139.81V183.372C284.49 186.815 284.318 188.881 283.973 189.57C283.457 190.603 282.078 190.948 280.01 190.948C278.115 190.948 276.909 190.603 276.219 189.915C275.358 188.881 275.185 186.643 275.185 183.027V139.81H260.539V183.716C260.539 189.226 264.674 192.669 272.601 193.875V219.013H287.247V193.875C295.174 192.842 299.137 189.398 299.137 183.888V139.81H284.49Z" fill="#8DC63F"/>
<path d="M252.268 182.683C252.268 190.259 245.031 194.219 230.384 194.219C223.319 194.219 219.183 192.842 217.116 189.915C214.876 192.842 210.395 194.219 203.675 194.219C189.028 194.219 181.791 190.431 181.791 182.683V129.996H199.023V181.65C199.023 181.995 199.023 182.511 198.85 183.2C198.678 184.061 198.678 184.577 198.678 184.922C198.678 188.193 200.401 189.915 203.675 189.915C206.26 189.915 207.638 188.882 208.328 187.16C208.5 186.988 208.5 185.438 208.5 182.683V129.996H225.731V182.683C225.731 183.028 225.731 183.544 225.559 184.233C225.387 184.922 225.387 185.438 225.387 185.783C225.387 188.71 226.938 189.915 230.384 189.915C233.658 189.915 235.381 188.193 235.381 184.749C235.381 184.233 235.381 183.716 235.209 182.855V181.306V129.996H252.44V182.683H252.268Z" fill="#8DC63F"/>
</g>
</svg>
