<svg width="79" height="106" viewBox="0 0 79 106" fill="none" xmlns="http://www.w3.org/2000/svg">
<g clip-path="url(#clip0_3202_2)">
<path d="M1.70743 106C1.24502 106 0.818186 105.782 0.711477 105.456C-0.942508 100.479 0.604769 95.3926 2.11648 90.4876C2.48996 89.2916 2.86344 88.0472 3.18356 86.8391C4.60634 81.5234 5.05096 76.1594 5.40666 71.1095C6.74052 51.6467 6.49153 31.9061 4.69527 12.4555C4.304 8.26334 3.75268 4.54235 0.835971 1.50998C0.533629 1.18379 0.658123 0.760945 1.13831 0.543485C1.6185 0.338105 2.24097 0.422673 2.56109 0.748864C5.74457 4.0591 6.36704 8.13045 6.7583 12.3709C8.55457 31.8699 8.80355 51.6588 7.46969 71.1699C7.114 76.2681 6.66938 81.6926 5.22881 87.0807C4.90869 88.313 4.51742 89.5574 4.14394 90.7655C2.68559 95.5376 1.17388 100.467 2.72116 105.142C2.84565 105.517 2.50774 105.891 1.93863 105.976C1.86749 105.988 1.79635 106 1.70743 106Z" fill="black"/>
<path d="M6.33131 105.323C6.31353 105.323 6.27796 105.323 6.24239 105.323C5.67327 105.299 5.24644 104.961 5.29979 104.574C5.72663 100.889 7.20277 97.1562 8.64333 93.5439C10.2084 89.5934 11.8446 85.522 12.0758 81.499C12.2003 79.3727 11.9513 77.1861 11.7023 75.0719C11.3466 72.112 10.9909 69.0554 11.649 66.0352C11.9513 64.6821 12.4493 63.3411 12.9295 62.0484C13.3029 61.0577 13.6942 60.0429 13.961 59.0281C15.117 54.8722 14.6546 50.5592 14.2278 46.3912C12.6983 31.6281 11.0976 16.3816 8.50105 1.46143L8.37656 0.772801C8.30542 0.386204 8.71447 0.0479318 9.2658 -0.000392831C9.83491 -0.0487174 10.3329 0.229149 10.404 0.603665L10.5285 1.29229C13.1429 16.2488 14.7613 31.5193 16.3086 46.2704C16.7532 50.535 17.2156 54.9447 16.024 59.2697C15.7395 60.3208 15.3304 61.3598 14.9569 62.3746C14.4767 63.631 13.9966 64.9358 13.712 66.2164C13.0895 69.0796 13.4274 72.0637 13.7654 74.939C14.0143 77.1015 14.2811 79.3244 14.1566 81.5353C13.9076 85.7153 12.2536 89.8713 10.653 93.8943C9.23023 97.4461 7.77188 101.119 7.36283 104.671C7.30947 105.045 6.86485 105.323 6.33131 105.323Z" fill="black"/>
<path d="M13.961 105.324C13.9432 105.324 13.9432 105.324 13.9254 105.324C13.3563 105.312 12.9117 104.997 12.9295 104.611C13.0895 100.576 14.2811 96.6614 16.4864 92.9646C16.7176 92.5659 16.9666 92.1793 17.2156 91.7806C17.7847 90.8625 18.336 90.0047 18.7451 89.0986C19.3676 87.7214 19.6521 86.2837 19.8833 84.9306C20.3457 82.3211 20.6659 79.6512 20.986 77.0658C21.6084 72.0884 22.2309 66.9539 23.8315 61.9764C24.2939 60.5146 24.8631 59.0286 25.4144 57.6031C26.7127 54.172 28.0643 50.6202 28.1888 47.0804C28.2244 46.1622 28.171 45.2199 28.1355 44.3017C28.0287 42.2963 27.922 40.2304 28.6156 38.2128C29.2737 36.3161 30.5898 34.5764 31.9948 32.8246C34.9292 29.152 38.1127 25.5155 41.4207 22.012C41.8831 21.5167 42.3633 21.0213 42.8257 20.526C48.6591 14.3888 54.6881 8.03411 56.022 1.29283C56.0931 0.906233 56.6089 0.640448 57.178 0.688773C57.7471 0.737097 58.1384 1.08745 58.0672 1.47405C56.68 8.51736 50.5087 15.0049 44.5686 21.2751C44.1062 21.7704 43.626 22.2657 43.1636 22.761C39.8734 26.2404 36.7255 29.8527 33.8088 33.4891C32.4749 35.1563 31.2122 36.7993 30.6253 38.5269C29.9851 40.3633 30.0918 42.26 30.1985 44.2534C30.2518 45.1836 30.2874 46.1622 30.2696 47.1166C30.1451 50.8255 28.7579 54.4499 27.4241 57.9534C26.8905 59.3669 26.3214 60.8287 25.8768 62.2664C24.3117 67.1593 23.6893 72.2454 23.0668 77.1745C22.7467 79.772 22.4088 82.454 21.9464 85.0877C21.6974 86.5012 21.395 88.0113 20.7192 89.5094C20.2746 90.488 19.6877 91.4182 19.1186 92.3243C18.8696 92.7109 18.6384 93.0975 18.4072 93.4841C16.2908 97.0239 15.1526 100.769 14.9925 104.635C14.9747 105.022 14.5123 105.324 13.961 105.324Z" fill="black"/>
<path d="M22.1064 105.323C22.0709 105.323 22.0353 105.323 22.0175 105.323C21.4484 105.287 21.0393 104.949 21.0927 104.562C22.1064 96.9995 24.454 89.4005 26.7305 82.0551C28.7579 75.5071 30.8387 68.7417 31.977 62.0246C32.3327 59.8862 32.635 57.6633 32.9018 55.5249C34.0044 46.9111 35.1605 38.0194 41.6697 30.4928C43.3414 28.5598 45.3511 26.7476 47.3075 24.9959C48.6057 23.8361 49.9396 22.628 51.149 21.4199C57.0357 15.5001 60.5749 8.55343 61.4108 1.32891C61.4464 0.942312 61.9443 0.652364 62.5134 0.688608C63.0826 0.71277 63.5094 1.05104 63.456 1.43764C62.6024 8.90379 58.9209 16.08 52.8385 22.193C51.5936 23.4374 50.2419 24.6576 48.9259 25.8295C47.0229 27.545 45.0488 29.3209 43.4304 31.1935C37.1523 38.4422 36.0319 47.1769 34.947 55.6337C34.6625 57.7841 34.3779 60.007 34.0222 62.1696C32.8662 68.9471 30.7676 75.7488 28.7401 82.3209C26.4815 89.63 24.1517 97.1928 23.1379 104.671C23.0668 105.046 22.6222 105.323 22.1064 105.323Z" fill="black"/>
<path d="M30.4119 105.323C30.3941 105.323 30.3941 105.323 30.4119 105.323C29.8428 105.323 29.3804 105.009 29.3804 104.623L29.4337 97.0356C29.4515 94.5832 29.4693 92.034 30.4297 89.5816C30.732 88.8205 31.1233 88.0714 31.4968 87.3466C31.9058 86.5613 32.2971 85.8243 32.5816 85.0511C33.1685 83.4564 33.3108 81.753 33.4531 80.11C33.4709 79.8683 33.4887 79.6267 33.5064 79.373C34.0756 72.8975 35.694 66.4583 38.2905 60.2123C38.753 59.1008 39.2509 57.9894 39.7311 56.9021C41.5452 52.8428 43.4303 48.6386 43.5548 44.3981C43.5726 43.7578 43.5548 43.0933 43.5371 42.4409C43.4837 40.1213 43.4126 37.7051 44.9776 35.5426C46.1514 33.8996 48.09 32.6673 49.9574 31.4592C50.5265 31.0967 51.0956 30.7222 51.6469 30.3477C54.9371 28.0885 57.7115 25.1407 59.9168 21.613C61.8376 18.5203 63.1715 15.2946 64.5587 11.4045C65.7147 8.16671 66.8529 4.7115 67.262 1.3167C67.3153 0.930105 67.7955 0.640157 68.3646 0.676401C68.9337 0.712644 69.3428 1.03884 69.3072 1.42543C68.8804 4.91688 67.7421 8.44458 66.5506 11.7307C65.1278 15.6812 63.7761 18.9673 61.802 22.1446C59.5078 25.8414 56.5733 28.9342 53.1053 31.3142C52.5362 31.7008 51.9493 32.0874 51.3624 32.4498C49.5483 33.6217 47.8232 34.7211 46.8095 36.1346C45.4756 37.9951 45.5289 40.1334 45.5823 42.3926C45.6001 43.045 45.6179 43.7336 45.6001 44.3981C45.4578 48.8319 43.5371 53.1207 41.6874 57.2766C41.2072 58.3518 40.7093 59.4753 40.2469 60.5627C37.6859 66.712 36.103 73.0546 35.5339 79.4213C35.5161 79.663 35.4983 79.9046 35.4806 80.1462C35.3383 81.8617 35.196 83.6376 34.5557 85.3532C34.2534 86.1868 33.8266 86.9962 33.4175 87.7694C33.044 88.4943 32.6706 89.1829 32.4038 89.8957C31.5145 92.179 31.4968 94.6315 31.479 96.9994L31.4256 104.586C31.4256 105.009 30.9632 105.323 30.4119 105.323Z" fill="black"/>
<path d="M36.3521 105.324C36.3343 105.324 36.3165 105.324 36.2809 105.324C35.7118 105.299 35.285 104.973 35.3206 104.587L35.9074 97.954C36.1209 95.5861 36.3343 93.1336 37.4369 90.7899C37.8993 89.7871 38.5218 88.8327 39.1265 87.9025C39.749 86.9481 40.3181 86.0541 40.7627 85.0997C41.5452 83.3962 41.8476 81.5357 42.1321 79.7477C42.1677 79.5061 42.2033 79.2524 42.2566 79.0108C43.3415 72.3661 45.4045 65.7336 47.4142 59.3185L51.2735 46.9474C51.9671 44.7003 52.6963 42.3928 53.9946 40.194C55.2929 38.0073 57.1425 35.9898 58.9387 34.0447C60.6283 32.1963 62.389 30.2996 63.6161 28.2941C64.6477 26.6148 65.3413 24.8027 66.0171 23.0388L66.1416 22.7005C68.9338 15.476 72.1528 8.22731 75.7276 1.15984C75.9054 0.797408 76.4923 0.604109 77.0259 0.724921C77.5594 0.845732 77.844 1.24441 77.6661 1.60684C74.1269 8.65015 70.9079 15.8626 68.1335 23.0509L68.009 23.3892C67.3154 25.1892 66.604 27.0497 65.5191 28.8257C64.2208 30.9399 62.4246 32.897 60.6994 34.7817C58.9565 36.6784 57.1603 38.6356 55.9153 40.7135C54.6882 42.7915 53.9768 45.0507 53.301 47.2253L49.4417 59.5964C47.4498 65.9752 45.4045 72.5715 44.3196 79.1437C44.2841 79.3853 44.2485 79.6269 44.1952 79.8806C43.9106 81.7411 43.6083 83.662 42.7546 85.4983C42.2922 86.5132 41.6519 87.4917 41.0473 88.4341C40.4426 89.3643 39.8735 90.2583 39.4466 91.1765C38.4329 93.3511 38.2195 95.719 38.0061 98.0023L37.4192 104.635C37.3302 105.034 36.8856 105.324 36.3521 105.324Z" fill="black"/>
<path d="M76.848 105.323C76.35 105.323 75.9054 105.082 75.8343 104.732C74.8739 100.551 74.3759 96.3351 73.8957 92.2638L72.2773 78.4671C71.6193 72.8735 70.6233 67.5578 65.7325 63.9576C64.7366 63.2328 63.8829 62.8462 63.0292 62.7495C60.2192 62.4354 58.2985 65.1778 57.6049 66.3739C51.1668 77.416 47.2364 89.0139 45.9025 100.866C45.8491 101.385 45.7958 101.905 45.7424 102.424C45.6713 103.173 45.5824 103.934 45.4934 104.683C45.4401 105.07 44.9421 105.348 44.3908 105.323C43.8217 105.287 43.4126 104.961 43.4482 104.574C43.5371 103.825 43.6083 103.076 43.6972 102.327C43.7505 101.808 43.8039 101.276 43.8572 100.757C45.1911 88.7723 49.1749 77.0294 55.7019 65.8544C57.5871 62.6166 60.3082 61.0219 63.3849 61.3723C65.1278 61.5656 66.4261 62.3992 67.262 63.0153C72.5975 66.9417 73.6645 72.5232 74.3404 78.3584L75.9588 92.155C76.439 96.2022 76.9192 100.382 77.8795 104.526C77.9685 104.913 77.5772 105.263 77.0259 105.323C76.9547 105.323 76.9014 105.323 76.848 105.323Z" fill="black"/>
<path d="M53.4077 105.324C53.3543 105.324 53.301 105.324 53.2476 105.311C52.6785 105.251 52.305 104.901 52.3939 104.514C52.9453 102.062 52.9808 99.44 53.0164 96.9029C53.0342 96.0814 53.0342 95.2357 53.0698 94.4021C53.3721 85.8487 55.9153 77.5006 60.6461 69.5633L60.9662 69.0317L61.7843 69.1405C64.5409 69.4908 67.9556 71.158 68.6492 77.1261L71.8149 104.562C71.8505 104.949 71.4414 105.287 70.8723 105.311C70.3032 105.348 69.8052 105.058 69.7697 104.671L66.604 77.2348C66.3016 74.6374 65.2879 71.4963 62.2111 70.6748C57.8005 78.2859 55.4173 86.2715 55.1328 94.4505C55.0972 95.272 55.0972 96.1177 55.0794 96.9271C55.0439 99.5125 55.0083 102.182 54.4392 104.732C54.3503 105.082 53.9056 105.324 53.4077 105.324Z" fill="black"/>
<path d="M59.6857 105.323C59.6323 105.323 59.579 105.323 59.5256 105.311C58.9565 105.251 58.583 104.901 58.6542 104.514C60.0592 98.1351 59.988 91.5146 59.8102 85.2687C59.7924 84.4592 60.1303 83.2995 61.1796 82.7316C61.7132 82.4296 62.4068 82.333 63.0826 82.4296C63.9718 82.5625 64.6654 83.0457 65.1278 83.8552C66.604 86.3681 66.0349 89.0742 65.4835 91.6838L65.3768 92.2153C64.5943 96.0209 64.1497 100.08 64.0608 104.635C64.0608 105.021 63.5983 105.323 63.0292 105.323H63.0114C62.4423 105.323 61.9977 104.997 61.9977 104.611C62.1044 99.9956 62.5313 95.8759 63.3316 92.022L63.4383 91.4905C63.954 89.0622 64.4698 86.5493 63.2071 84.3747C62.9225 83.8794 62.6735 83.8069 62.6024 83.7948C62.5313 83.7827 62.5135 83.7827 62.4601 83.8189C62.1578 83.9881 61.8377 84.6042 61.8554 85.2445C62.0511 91.5388 62.1222 98.2438 60.6816 104.731C60.6283 105.07 60.1837 105.323 59.6857 105.323Z" fill="black"/>
<path d="M77.9862 70.1915C77.6305 70.1915 77.2748 70.0586 77.097 69.8411C72.5618 64.3925 67.1908 59.258 61.1262 54.5947C59.4545 53.302 57.3736 51.7073 57.4981 49.6897C57.5871 48.4695 58.5119 47.3943 59.33 46.452L59.4011 46.3674C61.9977 43.3592 64.2386 40.1819 66.0348 36.92C68.1512 33.0902 69.7163 29.031 71.2458 25.1167C72.8998 20.8279 74.6249 16.4062 77.0436 12.2382C77.257 11.8757 77.8439 11.7066 78.3775 11.8516C78.911 11.9966 79.16 12.3952 78.9466 12.7577C76.5634 16.8532 74.8561 21.2386 73.2199 25.4791C71.6904 29.4297 70.1075 33.5252 67.9556 37.4153C66.1238 40.7618 63.8295 44.0116 61.1796 47.0802L61.1084 47.1648C60.3793 48.0105 59.6323 48.8803 59.5612 49.7622C59.4545 51.212 61.1618 52.5167 62.6735 53.6765C68.8448 58.4123 74.3048 63.6193 78.911 69.1525C79.1956 69.4907 79.0177 69.9136 78.5197 70.1069C78.3241 70.1552 78.1463 70.1915 77.9862 70.1915Z" fill="black"/>
<path d="M77.9862 59.7051C77.6839 59.7051 77.3815 59.6085 77.1681 59.4393C76.8124 59.1373 76.4567 58.8232 76.101 58.5212C73.6645 56.4311 71.1569 54.2565 69.7163 51.6953C66.8174 46.5004 68.9693 40.6773 70.8367 36.7509C72.5085 33.2353 74.6071 29.768 77.0614 26.4578C77.3104 26.1195 77.9329 25.9746 78.4486 26.1558C78.9466 26.3249 79.16 26.7478 78.8932 27.0981C76.4745 30.3479 74.4293 33.7427 72.7931 37.1859C71.0146 40.9189 68.9693 46.4279 71.6548 51.2C72.9887 53.5679 75.2829 55.5613 77.7372 57.6634C78.0929 57.9654 78.4486 58.2795 78.8043 58.5816C79.16 58.8836 79.0711 59.3185 78.6265 59.5601C78.4308 59.6568 78.1996 59.7051 77.9862 59.7051Z" fill="black"/>
<path d="M22.8889 32.015C22.0531 32.015 21.2172 31.858 20.488 31.4835C18.8518 30.6499 18.585 29.2243 18.4605 27.9437C17.6069 19.1365 16.0596 10.2327 13.8543 1.49806C13.7654 1.12354 14.1388 0.761107 14.6902 0.68862C15.2415 0.628215 15.775 0.881919 15.8817 1.25643C18.0871 10.0394 19.6343 18.9795 20.488 27.847C20.5769 28.8619 20.7548 29.8767 21.6974 30.3599C22.6933 30.8673 24.3117 30.5291 25.2543 29.925C26.2681 29.2605 26.8727 28.3303 27.4952 27.3517L27.6908 27.0376C30.0206 23.4133 33.2219 20.0668 36.2987 16.817C38.1127 14.9202 39.9801 12.9631 41.6341 10.9818C44.533 7.52655 46.4716 4.25256 47.3964 1.23227C47.5209 0.857756 48.0544 0.616133 48.6057 0.68862C49.1571 0.773188 49.5128 1.13562 49.406 1.51014C48.4279 4.66332 46.4182 8.08228 43.4126 11.6583C41.723 13.6759 39.8378 15.6572 38.006 17.566C34.9648 20.7675 31.8169 24.0656 29.5405 27.5813L29.3448 27.8954C28.669 28.9706 27.9576 30.0821 26.6237 30.9277C25.6989 31.5801 24.2939 32.015 22.8889 32.015Z" fill="black"/>
<path d="M26.3748 20.8642C26.197 20.8642 26.0369 20.8522 25.8946 20.8401C24.792 20.7072 23.4048 20.091 23.0668 17.9044L20.5948 1.44984C20.5414 1.06324 20.9505 0.724967 21.5196 0.688724C22.0887 0.65248 22.5867 0.930347 22.64 1.31694L25.0943 17.7594C25.1655 18.2426 25.4144 19.3662 26.2325 19.4628C27.0329 19.5595 27.8687 18.5688 28.1711 18.146C28.9536 17.0828 29.7361 16.0076 30.5187 14.9445L34.0934 10.0637C35.8897 7.6233 37.7393 5.08626 39.0198 2.46465C39.2154 2.04181 39.4111 1.61897 39.5711 1.20821C39.7134 0.833698 40.2825 0.616237 40.8338 0.712886C41.3852 0.809535 41.7053 1.19613 41.563 1.57065C41.3852 2.00557 41.1895 2.45257 40.9761 2.89957C39.6601 5.62991 37.7749 8.2032 35.943 10.6919L32.3683 15.5606C31.5858 16.6238 30.8032 17.699 30.0207 18.7621C28.7936 20.4414 27.4241 20.8642 26.3748 20.8642Z" fill="black"/>
<path d="M28.7579 8.81924C28.2955 8.81924 27.8687 8.72259 27.513 8.51721C27.1039 8.28767 26.8905 7.97356 26.766 7.79234C25.4677 5.79895 24.6852 3.66059 24.454 1.44974C24.4184 1.06314 24.8452 0.73695 25.3966 0.700707C25.9657 0.676544 26.4459 0.966492 26.4992 1.34101C26.7304 3.3948 27.4418 5.37611 28.6512 7.22453C28.6868 7.27285 28.7579 7.38158 28.8112 7.42991C28.9535 7.41783 29.3626 7.28493 29.8072 6.97082C30.7142 6.31844 31.7635 5.58149 32.1904 4.73581C32.5105 4.08343 32.5105 3.35856 32.4927 2.57328C32.4927 2.39207 32.4927 2.21085 32.4927 2.04171C32.4927 1.80009 32.5105 1.57055 32.5283 1.35309C32.5638 0.966492 33.044 0.664463 33.6131 0.700707C34.1823 0.724869 34.6091 1.05106 34.5735 1.43766C34.5557 1.63095 34.5557 1.83633 34.5379 2.0538C34.5379 2.22293 34.5379 2.39207 34.5379 2.57328C34.5557 3.43105 34.5557 4.31297 34.1111 5.19489C33.542 6.33052 32.2793 7.22453 31.2833 7.93731C30.4297 8.51721 29.5582 8.81924 28.7579 8.81924Z" fill="black"/>
</g>
<defs>
<clipPath id="clip0_3202_2">
<rect width="79" height="106" fill="white"/>
</clipPath>
</defs>
</svg>
