<svg width="97" height="106" viewBox="0 0 97 106" fill="none" xmlns="http://www.w3.org/2000/svg">
<g clip-path="url(#clip0_3206_118)">
<rect width="97" height="106" fill="white"/>
<rect width="97" height="106" fill="white"/>
<g clip-path="url(#clip1_3206_118)">
<path fill-rule="evenodd" clip-rule="evenodd" d="M55.9903 44.8778C56.2518 44.7908 56.6066 44.6168 56.9552 45.0518C57.3038 45.4868 56.9552 46.102 56.2518 45.928C55.5545 45.754 55.816 45.0518 55.9903 44.8778Z" fill="black"/>
<path fill-rule="evenodd" clip-rule="evenodd" d="M60.8212 47.7422C61.0577 47.6614 61.3752 47.5061 61.6927 47.9038C62.0102 48.3015 61.6927 48.8546 61.0577 48.6992C60.4227 48.5314 60.6593 47.8976 60.8212 47.7422Z" fill="black"/>
<path fill-rule="evenodd" clip-rule="evenodd" d="M63.2926 46.4252C63.579 46.332 63.9587 46.1393 64.3447 46.6178C64.7245 47.0964 64.3447 47.7613 63.579 47.5686C62.8133 47.376 63.0996 46.6116 63.2926 46.4252Z" fill="black"/>
<path fill-rule="evenodd" clip-rule="evenodd" d="M62.9378 42.4103C63.137 42.3419 63.4109 42.2114 63.6786 42.547C63.9463 42.8826 63.6786 43.3549 63.137 43.2181C62.6016 43.0876 62.8008 42.547 62.9378 42.4103Z" fill="black"/>
<path fill-rule="evenodd" clip-rule="evenodd" d="M58.1319 40.4093C58.4431 40.2229 58.8167 40.72 58.5054 40.9064C58.1941 41.155 57.8829 40.5336 58.1319 40.4093Z" fill="black"/>
<path fill-rule="evenodd" clip-rule="evenodd" d="M63.7782 39.6326C64.1393 39.4151 64.5688 39.993 64.2078 40.2043C63.8467 40.4902 63.4919 39.7755 63.7782 39.6326Z" fill="black"/>
<path fill-rule="evenodd" clip-rule="evenodd" d="M60.454 39.5396C60.7839 39.3407 61.1761 39.869 60.8524 40.0678C60.5224 40.3288 60.1925 39.6701 60.454 39.5396Z" fill="black"/>
<path fill-rule="evenodd" clip-rule="evenodd" d="M58.3123 42.392C58.7917 42.1062 59.3644 42.8705 58.8851 43.1564C58.4119 43.5355 57.9326 42.5847 58.3123 42.392Z" fill="black"/>
<path fill-rule="evenodd" clip-rule="evenodd" d="M62.4025 41.4537C62.0103 43.4112 61.0329 44.9772 59.8563 46.5432C56.5257 50.8435 52.9959 54.5659 50.0575 59.4504C48.8809 61.4079 48.0965 63.5581 47.7043 65.7083C47.2063 68.2064 47.1004 71.817 47.3495 75.123C47.3744 75.4959 47.4117 75.8687 47.4491 76.2292C47.5985 77.6895 47.8164 79.0567 48.0965 80.1877C48.1152 80.2499 48.1339 80.3182 48.1463 80.3866C48.8436 83.0774 49.3789 86.6569 49.4599 88.3969C49.4661 88.546 49.4723 88.6765 49.4723 88.7946C49.4785 88.863 49.4848 88.9251 49.491 88.9872C49.5034 89.1302 49.5159 89.2607 49.5221 89.3725C49.547 89.7019 49.547 89.8945 49.5283 89.9691C49.5159 90.0188 49.4972 90.0126 49.4723 89.9691C49.4287 89.8945 49.3665 89.6895 49.2856 89.3787C49.2544 89.2607 49.2233 89.1364 49.1922 88.9872C49.1486 88.8132 49.105 88.6144 49.0552 88.3969C48.663 86.6258 48.0841 83.6553 47.5424 80.7843C47.5238 80.66 47.4989 80.5357 47.474 80.4176C47.4304 80.2001 47.393 79.9889 47.3495 79.7776C47.1938 78.9635 47.0506 78.1743 46.9075 77.441C46.5588 75.5642 46.2725 74.0293 46.1355 73.3395C45.7433 70.599 46.5277 65.3168 47.5051 62.974C47.5175 62.9491 47.5238 62.9305 47.5362 62.9056C47.6732 62.5949 47.8164 62.2842 47.9595 61.9734C50.568 56.48 54.7826 51.3407 58.4805 46.5432C60.2423 44.1942 62.4025 41.261 62.0103 39.1108C62.7947 39.3035 62.6017 40.8633 62.4025 41.4537Z" fill="black"/>
<path fill-rule="evenodd" clip-rule="evenodd" d="M47.5363 62.9053C47.7666 62.8556 47.8973 62.7437 47.8973 62.5822C47.9222 62.3833 47.9409 62.1782 47.9596 61.9731C47.8164 62.2839 47.6732 62.5946 47.5363 62.9053Z" fill="black"/>
<path fill-rule="evenodd" clip-rule="evenodd" d="M47.3495 75.123C47.2623 75.3778 47.1876 75.6326 47.1191 75.8812L47.3121 76.2727C47.3557 76.2603 47.3993 76.2416 47.4491 76.2292C47.4117 75.8626 47.3806 75.4959 47.3495 75.123Z" fill="black"/>
<path fill-rule="evenodd" clip-rule="evenodd" d="M48.0965 80.1877C47.7853 79.4171 47.3806 78.4663 46.9137 77.4409C47.0507 78.1804 47.2001 78.9697 47.3557 79.7775C47.5362 79.8521 47.723 79.9267 47.9035 79.9888L47.474 80.4176C47.4927 80.5419 47.5176 80.66 47.5425 80.7842C47.8537 80.9147 48.1588 80.6786 48.1463 80.3803C48.1463 80.3182 48.1276 80.2498 48.0965 80.1877Z" fill="black"/>
<path fill-rule="evenodd" clip-rule="evenodd" d="M76.9574 35.4939C76.3785 34.6922 75.7497 33.9092 75.0898 33.1573C68.0115 25.0911 56.5444 19.9083 45.7806 18.9886C44.492 18.8767 43.222 18.827 41.9645 18.8456C35.9507 18.914 30.3603 20.4303 26.152 23.6555C17.7228 30.106 14 46.7356 14 57.4927C14 74.085 24.4275 85.8426 40.7007 88.7012C43.2282 89.1486 45.8927 89.3785 48.6879 89.3785C48.8871 89.3785 49.0863 89.3785 49.2855 89.3723C49.3602 89.3723 49.4412 89.3723 49.5159 89.3661C54.1663 89.2853 58.3808 88.5147 62.1223 87.0792C74.8221 82.2134 82 69.679 82 50.4456C82 44.8838 80.1012 39.8377 76.9574 35.4939ZM69.6613 81.362C67.4201 83.3195 64.8677 84.8793 62.0103 86.029C58.3124 87.5142 54.1164 88.3159 49.4536 88.3904C49.3229 88.3967 49.1859 88.3967 49.049 88.3967C48.9245 88.3967 48.8 88.3967 48.6817 88.3967C45.9736 88.3967 43.3901 88.1729 40.9435 87.7442C38.5965 87.334 36.3803 86.7312 34.301 85.9482C22.4105 81.4801 15.1704 71.1829 15.1704 57.4865C15.1704 46.9221 18.7002 30.684 26.9301 24.4261C30.1798 21.9466 34.3135 20.5235 38.8456 20.045C40.0595 19.9145 41.3046 19.8524 42.5683 19.8586C54.8884 19.9021 69.0263 26.1475 76.173 36.2955C76.8018 37.1904 77.3808 38.1225 77.8975 39.0733C79.7589 42.5161 80.8296 46.3317 80.8296 50.4456C80.8234 64.5708 76.9014 75.042 69.6613 81.362Z" fill="black"/>
<path fill-rule="evenodd" clip-rule="evenodd" d="M77.8912 39.0796C77.6235 37.8492 77.3122 36.6498 76.9574 35.4939C73.5334 24.3392 66.0754 17 53.1951 17C49.3353 17 45.5503 17.6463 41.9644 18.8457C40.9061 19.1999 39.8665 19.5976 38.8517 20.0512C26.3076 25.5572 16.9384 37.9983 16.9384 52.9935C16.9384 67.4419 23.7303 79.8644 34.3072 85.9545C36.3118 87.1103 38.4471 88.0363 40.7007 88.7074C43.4648 89.5277 46.3969 89.9689 49.4723 89.9689H49.5283C54.2472 89.9627 58.4617 88.9373 62.1285 87.0917C64.9797 85.6562 67.501 83.7173 69.6675 81.3683C75.9178 74.6071 79.2608 64.4404 79.2608 52.9997C79.2546 48.022 78.825 43.3302 77.8912 39.0796ZM62.0102 86.029C58.387 87.9306 54.1973 88.9871 49.4847 88.9871H49.466C49.3727 88.9871 49.2793 88.9871 49.1859 88.9871C46.3035 88.9622 43.5457 88.5334 40.9435 87.7504C27.2352 83.6303 17.922 69.6791 17.922 52.9935C17.922 37.1407 28.7666 24.3143 42.5683 19.8586C43.6204 19.5168 44.6974 19.2247 45.7806 18.9886C48.1961 18.4542 50.68 18.1745 53.1951 18.1745C64.5315 18.1745 71.4666 23.9974 75.0898 33.1573C75.4882 34.164 75.8493 35.2143 76.1668 36.3018C77.6173 41.2111 78.271 46.8786 78.271 52.9997C78.2772 67.8334 72.5311 80.5045 62.0102 86.029Z" fill="black"/>
<path d="M71.1616 57.5796C71.062 57.6604 70.1905 58.2135 68.9205 59.1207C68.7275 59.2637 68.5221 59.4066 68.3042 59.5682C67.4513 60.2083 66.4739 60.9726 65.4592 61.8364C64.4444 62.7002 63.3986 63.6697 62.3714 64.6764C62.3091 64.7385 62.2406 64.8007 62.1784 64.8628C62.1161 64.925 62.0539 64.9933 61.9854 65.0555C61.8609 65.1797 61.7302 65.3102 61.5994 65.4407C61.3504 65.6955 61.0952 65.9565 60.8399 66.2175C60.3419 66.7458 59.8376 67.2615 59.3521 67.7898C58.854 68.3056 58.3809 68.84 57.8829 69.3496C57.4035 69.8716 56.9055 70.3687 56.4137 70.8721C56.1149 71.1642 55.8223 71.4625 55.511 71.7421C55.2122 72.0342 54.8947 72.3076 54.5896 72.5873C54.2721 72.8607 53.9609 73.1403 53.6247 73.4013C53.4628 73.5318 53.2948 73.6685 53.1267 73.799C52.9524 73.9296 52.7843 74.0538 52.61 74.1843C51.9065 74.6877 51.1781 75.1786 50.3688 75.6323C50.1696 75.7504 49.9704 75.8622 49.7587 75.9741C49.5471 76.0859 49.3354 76.1978 49.1237 76.3034C48.9059 76.4153 48.688 76.5209 48.4576 76.6266C48.2335 76.7322 48.0032 76.8379 47.7728 76.9435C47.7355 76.9559 47.7043 76.9746 47.6732 76.987C47.611 77.0119 47.5549 77.0367 47.4927 77.0616C47.4304 77.0927 47.3682 77.1175 47.3059 77.1424C47.2748 77.1548 47.2437 77.1672 47.2125 77.1797C47.2125 77.1797 47.2001 77.1486 47.1876 77.0927C47.169 77.0367 47.1503 76.9622 47.1254 76.8627C47.1005 76.7757 47.0756 76.6639 47.0445 76.5396C46.9448 76.1108 46.8515 75.4769 46.8203 74.6628C46.8141 74.4578 46.8141 74.2465 46.8203 74.0228C46.8266 73.9109 46.8266 73.7928 46.8328 73.6748C46.839 73.5567 46.8515 73.4386 46.8577 73.3143C46.8826 73.072 46.9075 72.811 46.9449 72.55C46.9822 72.289 47.0382 72.0155 47.0943 71.7359C47.3308 70.6111 47.7542 69.3558 48.4452 68.0694C49.1362 66.783 50.1011 65.4656 51.3898 64.2662C52.0808 63.6137 52.8714 63.0109 53.7492 62.4579C54.627 61.911 55.5982 61.4325 56.644 61.041C59.6696 59.941 62.1099 59.4128 64.0398 59.0151C65.9759 58.6422 67.4202 58.4185 68.4909 58.2259L68.6279 58.201C68.852 58.1637 69.0575 58.114 69.2504 58.083C69.5804 58.0208 69.8605 57.9649 70.0971 57.9027C70.3337 57.8468 70.5267 57.8033 70.6823 57.7598C70.9749 57.6666 71.1243 57.5982 71.1616 57.5796ZM67.5634 58.9405L67.4264 58.9654L67.4389 59.0275C67.4389 59.0275 67.4077 59.0337 67.3517 59.04C67.2957 59.0462 67.2085 59.0586 67.0965 59.0835C66.8723 59.127 66.5424 59.1829 66.1315 59.2699C65.3098 59.4439 64.1394 59.7235 62.8009 60.171C61.4563 60.6122 59.9373 61.2274 58.4058 62.0166C56.8806 62.8059 55.3429 63.7691 53.9609 64.8317C53.1329 65.4594 52.3672 66.2175 51.6886 67.044C51.0038 67.8706 50.4186 68.7716 49.9206 69.6789C49.4226 70.5862 49.0366 71.5184 48.7253 72.4008C48.6506 72.6245 48.5821 72.842 48.5137 73.0595C48.4825 73.1652 48.4514 73.2708 48.414 73.3765C48.3891 73.4821 48.358 73.5878 48.3331 73.6934C48.2833 73.9047 48.2273 74.1036 48.1837 74.3024C48.1401 74.5013 48.1028 74.7001 48.0654 74.8866C48.8311 73.3827 49.8583 71.7048 51.1532 70.0456C51.7944 69.2129 52.5104 68.3926 53.2823 67.6033C54.0543 66.8079 54.8822 66.0435 55.7538 65.3227C56.6316 64.608 57.5467 63.9369 58.4867 63.3217C58.9536 63.0109 59.433 62.7251 59.9123 62.4392C60.1551 62.3025 60.3917 62.172 60.6345 62.0353C60.8711 61.8986 61.1201 61.7805 61.3566 61.6562C62.3216 61.1653 63.2803 60.7241 64.2265 60.3574C64.4569 60.258 64.6935 60.1772 64.9238 60.0902C65.1541 60.0032 65.3845 59.9162 65.6086 59.8416C65.8389 59.7608 66.063 59.6863 66.2809 59.6117C66.505 59.5433 66.7229 59.475 66.9408 59.4066L67.2521 59.1829L67.5634 58.9405ZM48.8187 74.5945C49.7463 73.6126 50.8233 72.5438 51.9999 71.4314C52.0746 71.363 52.1431 71.2885 52.2178 71.2201C52.2925 71.1517 52.3672 71.0834 52.4481 71.015C52.5975 70.8721 52.7531 70.7354 52.9026 70.5924C53.0582 70.4557 53.2138 70.3128 53.3757 70.1699C53.4566 70.1015 53.5313 70.0269 53.6122 69.9524C53.6932 69.884 53.7741 69.8094 53.855 69.7411C54.49 69.1631 55.1686 68.5914 55.8534 67.9948C57.2354 66.8203 58.7108 65.621 60.2983 64.3781C60.6905 64.0612 61.1014 63.7567 61.5123 63.4335C61.9294 63.1166 62.3527 62.7934 62.7698 62.4765C63.6289 61.8302 64.5129 61.1591 65.4405 60.4755C63.8343 61.0596 62.1161 61.8116 60.4353 62.7686C59.5949 63.2471 58.7544 63.7629 57.9514 64.3346C57.142 64.9063 56.3514 65.5091 55.6044 66.1554C54.8573 66.8017 54.1352 67.4728 53.4753 68.1813C52.8092 68.8835 52.1804 69.5981 51.6201 70.3252C51.5454 70.4184 51.4769 70.5054 51.4085 70.5924C51.34 70.6857 51.2715 70.7727 51.203 70.8659C51.0661 71.0461 50.9353 71.2263 50.8046 71.4065C50.6801 71.593 50.5494 71.7732 50.4311 71.9534C50.3688 72.0466 50.3066 72.1336 50.2443 72.2206C50.1883 72.3138 50.126 72.4008 50.07 72.494C49.9517 72.6743 49.8397 72.8545 49.7276 73.0285C49.6218 73.2087 49.5159 73.3827 49.4101 73.5567C49.3603 73.6437 49.3043 73.7307 49.2545 73.8177C49.2047 73.9047 49.1549 73.9917 49.1113 74.0787C49.0055 74.2589 48.9121 74.4267 48.8187 74.5945ZM47.3931 75.4894C47.4429 75.0978 47.53 74.6939 47.6234 74.2465C47.667 74.0228 47.7293 73.8053 47.7853 73.5691C47.8475 73.3392 47.9036 73.0968 47.9845 72.8607C48.2709 71.8975 48.6693 70.8783 49.186 69.8591C50.207 67.8146 51.7509 65.8012 53.606 64.3843C54.7141 63.5392 55.9094 62.7499 57.1296 62.0601C58.3435 61.3703 59.5824 60.7862 60.7528 60.3201C59.5886 60.6246 58.3 61.0099 56.8744 61.5257C56.4012 61.7059 55.9281 61.8923 55.4736 62.1223C55.2495 62.2341 55.0192 62.346 54.7951 62.4703C54.5772 62.5946 54.3593 62.7189 54.1414 62.8494C53.2885 63.3776 52.4792 63.9804 51.7633 64.6577C50.7299 65.6272 49.9081 66.6712 49.2731 67.7152C48.6382 68.7592 48.2024 69.8032 47.8973 70.7664C47.3059 72.724 47.281 74.377 47.3931 75.4894ZM65.4965 61.1031C63.8157 62.3522 62.278 63.5267 60.8275 64.664C60.6469 64.8069 60.4664 64.9498 60.2859 65.0865C60.1116 65.2295 59.931 65.3662 59.7567 65.5091C59.5762 65.6458 59.4081 65.7887 59.2338 65.9255C59.0657 66.0684 58.8852 66.1927 58.7171 66.3356C58.0385 66.8825 57.3848 67.4293 56.7436 67.9576C54.9134 69.4925 53.2387 70.9964 51.7571 72.4195C50.2692 73.8363 48.993 75.1849 47.9658 76.3159L47.9534 76.3345C49.4973 75.6136 50.898 74.7871 52.2053 73.8239C52.3672 73.7058 52.529 73.5815 52.6971 73.4573C52.859 73.333 53.0208 73.2025 53.1765 73.072C53.5064 72.8172 53.8115 72.5438 54.129 72.2703C54.4402 71.9907 54.7639 71.711 55.069 71.4065C55.2246 71.2574 55.3865 71.1082 55.5421 70.9529C55.6978 70.7975 55.8596 70.6422 56.0153 70.4868C57.5592 68.9332 59.0595 67.2616 60.6469 65.6272C62.2406 63.999 63.9153 62.4268 65.4965 61.1031Z" fill="black"/>
<path d="M24.3901 56.7657C24.4088 56.7533 24.4711 56.7098 24.5707 56.6476C24.6703 56.5855 24.8135 56.4923 25.0002 56.4053C25.3737 56.2126 25.9403 55.9889 26.7247 55.8646C26.8492 55.846 26.9675 55.8336 27.0982 55.8149C27.2289 55.8025 27.3659 55.7838 27.5028 55.7838C28.6234 55.7217 30.0552 55.9081 31.5929 56.4923C33.1306 57.0764 34.7367 58.0769 36.1935 59.3322C36.9219 59.9599 37.6191 60.6435 38.2728 61.3519C38.9264 62.0603 39.5365 62.7998 40.103 63.5269C40.6695 64.254 41.2049 64.9935 41.703 65.7206C42.201 66.4539 42.6617 67.1747 43.085 67.8832C43.5893 68.7345 44.0437 69.5673 44.4546 70.3938C44.8592 71.2203 45.2265 72.0344 45.5627 72.8857C45.9051 73.7309 46.2039 74.6133 46.5152 75.5393C46.8265 76.4714 47.1377 77.4657 47.4988 78.547C47.5113 78.5843 47.5237 78.6216 47.5362 78.6589C47.5611 78.7272 47.5797 78.7956 47.6046 78.8639C47.6295 78.9323 47.6544 79.0069 47.6793 79.0814C47.6918 79.1187 47.7042 79.1498 47.7167 79.1871C47.7167 79.1871 47.6793 79.1995 47.6171 79.2057C47.5548 79.2244 47.4677 79.243 47.3556 79.2617H47.3494C47.3494 79.2617 47.3494 79.2617 47.3432 79.2617C47.2373 79.2803 47.1128 79.3052 46.9696 79.3238C46.4778 79.3797 45.737 79.4232 44.797 79.2989C43.857 79.1747 42.7177 78.8764 41.4913 78.3047C40.2711 77.7329 38.97 76.8878 37.7561 75.7381C36.5421 74.6009 35.4215 73.1778 34.5126 71.5683C34.0208 70.6983 33.5788 69.7723 33.2053 68.8091C33.0185 68.3244 32.8442 67.8335 32.6824 67.3301C32.5205 66.8267 32.3773 66.3172 32.2466 65.8014C31.8668 64.3161 31.4809 63.0671 31.0326 62.0044C30.8085 61.4762 30.5782 60.9977 30.3292 60.5627C30.2669 60.4508 30.2047 60.3452 30.1424 60.2457C30.0801 60.1463 30.0179 60.0407 29.9556 59.9475C29.8934 59.8542 29.8311 59.761 29.7689 59.6678C29.7066 59.5746 29.6381 59.4876 29.5759 59.4006C29.5448 59.3571 29.5136 59.3136 29.4825 59.2701C29.4514 59.2266 29.414 59.1893 29.3829 59.1458C29.3144 59.065 29.2522 58.9842 29.1837 58.9097C29.0467 58.7605 28.9222 58.6114 28.7853 58.4809C28.7168 58.4125 28.6545 58.3504 28.5861 58.282C28.5176 58.2199 28.4491 58.1639 28.3868 58.1018C28.2561 57.9837 28.1254 57.8781 27.9946 57.7786C27.4779 57.3809 26.9924 57.1199 26.569 56.9521L26.457 56.9086C26.3698 56.8714 26.2764 56.8465 26.1955 56.8216C26.1146 56.7968 26.0336 56.7657 25.9527 56.7471C25.4173 56.6103 25.0314 56.6352 24.7823 56.6538C24.5395 56.7098 24.4213 56.7533 24.3901 56.7657ZM27.6647 56.8154L27.7768 56.8838L27.8141 56.8216C27.8141 56.8216 27.839 56.8341 27.8888 56.8651C27.9324 56.8962 28.0009 56.9459 28.0942 57.0019C28.1814 57.064 28.2935 57.1324 28.418 57.2318C28.4802 57.2753 28.5487 57.325 28.6172 57.3809C28.6857 57.4369 28.7604 57.499 28.8413 57.5611C29.1526 57.8097 29.5199 58.1329 29.9058 58.5306C30.2918 58.9283 30.6965 59.3944 31.1073 59.9475C31.5182 60.4943 31.9291 61.122 32.3275 61.7993C32.7259 62.4829 33.1181 63.2286 33.4979 64.0116C34.2636 65.5777 35.0169 67.3177 35.82 69.0018C36.2993 70.0085 36.8907 71.009 37.588 71.966C38.2852 72.923 39.0758 73.8241 39.935 74.632C40.7941 75.4336 41.703 76.1358 42.6181 76.6951C43.527 77.2544 44.4235 77.6832 45.2514 77.9753C44.4733 77.416 43.6889 76.7448 42.9231 75.9743C42.5372 75.589 42.1636 75.1788 41.7901 74.75C41.4166 74.3213 41.0555 73.8676 40.6944 73.3953C39.2688 71.5124 37.9926 69.3498 36.7787 67.1685C35.5585 64.9935 34.3819 62.7874 32.9999 60.9542C32.6575 60.4943 32.3026 60.0593 31.9353 59.6492C31.568 59.239 31.1883 58.8599 30.8085 58.5182C30.4225 58.1701 30.0303 57.8656 29.6319 57.586C29.2335 57.3064 28.8351 57.0702 28.4429 56.8589C28.169 56.8403 27.9137 56.8154 27.6647 56.8154ZM45.0647 77.0742C44.1682 75.8686 43.2904 74.4455 42.4313 72.8671C41.5722 71.2886 40.7194 69.5424 39.742 67.6781C39.2502 66.746 38.7272 65.7889 38.142 64.8195C37.5568 63.8501 36.9094 62.862 36.1561 61.905C35.4029 60.948 34.55 60.0158 33.5664 59.2142C33.0746 58.8102 32.5516 58.4436 32.01 58.1204C31.4622 57.7973 30.8894 57.5239 30.298 57.3126C31.0389 57.8594 31.7548 58.5306 32.4271 59.2887C32.7633 59.6678 33.087 60.0717 33.4045 60.4881C33.722 60.9045 34.0271 61.3457 34.3259 61.7931C35.5149 63.5891 36.5608 65.5777 37.6565 67.5103C38.7459 69.443 39.8789 71.3259 41.124 72.979C41.7465 73.8055 42.394 74.5698 43.0539 75.2596C43.72 75.9308 44.3923 76.546 45.0647 77.0742ZM45.8242 78.808C44.9713 78.5594 43.9877 78.1742 42.9729 77.6211C42.4625 77.3414 41.952 77.0245 41.4415 76.6641C40.931 76.3036 40.4268 75.9059 39.935 75.4771C38.9576 74.6133 38.0362 73.619 37.2518 72.5626C36.455 71.5061 35.7888 70.3938 35.2597 69.2814C34.6309 67.9578 34.0208 66.5968 33.4294 65.3291C32.838 64.0614 32.2466 62.8806 31.6303 61.8677C32.0661 62.9179 32.452 64.1421 32.8193 65.5777C33.0683 66.5409 33.3672 67.5103 33.7345 68.4673C34.1018 69.4243 34.5375 70.3627 35.0542 71.2762C35.7951 72.5812 36.6728 73.7557 37.6253 74.7438C38.0985 75.2348 38.5965 75.6884 39.1007 76.0923C39.605 76.4901 40.1093 76.8443 40.6135 77.1488C41.622 77.7578 42.6119 78.1679 43.5021 78.4227C44.3923 78.6775 45.183 78.7894 45.8242 78.808ZM30.8583 56.8776C31.4186 57.1013 31.9664 57.3747 32.4894 57.6916C33.0061 58.0086 33.5041 58.3628 33.971 58.7481C34.9048 59.5124 35.7328 60.3825 36.455 61.2773C37.1771 62.1722 37.8059 63.0981 38.3724 63.9992C38.9327 64.9003 39.4431 65.7952 39.9101 66.659C40.5824 67.908 41.18 69.1012 41.759 70.226C42.3317 71.357 42.8858 72.4072 43.4398 73.3891C43.72 73.88 44.0001 74.3523 44.2803 74.806C44.5604 75.2534 44.8468 75.6884 45.1269 76.0986C45.6934 76.9189 46.2724 77.6459 46.8327 78.2798L46.8576 78.2922C46.2537 76.4963 45.7308 74.8619 45.0709 73.2524C44.7472 72.4383 44.3799 71.6429 43.9752 70.8101C43.5644 69.9774 43.0975 69.1198 42.5558 68.2188C41.896 67.1188 41.1551 65.9878 40.3334 64.863C39.9225 64.2975 39.4867 63.7382 39.0323 63.1851C38.5778 62.6258 38.0985 62.0728 37.5942 61.5383C36.5919 60.4695 35.49 59.4752 34.3383 58.6735C33.7656 58.2696 33.1804 57.9154 32.5952 57.6171C32.0038 57.3064 31.4186 57.064 30.8583 56.8776Z" fill="black"/>
<path d="M33.1431 42.2425C33.1866 42.2301 33.3859 42.1617 33.7345 42.0685C34.0831 41.9815 34.5749 41.8883 35.2161 41.8634C35.4153 41.8572 35.6208 41.8634 35.8449 41.8696C35.9569 41.8696 36.0752 41.8821 36.1935 41.8945C36.3118 41.9069 36.4363 41.9256 36.5608 41.938C36.6915 41.9504 36.8098 41.9815 36.9406 42.0063C37.0713 42.0312 37.202 42.0623 37.339 42.0933C37.4697 42.1306 37.6067 42.1679 37.7499 42.2114C37.8183 42.2301 37.893 42.2549 37.9615 42.2736C38.03 42.2984 38.0985 42.3233 38.1732 42.3481C38.3164 42.3978 38.4596 42.4538 38.609 42.5159C38.7521 42.5781 38.8953 42.6464 39.0447 42.7148C39.6299 42.9944 40.2338 43.3424 40.8128 43.7401C41.3979 44.1379 41.9707 44.5915 42.5185 45.0514C42.6555 45.1694 42.7924 45.2751 42.9294 45.3994C43.0726 45.5361 43.222 45.679 43.3652 45.822C43.5084 45.9649 43.6453 46.114 43.7885 46.2632C43.9255 46.4123 44.0562 46.5677 44.1931 46.7293C44.7223 47.3569 45.2017 48.0343 45.625 48.7303C46.4716 50.1223 47.1066 51.5827 47.5486 52.9747C48.0778 54.6463 48.3455 56.1937 48.4264 57.7162C48.5073 59.245 48.3891 60.7613 48.2334 62.5696C48.2334 62.6007 48.2272 62.6318 48.2272 62.6691C48.221 62.725 48.2147 62.7809 48.2085 62.8431C48.2085 62.9052 48.2023 62.9611 48.1898 63.0233C48.1898 63.0544 48.1836 63.0792 48.1836 63.1103C48.1836 63.1103 48.1525 63.1041 48.1027 63.0916C48.0529 63.0854 47.9844 63.0668 47.8973 63.0481C47.8163 63.0295 47.7167 63.0046 47.6109 62.9736C47.4179 62.9176 47.1938 62.8369 46.9261 62.7312C46.7891 62.6753 46.6522 62.6131 46.5028 62.5386C46.3534 62.464 46.1915 62.3832 46.0359 62.29C45.3884 61.9233 44.6414 61.3827 43.913 60.6432C43.1784 59.9099 42.4563 58.9777 41.8337 57.9089C41.5224 57.3744 41.2299 56.8027 40.9684 56.2061C40.7069 55.6096 40.4766 54.9943 40.2711 54.3605C40.0533 53.6769 39.8603 52.9747 39.6984 52.26C39.5365 51.5454 39.3996 50.8121 39.2689 50.0601C39.1755 49.5133 39.0572 49.0099 38.9202 48.5438C38.8829 48.4258 38.8455 48.3139 38.8144 48.2021C38.7957 48.1461 38.7833 48.0902 38.7584 48.0281C38.7335 47.9659 38.7086 47.9038 38.6837 47.8416C38.5841 47.5868 38.4907 47.3569 38.3973 47.127C38.0238 46.2197 37.6627 45.4926 37.2767 44.9022C36.897 44.3119 36.4986 43.8582 36.1188 43.504C36.0192 43.417 35.9258 43.3362 35.8324 43.2554C35.7391 43.1809 35.6395 43.1125 35.5523 43.0504C35.3718 42.9136 35.1912 42.8204 35.0231 42.7272L34.936 42.6775C34.7928 42.6029 34.6558 42.5532 34.5313 42.4973C34.4753 42.4724 34.4255 42.4538 34.3757 42.4351C34.3197 42.4165 34.2699 42.4041 34.2201 42.3916C34.1205 42.3606 34.0333 42.3419 33.9461 42.3171C33.7843 42.2736 33.6349 42.2611 33.5228 42.2487C33.2863 42.2238 33.168 42.2363 33.1431 42.2425ZM35.9009 42.6961L35.9881 42.7583L36.0192 42.7148C36.0192 42.7148 36.0939 42.7645 36.2246 42.8826C36.2931 42.9385 36.374 43.0069 36.4674 43.0876C36.5608 43.1684 36.6666 43.2679 36.7787 43.3797C36.897 43.4854 37.0153 43.6159 37.1522 43.7588C37.2892 43.8955 37.4199 44.0571 37.5631 44.2249C37.8432 44.5729 38.1545 44.9706 38.4596 45.4367C38.7708 45.9027 39.0883 46.4247 39.4183 46.9965C39.4992 47.1394 39.5864 47.2885 39.6735 47.4315C39.7482 47.5682 39.8229 47.7111 39.9038 47.8478C40.0533 48.1337 40.1964 48.4258 40.3334 48.7241C40.8812 49.9296 41.3108 51.2844 41.6905 52.6329C41.9146 53.4408 42.201 54.2673 42.5372 55.1C42.8796 55.9327 43.278 56.7654 43.72 57.5547C44.1682 58.3439 44.66 59.0896 45.1768 59.7483C45.6935 60.407 46.2351 60.9788 46.7456 61.4448C46.3471 60.8048 45.9612 60.0839 45.6001 59.3009C45.239 58.5179 44.9028 57.6852 44.5853 56.8089C43.9441 55.0627 43.3714 53.1735 42.6617 51.3465C42.3006 50.433 41.9146 49.5381 41.4664 48.6992C41.4104 48.5936 41.3544 48.4879 41.2983 48.3823C41.2361 48.2766 41.1801 48.1772 41.1178 48.0778C40.9995 47.8727 40.875 47.6738 40.7505 47.475C40.6198 47.2823 40.4953 47.0897 40.3583 46.897C40.2213 46.7044 40.0844 46.5117 39.9474 46.3253C39.3996 45.5734 38.858 44.8712 38.279 44.2746C37.7063 43.678 37.1024 43.1809 36.4986 42.8018C36.2993 42.7521 36.1064 42.7148 35.9009 42.6961ZM46.8887 60.724C46.5837 59.5619 46.3222 58.2569 46.0421 56.8214C45.8989 56.1005 45.7495 55.3548 45.5752 54.5718C45.4009 53.7888 45.1954 52.9747 44.9402 52.142C44.6787 51.3092 44.3675 50.4516 43.969 49.6003C43.5706 48.7489 43.0788 47.8975 42.4874 47.0959C42.3318 46.897 42.1823 46.6982 42.0143 46.5117C41.8462 46.3191 41.6781 46.1327 41.51 45.9649C41.1738 45.6169 40.819 45.2751 40.4455 44.9457C39.6984 44.287 38.858 43.6904 37.9491 43.2741C39.0572 44.2435 40.047 45.5734 41.012 46.984C41.9707 48.4009 42.699 50.0477 43.3154 51.7007C43.9317 53.36 44.4484 55.0316 45.0149 56.579C45.5876 58.1264 46.2102 59.5495 46.8887 60.724ZM46.9261 62.2278C46.3783 61.7866 45.7744 61.2149 45.1892 60.5251C44.604 59.8415 44.0251 59.0399 43.5146 58.1823C43.0041 57.3247 42.5434 56.405 42.1574 55.4853C41.7715 54.5718 41.454 53.6583 41.2112 52.7758C41.068 52.2476 40.9124 51.7256 40.7443 51.216C40.5762 50.7002 40.4019 50.1969 40.2089 49.7184C40.0159 49.2336 39.8167 48.7676 39.5926 48.3326C39.5365 48.2207 39.4867 48.1151 39.4245 48.0094C39.3685 47.9038 39.3062 47.7981 39.2502 47.6925C39.1194 47.4625 38.9887 47.2388 38.858 47.0213C38.9514 47.2388 39.0447 47.475 39.1381 47.7173C39.163 47.7795 39.1817 47.8354 39.2004 47.8913C39.2191 47.9473 39.2377 48.0032 39.2564 48.0591C39.2938 48.171 39.3311 48.2828 39.3622 48.4009C39.5054 48.8608 39.6113 49.3641 39.7109 49.8986C39.9661 51.3279 40.2525 52.7634 40.7194 54.2113C41.0555 55.2491 41.4664 56.2434 41.952 57.1507C42.4376 58.058 42.9854 58.8721 43.5644 59.5681C44.1433 60.2641 44.7534 60.8296 45.3324 61.2646C45.9176 61.7058 46.4592 62.0166 46.9261 62.2278ZM38.4284 42.9696C39.2875 43.3921 40.0782 43.9701 40.7879 44.5915C40.9622 44.7469 41.1365 44.9022 41.3046 45.0638C41.4664 45.2254 41.6345 45.387 41.7901 45.5423C41.9458 45.7039 42.1014 45.853 42.257 46.0457L42.4936 46.3191C42.5683 46.4123 42.643 46.5055 42.7177 46.5987C43.3091 47.3445 43.7947 48.1461 44.1994 48.9478C44.604 49.7494 44.9277 50.5573 45.1954 51.3403C45.5814 52.4713 45.8553 53.565 46.0857 54.5904C46.3098 55.6158 46.4965 56.5852 46.6708 57.4925C46.8452 58.3998 47.0195 59.245 47.2062 60.0218C47.393 60.7985 47.5984 61.5132 47.8101 62.1533L47.8225 62.1719C47.9408 60.6618 48.0218 59.2885 47.9408 57.8405C47.8537 56.3926 47.6171 54.8701 47.063 53.1238C46.7207 52.0612 46.2787 50.9674 45.7059 49.8924C45.4195 49.3579 45.1083 48.8297 44.7597 48.3139C44.5916 48.0591 44.4048 47.8043 44.218 47.562C44.0251 47.3196 43.8383 47.0773 43.6266 46.8411C43.4274 46.605 43.2158 46.3812 43.0041 46.1637C42.8983 46.0519 42.7862 45.9525 42.6741 45.8468C42.5621 45.7412 42.45 45.6355 42.3504 45.5547C41.9333 45.2067 41.5038 44.8587 41.0742 44.5294C40.2089 43.8831 39.3 43.33 38.4284 42.9696Z" fill="black"/>
<path d="M62.0165 54.9696C61.9667 54.9882 61.5496 55.0939 60.927 55.2927C60.8337 55.3238 60.734 55.3549 60.6282 55.3921C60.2049 55.5351 59.7193 55.7091 59.2026 55.9204C58.6859 56.1317 58.1443 56.374 57.6089 56.6412C57.0673 56.9022 56.5319 57.1943 56.0027 57.4802C55.7351 57.6169 55.4798 57.766 55.2121 57.9027C54.9507 58.0457 54.6892 58.1762 54.4277 58.3129C54.1165 58.4683 53.799 58.6174 53.4752 58.7541C53.1515 58.8846 52.8216 59.0089 52.4792 59.1208C51.7882 59.332 51.0473 59.4874 50.1945 59.562C50.182 59.562 50.1633 59.562 50.1509 59.5682C50.126 59.5682 50.0948 59.5744 50.0699 59.5744C50.045 59.5744 50.0139 59.5806 49.9828 59.5806C49.9703 59.5806 49.9579 59.5806 49.9392 59.5806C49.9392 59.5806 49.9392 59.5682 49.9392 59.5433C49.9392 59.5185 49.9392 59.4874 49.9454 59.4439C49.9454 59.4066 49.9517 59.3569 49.9579 59.3072C50.0015 58.9468 50.1322 58.2445 50.624 57.418C50.8668 57.0079 51.203 56.5667 51.645 56.1503C52.087 55.7339 52.6473 55.3424 53.3134 55.0379C54.0293 54.7086 54.8822 54.4849 55.8098 54.46C57.1482 54.4227 58.1816 54.5346 58.9972 54.6278C59.8127 54.7334 60.4103 54.8329 60.8586 54.895L60.9146 54.9012C61.008 54.9136 61.0951 54.9199 61.176 54.9385C61.313 54.9571 61.4313 54.9696 61.5309 54.9758C61.6305 54.982 61.7114 54.9944 61.7799 54.9944C61.9293 54.982 61.9978 54.9758 62.0165 54.9696ZM60.4165 55.0441L60.3605 55.0379L60.3543 55.0628C60.3543 55.0628 60.3045 55.0504 60.2111 55.0379C60.1177 55.0255 59.9808 55.0069 59.8065 54.9882C59.4578 54.9509 58.9598 54.9074 58.3684 54.9074C57.777 54.9074 57.0984 54.9509 56.3887 55.0628C55.679 55.1746 54.9507 55.3549 54.2596 55.591C53.8488 55.7339 53.4441 55.9266 53.0706 56.1627C52.6908 56.3989 52.3422 56.6785 52.0247 56.9706C51.7072 57.2627 51.4271 57.5796 51.1905 57.8841C50.954 58.1948 50.7547 58.4931 50.5929 58.779C51.0971 58.288 51.7259 57.766 52.4605 57.2813C53.1889 56.7966 54.0293 56.3678 54.9071 56.026C55.7911 55.6904 56.7124 55.4481 57.6027 55.3114C58.4929 55.1746 59.352 55.1311 60.1115 55.1498C60.2111 55.1063 60.3107 55.0752 60.4165 55.0441ZM50.929 58.7603C51.4271 58.4993 51.9936 58.2197 52.6099 57.9338C52.7593 57.8592 52.9212 57.7971 53.0768 57.7225C53.2387 57.6542 53.4005 57.5796 53.5624 57.5112C53.8923 57.3683 54.2347 57.2316 54.5834 57.0887C55.9903 56.5232 57.5404 55.9763 59.3707 55.3735C58.661 55.3984 57.8828 55.4667 57.0922 55.6283C56.3016 55.7837 55.4985 56.0198 54.7328 56.3305C53.967 56.6412 53.2449 57.0265 52.6037 57.4491C51.9625 57.8655 51.4022 58.3253 50.929 58.7603ZM50.2443 58.9219C50.5368 58.344 51.0224 57.6107 51.7072 56.9395C52.3796 56.2684 53.2636 55.678 54.1787 55.3673C54.7265 55.1809 55.3055 55.0255 55.8782 54.9136C56.451 54.8018 57.0113 54.7334 57.5404 54.7024C57.0424 54.6713 56.4821 54.6526 55.8471 54.6713C55.0005 54.6961 54.16 54.8888 53.4192 55.2368C52.8838 55.4791 52.4169 55.7837 52.0309 56.113C51.6387 56.4424 51.3337 56.7904 51.0847 57.1322C50.5804 57.8157 50.3501 58.4683 50.2443 58.9219ZM59.3147 55.6283C57.6649 56.1752 56.2455 56.6847 54.9507 57.1943C54.0231 57.561 53.164 57.9338 52.3858 58.2943C51.6076 58.6547 50.9228 59.0151 50.3688 59.3258L50.3625 59.332C51.0722 59.2575 51.7321 59.1145 52.3796 58.9095C52.7033 58.8038 53.0208 58.6858 53.3507 58.5553C53.6744 58.4185 53.9982 58.2694 54.3343 58.1016C55.1561 57.6915 55.9654 57.2316 56.812 56.7904C57.6463 56.3492 58.5178 55.9452 59.3147 55.6283Z" fill="black"/>
</g>
</g>
<defs>
<clipPath id="clip0_3206_118">
<rect width="97" height="106" fill="white"/>
</clipPath>
<clipPath id="clip1_3206_118">
<rect width="68" height="73" fill="white" transform="translate(14 17)"/>
</clipPath>
</defs>
</svg>
