<svg width="97" height="106" viewBox="0 0 97 106" fill="none" xmlns="http://www.w3.org/2000/svg">
<g clip-path="url(#clip0_3206_117)">
<rect width="97" height="106" fill="white"/>
<rect width="97" height="106" fill="white"/>
<g clip-path="url(#clip1_3206_117)">
<path d="M74.3226 64.8387C66.5988 64.8387 63.2222 56.4897 59.6505 47.6512C55.6619 37.7866 51.5415 27.5887 41.3064 27.5887C36.4104 27.5887 32.4852 31.2033 28.3331 35.0314C24.8035 38.2814 21.1526 41.646 16.5574 43.1512C15.8874 43.3647 15.1698 43.0106 14.9483 42.3543C14.7267 41.6929 15.0907 40.9845 15.7555 40.7658C19.8231 39.4377 23.2683 36.2658 26.5973 33.1981C30.9288 29.2085 35.408 25.0835 41.3064 25.0835C53.2667 25.0835 57.9147 36.5835 62.0193 46.7293C65.4011 55.1043 68.3239 62.3335 74.3279 62.3335C80.3529 62.3335 86.6944 55.0054 86.7577 54.9272C87.2115 54.4012 88.0081 54.3283 88.5515 54.7762C89.0897 55.2241 89.1582 56.0158 88.7045 56.547C88.4091 56.8856 81.5188 64.8387 74.3226 64.8387Z" fill="black"/>
<path d="M16.1565 91C15.7238 91 15.3071 90.7865 15.0644 90.3906C14.7003 89.7969 14.8955 89.026 15.497 88.6667C23.6482 83.8073 28.5441 72.4635 33.2766 61.4896C39.3649 47.375 45.659 32.7812 59.2179 32.7812C75.1826 32.7812 88.2719 54.1771 88.8206 55.0885C89.1794 55.6875 88.9842 56.4583 88.3775 56.8125C87.776 57.1667 86.9899 56.974 86.6312 56.375C86.5045 56.1615 73.7317 35.2969 59.2179 35.2969C47.342 35.2969 41.6493 48.5 35.619 62.474C30.7283 73.8125 25.6688 85.5365 16.8159 90.8177C16.6102 90.9427 16.3833 91 16.1565 91Z" fill="black"/>
<path d="M63.7287 70.9688C63.3805 70.9688 63.0323 70.9583 62.6841 70.9375C56.791 70.5833 51.1353 66.9896 45.8805 60.2552C42.7256 56.2135 39.7606 51.5052 36.6267 46.5156C29.0506 34.4844 21.2213 22.0417 11.1708 20.6458C10.5535 20.5625 9.91513 20.5156 9.27675 20.5156C8.56979 20.5156 8 19.9531 8 19.2552C8 18.5625 8.56979 18 9.27148 18C10.0312 18 10.7856 18.0521 11.5243 18.1562C22.7565 19.7188 30.9077 32.6667 38.7845 45.1927C41.8867 50.125 44.8201 54.7813 47.8959 58.724C52.6811 64.8594 57.709 68.125 62.8371 68.4323C68.688 68.7865 75.1193 65.651 82.5213 58.8542C83.2599 58.1771 83.9352 57.5312 84.5577 56.9375C85.4494 56.0833 86.2249 55.349 86.9002 54.7813C87.4383 54.3333 88.2403 54.3958 88.694 54.9219C89.1477 55.4531 89.0844 56.2448 88.5516 56.6927C87.9396 57.2083 87.1904 57.9219 86.3304 58.7448C85.7026 59.3438 85.0115 60.0052 84.2623 60.6927C76.7389 67.599 70.0122 70.9688 63.7287 70.9688Z" fill="black"/>
<path d="M34.9016 83.005C26.265 83.005 21.5695 77.6613 17.4227 72.9478C16.6841 72.104 15.956 71.2811 15.2227 70.505C14.7426 69.9946 14.7689 69.203 15.286 68.729C15.803 68.255 16.6049 68.2811 17.085 68.7915C17.8395 69.5884 18.5834 70.4373 19.3431 71.3019C23.3158 75.8228 27.4204 80.4946 34.8963 80.4946C43.0686 80.4946 47.5794 70.755 51.9372 61.3332C56.4639 51.5519 61.1436 41.4321 70.3077 41.4321C78.8335 41.4321 88.3564 54.4478 88.7573 55.005C89.1689 55.5675 89.037 56.354 88.4619 56.7603C87.8868 57.1665 87.0955 57.0363 86.6839 56.4686C84.1568 52.9842 76.2958 43.9478 70.3025 43.9478C62.7791 43.9478 58.6323 52.9009 54.2481 62.38C49.5631 72.5155 44.7093 83.005 34.9016 83.005Z" fill="black"/>
</g>
</g>
<defs>
<clipPath id="clip0_3206_117">
<rect width="97" height="106" fill="white"/>
</clipPath>
<clipPath id="clip1_3206_117">
<rect width="81" height="73" fill="white" transform="translate(8 18)"/>
</clipPath>
</defs>
</svg>
