<svg width="97" height="106" viewBox="0 0 97 106" fill="none" xmlns="http://www.w3.org/2000/svg">
<g clip-path="url(#clip0_3206_116)">
<rect width="97" height="106" fill="white"/>
<rect width="97" height="106" fill="white"/>
<g clip-path="url(#clip1_3206_116)">
<path d="M25.9838 40.9552C27.1209 39.8074 28.6054 39.0085 30.2606 38.7402C29.9907 40.3937 29.1918 41.8782 28.0439 43.0167C26.913 44.1367 25.4424 44.92 23.7997 45.1992C23.3653 45.2737 22.9186 45.3125 22.4625 45.3125C22.2764 45.3125 21.9103 45.314 21.4806 45.3187L20.3963 45.3295C18.4247 45.3481 17.5684 45.542 17.5156 45.4505C17.4427 45.3264 18.0198 44.8626 18.8668 43.4728C19.2344 42.8678 19.6625 42.1636 20.1388 41.3461C20.4925 40.7412 20.9144 40.2014 21.3922 39.7298C21.8886 39.2412 22.4424 38.8255 23.038 38.4889L24.7832 37.4992L23.038 36.5111C22.4424 36.1745 21.8886 35.7588 21.3922 35.2702C20.9144 34.7986 20.4925 34.2588 20.1388 33.6539C19.6625 32.8349 19.2344 32.1322 18.8668 31.5272C18.0198 30.1374 17.4427 29.6736 17.5156 29.5495C17.5684 29.458 18.4247 29.6503 20.3963 29.6705L20.5623 29.672C20.5188 29.2749 20.4956 28.8716 20.4956 28.4637L20.4971 27.4011L20.4133 27.3996C17.556 27.3717 16.1599 27.3577 15.5471 28.4094C14.9406 29.4502 15.6123 30.5546 16.9246 32.7123L17.2504 33.249L13 37.4992L17.2504 41.751L16.9246 42.2877C15.6123 44.4454 14.9406 45.5482 15.5471 46.5891C16.1599 47.6423 17.556 47.6283 20.4133 47.6004C20.6646 47.5973 20.9361 47.5942 21.4061 47.5927C21.6807 47.5927 22.0204 47.5911 22.4625 47.5911C22.8751 47.5911 23.2816 47.5663 23.6802 47.5182C25.9916 47.2421 28.0733 46.1873 29.6463 44.6284C30.3862 43.8947 31.0145 43.0509 31.5 42.1248C31.9871 43.0509 32.6138 43.8947 33.3537 44.6284C34.7173 45.9795 36.4624 46.952 38.4092 47.3678L38.3999 46.5363C38.3999 45.9965 38.3409 45.4722 38.2261 44.9696C36.9774 44.5896 35.8574 43.9102 34.9561 43.0167C33.8082 41.8782 33.0093 40.3937 32.7394 38.7402C34.3946 39.0085 35.8791 39.8074 37.0162 40.9552C38.1362 42.086 38.9195 43.5581 39.2003 45.1992C39.2732 45.6335 39.312 46.0803 39.312 46.5363C39.312 46.7225 39.3151 47.0885 39.3198 47.5182L39.3291 48.604C39.3492 50.5756 39.5416 51.4303 39.4501 51.4846C39.3275 51.5559 38.8622 50.9789 37.4722 50.1335C36.8688 49.7659 36.1646 49.3377 35.3471 48.86C34.7405 48.5079 34.2007 48.0844 33.7307 47.6066C33.2405 47.1118 32.8263 46.5565 32.4881 45.9624L31.5 44.2158L30.5119 45.9624C30.1737 46.5565 29.7595 47.1118 29.2693 47.6082C28.7993 48.0844 28.2595 48.5079 27.6529 48.86C26.8354 49.3377 26.1312 49.7659 25.5278 50.1335C24.1378 50.9789 23.6725 51.5559 23.5499 51.4846C23.4584 51.4303 23.6508 50.5756 23.6709 48.604L23.6725 48.4365C23.2738 48.4815 22.8705 48.5032 22.4625 48.5032H21.3999V48.5854C21.3705 51.4427 21.3565 52.8387 22.4098 53.453C23.4507 54.0595 24.5551 53.3878 26.7113 52.074L27.2481 51.7482L31.5 56L35.7519 51.7482L36.2887 52.074C38.4449 53.3878 39.5493 54.0595 40.5902 53.453C41.6435 52.8387 41.6295 51.4427 41.6001 48.5854C41.5985 48.3357 41.5954 48.0627 41.5939 47.5927C41.5923 47.3197 41.5923 46.9784 41.5923 46.5363C41.5923 46.1253 41.5675 45.7189 41.5194 45.3187C41.2417 43.0074 40.1869 40.9273 38.6279 39.3529C37.8957 38.613 37.0519 37.9863 36.1242 37.4992C37.0519 37.0137 37.8957 36.387 38.6279 35.6471C39.9806 34.2821 40.9517 32.537 41.3674 30.5919L40.5375 30.5996C39.9977 30.5996 39.4718 30.6601 38.9692 30.7734C38.5891 32.0236 37.9097 33.142 37.0162 34.0432C35.8791 35.1926 34.3946 35.9899 32.7394 36.2598C33.0093 34.6063 33.8082 33.1218 34.9561 31.9833C36.087 30.8633 37.5576 30.08 39.2003 29.8008C39.6347 29.7263 40.0814 29.6875 40.5375 29.6875C40.7236 29.6875 41.0897 29.6844 41.5194 29.6813L42.6037 29.6705C44.5753 29.6503 45.4316 29.458 45.4844 29.5495C45.5573 29.6736 44.9802 30.1374 44.1332 31.5272C43.7656 32.1322 43.3375 32.8349 42.8612 33.6539C42.5075 34.2588 42.0856 34.7986 41.6078 35.2702C41.1114 35.7588 40.5576 36.1745 39.962 36.5111L38.2168 37.4992L39.962 38.4889C40.5576 38.8255 41.1114 39.2412 41.6078 39.7298C42.0856 40.2014 42.5075 40.7412 42.8612 41.3461C43.3375 42.1636 43.7656 42.8678 44.1332 43.4728C44.9802 44.8626 45.5573 45.3264 45.4844 45.4505C45.4316 45.542 44.5753 45.3481 42.6037 45.3295L42.4377 45.328C42.4812 45.7251 42.5044 46.1284 42.5044 46.5363L42.5029 47.5989L42.5867 47.6004C45.444 47.6283 46.8401 47.6423 47.4529 46.5891C48.0594 45.5482 47.3877 44.4454 46.0754 42.2877L45.7496 41.751L50 37.4992L45.7496 33.249L46.0754 32.7123C47.3877 30.5546 48.0594 29.4518 47.4529 28.4094C46.8401 27.3577 45.444 27.3717 42.5867 27.3996C42.3354 27.4027 42.0639 27.4042 41.5939 27.4073C41.3193 27.4073 40.9796 27.4089 40.5375 27.4089C40.1249 27.4089 39.7184 27.4321 39.3198 27.4802C37.0084 27.7579 34.9267 28.8127 33.3537 30.3716C32.6138 31.1038 31.9871 31.9491 31.5 32.8752C31.0145 31.9491 30.3862 31.1038 29.6463 30.3716C28.2827 29.0205 26.5376 28.048 24.5908 27.6322L24.6001 28.4637C24.6001 29.0035 24.6591 29.5278 24.7739 30.0304C26.0226 30.4104 27.1426 31.0898 28.0439 31.9833C29.1918 33.1218 29.9907 34.6063 30.2606 36.2598C28.6054 35.9899 27.1209 35.1926 25.9838 34.0432C24.8638 32.914 24.0805 31.4419 23.7997 29.8008C23.7268 29.3649 23.688 28.9182 23.688 28.4637C23.688 28.2775 23.6849 27.9099 23.6802 27.4802L23.6709 26.396C23.6508 24.4244 23.4584 23.5682 23.5499 23.5154C23.6725 23.4425 24.1378 24.0196 25.5278 24.8665C26.1312 25.2341 26.8354 25.6623 27.6529 26.1385C28.2579 26.4921 28.7993 26.9156 29.2693 27.3918C29.7595 27.8882 30.1737 28.4435 30.5119 29.0376L31.5 30.7827L32.4881 29.0376C32.8263 28.4435 33.2405 27.8882 33.7307 27.3918C34.2007 26.9156 34.7405 26.4921 35.3471 26.1385C36.1646 25.6623 36.8688 25.2341 37.4722 24.8665C38.8622 24.0196 39.3275 23.4425 39.4501 23.5154C39.5416 23.5682 39.3492 24.4244 39.3291 26.396L39.3275 26.5619C39.7262 26.5185 40.1295 26.4968 40.5375 26.4968H41.6001V26.4146C41.6295 23.5558 41.6435 22.1613 40.5902 21.547C39.5493 20.9405 38.4449 21.6122 36.2887 22.9245L35.7519 23.2518L31.5 19L27.2481 23.2518L26.7113 22.9245C24.5551 21.6122 23.4507 20.9405 22.4098 21.547C21.3565 22.1613 21.3705 23.5558 21.3999 26.4146C21.4015 26.6643 21.4046 26.9373 21.4061 27.4073C21.4077 27.6803 21.4077 28.02 21.4077 28.4637C21.4077 28.8747 21.4325 29.2811 21.4806 29.6813C21.7583 31.9926 22.8131 34.0727 24.3721 35.6471C25.1043 36.387 25.9481 37.0137 26.8758 37.4992C25.9481 37.9863 25.1043 38.613 24.3721 39.3529C23.0194 40.7179 22.0483 42.463 21.6326 44.4081L22.4625 44.4004C23.0023 44.4004 23.5282 44.3399 24.0308 44.2266C24.4109 42.9764 25.0903 41.858 25.9838 40.9552ZM42.5029 26.4968H43.0877C43.1823 26.4937 43.277 26.4921 43.3716 26.4906C43.5112 26.4906 43.6524 26.4921 43.7935 26.4968H45.4689V23.5325H42.5029V25.2062C42.5075 25.3474 42.5107 25.4885 42.5091 25.6281C42.5091 25.7228 42.506 25.8174 42.5029 25.912V26.4968ZM42.5029 48.5032V49.088C42.506 49.1811 42.5091 49.2757 42.5091 49.3703C42.5107 49.5115 42.5091 49.6526 42.5029 49.7922V51.4675H45.4689V48.5032H43.7935C43.6524 48.5079 43.5112 48.5094 43.3716 48.5094C43.277 48.5079 43.1823 48.5063 43.0877 48.5032H42.5029ZM20.4971 48.5032H19.9123C19.8177 48.5063 19.723 48.5079 19.6284 48.5094C19.4888 48.5094 19.3476 48.5079 19.2065 48.5032H17.5312V51.4675H20.4971V49.7922C20.4925 49.6526 20.4894 49.5115 20.4909 49.3703C20.4909 49.2757 20.494 49.1811 20.4971 49.088V48.5032ZM20.4971 26.4968V25.912C20.494 25.8174 20.4909 25.7228 20.4909 25.6281C20.4894 25.4885 20.4909 25.3474 20.4971 25.2062V23.5325H17.5312V26.4968H19.2065C19.3476 26.4921 19.4888 26.4906 19.6284 26.4906C19.723 26.4921 19.8177 26.4937 19.9123 26.4968H20.4971ZM19.7975 38.1088C19.3042 38.5975 18.8544 39.1404 18.4619 39.7376L16.2235 37.4992L18.4619 35.2624C18.8544 35.8581 19.3042 36.4025 19.7975 36.8896C20.0147 37.1052 20.2412 37.3084 20.4754 37.4992C20.2412 37.6916 20.0147 37.8948 19.7975 38.1088ZM32.1096 49.2012C32.5967 49.6961 33.1412 50.1443 33.7384 50.5383L31.5 52.7767L29.2616 50.5383C29.8588 50.1443 30.4033 49.6961 30.8904 49.2012C31.1044 48.9841 31.3076 48.7576 31.5 48.5249C31.6924 48.7576 31.8956 48.9841 32.1096 49.2012ZM43.2025 36.8896C43.6958 36.4025 44.1456 35.8581 44.5381 35.2609L46.7765 37.4992L44.5381 39.7376C44.1456 39.1404 43.6958 38.5975 43.2025 38.1088C42.9853 37.8948 42.7588 37.6916 42.5246 37.4992C42.7588 37.3084 42.9853 37.1052 43.2025 36.8896ZM30.8904 25.7988C30.4033 25.3039 29.8588 24.8541 29.2616 24.4617L31.5 22.2233L33.7384 24.4617C33.1412 24.8541 32.5967 25.3039 32.1096 25.7988C31.8956 26.0159 31.6924 26.2408 31.5 26.4751C31.3076 26.2408 31.1044 26.0159 30.8904 25.7988Z" fill="black"/>
</g>
<g clip-path="url(#clip2_3206_116)">
<path d="M25.9838 72.9552C27.1209 71.8074 28.6054 71.0085 30.2606 70.7402C29.9907 72.3937 29.1918 73.8782 28.0439 75.0167C26.913 76.1367 25.4424 76.92 23.7997 77.1992C23.3653 77.2737 22.9186 77.3125 22.4625 77.3125C22.2764 77.3125 21.9103 77.314 21.4806 77.3187L20.3963 77.3295C18.4247 77.3481 17.5684 77.542 17.5156 77.4505C17.4427 77.3264 18.0198 76.8626 18.8668 75.4728C19.2344 74.8678 19.6625 74.1636 20.1388 73.3461C20.4925 72.7412 20.9144 72.2014 21.3922 71.7298C21.8886 71.2412 22.4424 70.8255 23.038 70.4889L24.7832 69.4992L23.038 68.5111C22.4424 68.1745 21.8886 67.7588 21.3922 67.2702C20.9144 66.7986 20.4925 66.2588 20.1388 65.6539C19.6625 64.8349 19.2344 64.1322 18.8668 63.5272C18.0198 62.1374 17.4427 61.6736 17.5156 61.5495C17.5684 61.458 18.4247 61.6503 20.3963 61.6705L20.5623 61.672C20.5188 61.2749 20.4956 60.8716 20.4956 60.4637L20.4971 59.4011L20.4133 59.3996C17.556 59.3717 16.1599 59.3577 15.5471 60.4094C14.9406 61.4502 15.6123 62.5546 16.9246 64.7123L17.2504 65.249L13 69.4992L17.2504 73.751L16.9246 74.2877C15.6123 76.4454 14.9406 77.5482 15.5471 78.5891C16.1599 79.6423 17.556 79.6283 20.4133 79.6004C20.6646 79.5973 20.9361 79.5942 21.4061 79.5927C21.6807 79.5927 22.0204 79.5911 22.4625 79.5911C22.8751 79.5911 23.2816 79.5663 23.6802 79.5182C25.9916 79.2421 28.0733 78.1873 29.6463 76.6284C30.3862 75.8947 31.0145 75.0509 31.5 74.1248C31.9871 75.0509 32.6138 75.8947 33.3537 76.6284C34.7173 77.9795 36.4624 78.952 38.4092 79.3678L38.3999 78.5363C38.3999 77.9965 38.3409 77.4722 38.2261 76.9696C36.9774 76.5896 35.8574 75.9102 34.9561 75.0167C33.8082 73.8782 33.0093 72.3937 32.7394 70.7402C34.3946 71.0085 35.8791 71.8074 37.0162 72.9552C38.1362 74.086 38.9195 75.5581 39.2003 77.1992C39.2732 77.6335 39.312 78.0803 39.312 78.5363C39.312 78.7225 39.3151 79.0885 39.3198 79.5182L39.3291 80.604C39.3492 82.5756 39.5416 83.4303 39.4501 83.4846C39.3275 83.5559 38.8622 82.9789 37.4722 82.1335C36.8688 81.7659 36.1646 81.3377 35.3471 80.86C34.7405 80.5079 34.2007 80.0844 33.7307 79.6066C33.2405 79.1118 32.8263 78.5565 32.4881 77.9624L31.5 76.2158L30.5119 77.9624C30.1737 78.5565 29.7595 79.1118 29.2693 79.6082C28.7993 80.0844 28.2595 80.5079 27.6529 80.86C26.8354 81.3377 26.1312 81.7659 25.5278 82.1335C24.1378 82.9789 23.6725 83.5559 23.5499 83.4846C23.4584 83.4303 23.6508 82.5756 23.6709 80.604L23.6725 80.4365C23.2738 80.4815 22.8705 80.5032 22.4625 80.5032H21.3999V80.5854C21.3705 83.4427 21.3565 84.8387 22.4098 85.453C23.4507 86.0595 24.5551 85.3878 26.7113 84.074L27.2481 83.7482L31.5 88L35.7519 83.7482L36.2887 84.074C38.4449 85.3878 39.5493 86.0595 40.5902 85.453C41.6435 84.8387 41.6295 83.4427 41.6001 80.5854C41.5985 80.3357 41.5954 80.0627 41.5939 79.5927C41.5923 79.3197 41.5923 78.9784 41.5923 78.5363C41.5923 78.1253 41.5675 77.7189 41.5194 77.3187C41.2417 75.0074 40.1869 72.9273 38.6279 71.3529C37.8957 70.613 37.0519 69.9863 36.1242 69.4992C37.0519 69.0137 37.8957 68.387 38.6279 67.6471C39.9806 66.2821 40.9517 64.537 41.3674 62.5919L40.5375 62.5996C39.9977 62.5996 39.4718 62.6601 38.9692 62.7734C38.5891 64.0236 37.9097 65.142 37.0162 66.0432C35.8791 67.1926 34.3946 67.9899 32.7394 68.2598C33.0093 66.6063 33.8082 65.1218 34.9561 63.9833C36.087 62.8633 37.5576 62.08 39.2003 61.8008C39.6347 61.7263 40.0814 61.6875 40.5375 61.6875C40.7236 61.6875 41.0897 61.6844 41.5194 61.6813L42.6037 61.6705C44.5753 61.6503 45.4316 61.458 45.4844 61.5495C45.5573 61.6736 44.9802 62.1374 44.1332 63.5272C43.7656 64.1322 43.3375 64.8349 42.8612 65.6539C42.5075 66.2588 42.0856 66.7986 41.6078 67.2702C41.1114 67.7588 40.5576 68.1745 39.962 68.5111L38.2168 69.4992L39.962 70.4889C40.5576 70.8255 41.1114 71.2412 41.6078 71.7298C42.0856 72.2014 42.5075 72.7412 42.8612 73.3461C43.3375 74.1636 43.7656 74.8678 44.1332 75.4728C44.9802 76.8626 45.5573 77.3264 45.4844 77.4505C45.4316 77.542 44.5753 77.3481 42.6037 77.3295L42.4377 77.328C42.4812 77.7251 42.5044 78.1284 42.5044 78.5363L42.5029 79.5989L42.5867 79.6004C45.444 79.6283 46.8401 79.6423 47.4529 78.5891C48.0594 77.5482 47.3877 76.4454 46.0754 74.2877L45.7496 73.751L50 69.4992L45.7496 65.249L46.0754 64.7123C47.3877 62.5546 48.0594 61.4518 47.4529 60.4094C46.8401 59.3577 45.444 59.3717 42.5867 59.3996C42.3354 59.4027 42.0639 59.4042 41.5939 59.4073C41.3193 59.4073 40.9796 59.4089 40.5375 59.4089C40.1249 59.4089 39.7184 59.4321 39.3198 59.4802C37.0084 59.7579 34.9267 60.8127 33.3537 62.3716C32.6138 63.1038 31.9871 63.9491 31.5 64.8752C31.0145 63.9491 30.3862 63.1038 29.6463 62.3716C28.2827 61.0205 26.5376 60.048 24.5908 59.6322L24.6001 60.4637C24.6001 61.0035 24.6591 61.5278 24.7739 62.0304C26.0226 62.4104 27.1426 63.0898 28.0439 63.9833C29.1918 65.1218 29.9907 66.6063 30.2606 68.2598C28.6054 67.9899 27.1209 67.1926 25.9838 66.0432C24.8638 64.914 24.0805 63.4419 23.7997 61.8008C23.7268 61.3649 23.688 60.9182 23.688 60.4637C23.688 60.2775 23.6849 59.9099 23.6802 59.4802L23.6709 58.396C23.6508 56.4244 23.4584 55.5682 23.5499 55.5154C23.6725 55.4425 24.1378 56.0196 25.5278 56.8665C26.1312 57.2341 26.8354 57.6623 27.6529 58.1385C28.2579 58.4921 28.7993 58.9156 29.2693 59.3918C29.7595 59.8882 30.1737 60.4435 30.5119 61.0376L31.5 62.7827L32.4881 61.0376C32.8263 60.4435 33.2405 59.8882 33.7307 59.3918C34.2007 58.9156 34.7405 58.4921 35.3471 58.1385C36.1646 57.6623 36.8688 57.2341 37.4722 56.8665C38.8622 56.0196 39.3275 55.4425 39.4501 55.5154C39.5416 55.5682 39.3492 56.4244 39.3291 58.396L39.3275 58.5619C39.7262 58.5185 40.1295 58.4968 40.5375 58.4968H41.6001V58.4146C41.6295 55.5558 41.6435 54.1613 40.5902 53.547C39.5493 52.9405 38.4449 53.6122 36.2887 54.9245L35.7519 55.2518L31.5 51L27.2481 55.2518L26.7113 54.9245C24.5551 53.6122 23.4507 52.9405 22.4098 53.547C21.3565 54.1613 21.3705 55.5558 21.3999 58.4146C21.4015 58.6643 21.4046 58.9373 21.4061 59.4073C21.4077 59.6803 21.4077 60.02 21.4077 60.4637C21.4077 60.8747 21.4325 61.2811 21.4806 61.6813C21.7583 63.9926 22.8131 66.0727 24.3721 67.6471C25.1043 68.387 25.9481 69.0137 26.8758 69.4992C25.9481 69.9863 25.1043 70.613 24.3721 71.3529C23.0194 72.7179 22.0483 74.463 21.6326 76.4081L22.4625 76.4004C23.0023 76.4004 23.5282 76.3399 24.0308 76.2266C24.4109 74.9764 25.0903 73.858 25.9838 72.9552ZM42.5029 58.4968H43.0877C43.1823 58.4937 43.277 58.4921 43.3716 58.4906C43.5112 58.4906 43.6524 58.4921 43.7935 58.4968H45.4689V55.5325H42.5029V57.2062C42.5075 57.3474 42.5107 57.4885 42.5091 57.6281C42.5091 57.7228 42.506 57.8174 42.5029 57.912V58.4968ZM42.5029 80.5032V81.088C42.506 81.1811 42.5091 81.2757 42.5091 81.3703C42.5107 81.5115 42.5091 81.6526 42.5029 81.7922V83.4675H45.4689V80.5032H43.7935C43.6524 80.5079 43.5112 80.5094 43.3716 80.5094C43.277 80.5079 43.1823 80.5063 43.0877 80.5032H42.5029ZM20.4971 80.5032H19.9123C19.8177 80.5063 19.723 80.5079 19.6284 80.5094C19.4888 80.5094 19.3476 80.5079 19.2065 80.5032H17.5312V83.4675H20.4971V81.7922C20.4925 81.6526 20.4894 81.5115 20.4909 81.3703C20.4909 81.2757 20.494 81.1811 20.4971 81.088V80.5032ZM20.4971 58.4968V57.912C20.494 57.8174 20.4909 57.7228 20.4909 57.6281C20.4894 57.4885 20.4909 57.3474 20.4971 57.2062V55.5325H17.5312V58.4968H19.2065C19.3476 58.4921 19.4888 58.4906 19.6284 58.4906C19.723 58.4921 19.8177 58.4937 19.9123 58.4968H20.4971ZM19.7975 70.1088C19.3042 70.5975 18.8544 71.1404 18.4619 71.7376L16.2235 69.4992L18.4619 67.2624C18.8544 67.8581 19.3042 68.4025 19.7975 68.8896C20.0147 69.1052 20.2412 69.3084 20.4754 69.4992C20.2412 69.6916 20.0147 69.8948 19.7975 70.1088ZM32.1096 81.2012C32.5967 81.6961 33.1412 82.1443 33.7384 82.5383L31.5 84.7767L29.2616 82.5383C29.8588 82.1443 30.4033 81.6961 30.8904 81.2012C31.1044 80.9841 31.3076 80.7576 31.5 80.5249C31.6924 80.7576 31.8956 80.9841 32.1096 81.2012ZM43.2025 68.8896C43.6958 68.4025 44.1456 67.8581 44.5381 67.2609L46.7765 69.4992L44.5381 71.7376C44.1456 71.1404 43.6958 70.5975 43.2025 70.1088C42.9853 69.8948 42.7588 69.6916 42.5246 69.4992C42.7588 69.3084 42.9853 69.1052 43.2025 68.8896ZM30.8904 57.7988C30.4033 57.3039 29.8588 56.8541 29.2616 56.4617L31.5 54.2233L33.7384 56.4617C33.1412 56.8541 32.5967 57.3039 32.1096 57.7988C31.8956 58.0159 31.6924 58.2408 31.5 58.4751C31.3076 58.2408 31.1044 58.0159 30.8904 57.7988Z" fill="black"/>
</g>
<g clip-path="url(#clip3_3206_116)">
<path d="M58.9838 40.9552C60.1209 39.8074 61.6054 39.0085 63.2606 38.7402C62.9907 40.3937 62.1918 41.8782 61.0439 43.0167C59.913 44.1367 58.4424 44.92 56.7997 45.1992C56.3653 45.2737 55.9186 45.3125 55.4625 45.3125C55.2764 45.3125 54.9103 45.314 54.4806 45.3187L53.3963 45.3295C51.4247 45.3481 50.5684 45.542 50.5156 45.4505C50.4427 45.3264 51.0198 44.8626 51.8668 43.4728C52.2344 42.8678 52.6625 42.1636 53.1388 41.3461C53.4925 40.7412 53.9144 40.2014 54.3922 39.7298C54.8886 39.2412 55.4424 38.8255 56.038 38.4889L57.7832 37.4992L56.038 36.5111C55.4424 36.1745 54.8886 35.7588 54.3922 35.2702C53.9144 34.7986 53.4925 34.2588 53.1388 33.6539C52.6625 32.8349 52.2344 32.1322 51.8668 31.5272C51.0198 30.1374 50.4427 29.6736 50.5156 29.5495C50.5684 29.458 51.4247 29.6503 53.3963 29.6705L53.5623 29.672C53.5188 29.2749 53.4956 28.8716 53.4956 28.4637L53.4971 27.4011L53.4133 27.3996C50.556 27.3717 49.1599 27.3577 48.5471 28.4094C47.9406 29.4502 48.6123 30.5546 49.9246 32.7123L50.2504 33.249L46 37.4992L50.2504 41.751L49.9246 42.2877C48.6123 44.4454 47.9406 45.5482 48.5471 46.5891C49.1599 47.6423 50.556 47.6283 53.4133 47.6004C53.6646 47.5973 53.9361 47.5942 54.4061 47.5927C54.6807 47.5927 55.0204 47.5911 55.4625 47.5911C55.8751 47.5911 56.2816 47.5663 56.6802 47.5182C58.9916 47.2421 61.0733 46.1873 62.6463 44.6284C63.3862 43.8947 64.0145 43.0509 64.5 42.1248C64.9871 43.0509 65.6138 43.8947 66.3537 44.6284C67.7173 45.9795 69.4624 46.952 71.4092 47.3678L71.3999 46.5363C71.3999 45.9965 71.3409 45.4722 71.2261 44.9696C69.9774 44.5896 68.8574 43.9102 67.9561 43.0167C66.8082 41.8782 66.0093 40.3937 65.7394 38.7402C67.3946 39.0085 68.8791 39.8074 70.0162 40.9552C71.1362 42.086 71.9195 43.5581 72.2003 45.1992C72.2732 45.6335 72.312 46.0803 72.312 46.5363C72.312 46.7225 72.3151 47.0885 72.3198 47.5182L72.3291 48.604C72.3492 50.5756 72.5416 51.4303 72.4501 51.4846C72.3275 51.5559 71.8622 50.9789 70.4722 50.1335C69.8688 49.7659 69.1646 49.3377 68.3471 48.86C67.7405 48.5079 67.2007 48.0844 66.7307 47.6066C66.2405 47.1118 65.8263 46.5565 65.4881 45.9624L64.5 44.2158L63.5119 45.9624C63.1737 46.5565 62.7595 47.1118 62.2693 47.6082C61.7993 48.0844 61.2595 48.5079 60.6529 48.86C59.8354 49.3377 59.1312 49.7659 58.5278 50.1335C57.1378 50.9789 56.6725 51.5559 56.5499 51.4846C56.4584 51.4303 56.6508 50.5756 56.6709 48.604L56.6725 48.4365C56.2738 48.4815 55.8705 48.5032 55.4625 48.5032H54.3999V48.5854C54.3705 51.4427 54.3565 52.8387 55.4098 53.453C56.4507 54.0595 57.5551 53.3878 59.7113 52.074L60.2481 51.7482L64.5 56L68.7519 51.7482L69.2887 52.074C71.4449 53.3878 72.5493 54.0595 73.5902 53.453C74.6435 52.8387 74.6295 51.4427 74.6001 48.5854C74.5985 48.3357 74.5954 48.0627 74.5939 47.5927C74.5923 47.3197 74.5923 46.9784 74.5923 46.5363C74.5923 46.1253 74.5675 45.7189 74.5194 45.3187C74.2417 43.0074 73.1869 40.9273 71.6279 39.3529C70.8957 38.613 70.0519 37.9863 69.1242 37.4992C70.0519 37.0137 70.8957 36.387 71.6279 35.6471C72.9806 34.2821 73.9517 32.537 74.3674 30.5919L73.5375 30.5996C72.9977 30.5996 72.4718 30.6601 71.9692 30.7734C71.5891 32.0236 70.9097 33.142 70.0162 34.0432C68.8791 35.1926 67.3946 35.9899 65.7394 36.2598C66.0093 34.6063 66.8082 33.1218 67.9561 31.9833C69.087 30.8633 70.5576 30.08 72.2003 29.8008C72.6347 29.7263 73.0814 29.6875 73.5375 29.6875C73.7236 29.6875 74.0897 29.6844 74.5194 29.6813L75.6037 29.6705C77.5753 29.6503 78.4316 29.458 78.4844 29.5495C78.5573 29.6736 77.9802 30.1374 77.1332 31.5272C76.7656 32.1322 76.3375 32.8349 75.8612 33.6539C75.5075 34.2588 75.0856 34.7986 74.6078 35.2702C74.1114 35.7588 73.5576 36.1745 72.962 36.5111L71.2168 37.4992L72.962 38.4889C73.5576 38.8255 74.1114 39.2412 74.6078 39.7298C75.0856 40.2014 75.5075 40.7412 75.8612 41.3461C76.3375 42.1636 76.7656 42.8678 77.1332 43.4728C77.9802 44.8626 78.5573 45.3264 78.4844 45.4505C78.4316 45.542 77.5753 45.3481 75.6037 45.3295L75.4377 45.328C75.4812 45.7251 75.5044 46.1284 75.5044 46.5363L75.5029 47.5989L75.5867 47.6004C78.444 47.6283 79.8401 47.6423 80.4529 46.5891C81.0594 45.5482 80.3877 44.4454 79.0754 42.2877L78.7496 41.751L83 37.4992L78.7496 33.249L79.0754 32.7123C80.3877 30.5546 81.0594 29.4518 80.4529 28.4094C79.8401 27.3577 78.444 27.3717 75.5867 27.3996C75.3354 27.4027 75.0639 27.4042 74.5939 27.4073C74.3193 27.4073 73.9796 27.4089 73.5375 27.4089C73.1249 27.4089 72.7184 27.4321 72.3198 27.4802C70.0084 27.7579 67.9267 28.8127 66.3537 30.3716C65.6138 31.1038 64.9871 31.9491 64.5 32.8752C64.0145 31.9491 63.3862 31.1038 62.6463 30.3716C61.2827 29.0205 59.5376 28.048 57.5908 27.6322L57.6001 28.4637C57.6001 29.0035 57.6591 29.5278 57.7739 30.0304C59.0226 30.4104 60.1426 31.0898 61.0439 31.9833C62.1918 33.1218 62.9907 34.6063 63.2606 36.2598C61.6054 35.9899 60.1209 35.1926 58.9838 34.0432C57.8638 32.914 57.0805 31.4419 56.7997 29.8008C56.7268 29.3649 56.688 28.9182 56.688 28.4637C56.688 28.2775 56.6849 27.9099 56.6802 27.4802L56.6709 26.396C56.6508 24.4244 56.4584 23.5682 56.5499 23.5154C56.6725 23.4425 57.1378 24.0196 58.5278 24.8665C59.1312 25.2341 59.8354 25.6623 60.6529 26.1385C61.2579 26.4921 61.7993 26.9156 62.2693 27.3918C62.7595 27.8882 63.1737 28.4435 63.5119 29.0376L64.5 30.7827L65.4881 29.0376C65.8263 28.4435 66.2405 27.8882 66.7307 27.3918C67.2007 26.9156 67.7405 26.4921 68.3471 26.1385C69.1646 25.6623 69.8688 25.2341 70.4722 24.8665C71.8622 24.0196 72.3275 23.4425 72.4501 23.5154C72.5416 23.5682 72.3492 24.4244 72.3291 26.396L72.3275 26.5619C72.7262 26.5185 73.1295 26.4968 73.5375 26.4968H74.6001V26.4146C74.6295 23.5558 74.6435 22.1613 73.5902 21.547C72.5493 20.9405 71.4449 21.6122 69.2887 22.9245L68.7519 23.2518L64.5 19L60.2481 23.2518L59.7113 22.9245C57.5551 21.6122 56.4507 20.9405 55.4098 21.547C54.3565 22.1613 54.3705 23.5558 54.3999 26.4146C54.4015 26.6643 54.4046 26.9373 54.4061 27.4073C54.4077 27.6803 54.4077 28.02 54.4077 28.4637C54.4077 28.8747 54.4325 29.2811 54.4806 29.6813C54.7583 31.9926 55.8131 34.0727 57.3721 35.6471C58.1043 36.387 58.9481 37.0137 59.8758 37.4992C58.9481 37.9863 58.1043 38.613 57.3721 39.3529C56.0194 40.7179 55.0483 42.463 54.6326 44.4081L55.4625 44.4004C56.0023 44.4004 56.5282 44.3399 57.0308 44.2266C57.4109 42.9764 58.0903 41.858 58.9838 40.9552ZM75.5029 26.4968H76.0877C76.1823 26.4937 76.277 26.4921 76.3716 26.4906C76.5112 26.4906 76.6524 26.4921 76.7935 26.4968H78.4689V23.5325H75.5029V25.2062C75.5075 25.3474 75.5107 25.4885 75.5091 25.6281C75.5091 25.7228 75.506 25.8174 75.5029 25.912V26.4968ZM75.5029 48.5032V49.088C75.506 49.1811 75.5091 49.2757 75.5091 49.3703C75.5107 49.5115 75.5091 49.6526 75.5029 49.7922V51.4675H78.4689V48.5032H76.7935C76.6524 48.5079 76.5112 48.5094 76.3716 48.5094C76.277 48.5079 76.1823 48.5063 76.0877 48.5032H75.5029ZM53.4971 48.5032H52.9123C52.8177 48.5063 52.723 48.5079 52.6284 48.5094C52.4888 48.5094 52.3476 48.5079 52.2065 48.5032H50.5312V51.4675H53.4971V49.7922C53.4925 49.6526 53.4894 49.5115 53.4909 49.3703C53.4909 49.2757 53.494 49.1811 53.4971 49.088V48.5032ZM53.4971 26.4968V25.912C53.494 25.8174 53.4909 25.7228 53.4909 25.6281C53.4894 25.4885 53.4909 25.3474 53.4971 25.2062V23.5325H50.5312V26.4968H52.2065C52.3476 26.4921 52.4888 26.4906 52.6284 26.4906C52.723 26.4921 52.8177 26.4937 52.9123 26.4968H53.4971ZM52.7975 38.1088C52.3042 38.5975 51.8544 39.1404 51.4619 39.7376L49.2235 37.4992L51.4619 35.2624C51.8544 35.8581 52.3042 36.4025 52.7975 36.8896C53.0147 37.1052 53.2412 37.3084 53.4754 37.4992C53.2412 37.6916 53.0147 37.8948 52.7975 38.1088ZM65.1096 49.2012C65.5967 49.6961 66.1412 50.1443 66.7384 50.5383L64.5 52.7767L62.2616 50.5383C62.8588 50.1443 63.4033 49.6961 63.8904 49.2012C64.1044 48.9841 64.3076 48.7576 64.5 48.5249C64.6924 48.7576 64.8956 48.9841 65.1096 49.2012ZM76.2025 36.8896C76.6958 36.4025 77.1456 35.8581 77.5381 35.2609L79.7765 37.4992L77.5381 39.7376C77.1456 39.1404 76.6958 38.5975 76.2025 38.1088C75.9853 37.8948 75.7588 37.6916 75.5246 37.4992C75.7588 37.3084 75.9853 37.1052 76.2025 36.8896ZM63.8904 25.7988C63.4033 25.3039 62.8588 24.8541 62.2616 24.4617L64.5 22.2233L66.7384 24.4617C66.1412 24.8541 65.5967 25.3039 65.1096 25.7988C64.8956 26.0159 64.6924 26.2408 64.5 26.4751C64.3076 26.2408 64.1044 26.0159 63.8904 25.7988Z" fill="black"/>
</g>
<g clip-path="url(#clip4_3206_116)">
<path d="M58.9838 72.9552C60.1209 71.8074 61.6054 71.0085 63.2606 70.7402C62.9907 72.3937 62.1918 73.8782 61.0439 75.0167C59.913 76.1367 58.4424 76.92 56.7997 77.1992C56.3653 77.2737 55.9186 77.3125 55.4625 77.3125C55.2764 77.3125 54.9103 77.314 54.4806 77.3187L53.3963 77.3295C51.4247 77.3481 50.5684 77.542 50.5156 77.4505C50.4427 77.3264 51.0198 76.8626 51.8668 75.4728C52.2344 74.8678 52.6625 74.1636 53.1388 73.3461C53.4925 72.7412 53.9144 72.2014 54.3922 71.7298C54.8886 71.2412 55.4424 70.8255 56.038 70.4889L57.7832 69.4992L56.038 68.5111C55.4424 68.1745 54.8886 67.7588 54.3922 67.2702C53.9144 66.7986 53.4925 66.2588 53.1388 65.6539C52.6625 64.8349 52.2344 64.1322 51.8668 63.5272C51.0198 62.1374 50.4427 61.6736 50.5156 61.5495C50.5684 61.458 51.4247 61.6503 53.3963 61.6705L53.5623 61.672C53.5188 61.2749 53.4956 60.8716 53.4956 60.4637L53.4971 59.4011L53.4133 59.3996C50.556 59.3717 49.1599 59.3577 48.5471 60.4094C47.9406 61.4502 48.6123 62.5546 49.9246 64.7123L50.2504 65.249L46 69.4992L50.2504 73.751L49.9246 74.2877C48.6123 76.4454 47.9406 77.5482 48.5471 78.5891C49.1599 79.6423 50.556 79.6283 53.4133 79.6004C53.6646 79.5973 53.9361 79.5942 54.4061 79.5927C54.6807 79.5927 55.0204 79.5911 55.4625 79.5911C55.8751 79.5911 56.2816 79.5663 56.6802 79.5182C58.9916 79.2421 61.0733 78.1873 62.6463 76.6284C63.3862 75.8947 64.0145 75.0509 64.5 74.1248C64.9871 75.0509 65.6138 75.8947 66.3537 76.6284C67.7173 77.9795 69.4624 78.952 71.4092 79.3678L71.3999 78.5363C71.3999 77.9965 71.3409 77.4722 71.2261 76.9696C69.9774 76.5896 68.8574 75.9102 67.9561 75.0167C66.8082 73.8782 66.0093 72.3937 65.7394 70.7402C67.3946 71.0085 68.8791 71.8074 70.0162 72.9552C71.1362 74.086 71.9195 75.5581 72.2003 77.1992C72.2732 77.6335 72.312 78.0803 72.312 78.5363C72.312 78.7225 72.3151 79.0885 72.3198 79.5182L72.3291 80.604C72.3492 82.5756 72.5416 83.4303 72.4501 83.4846C72.3275 83.5559 71.8622 82.9789 70.4722 82.1335C69.8688 81.7659 69.1646 81.3377 68.3471 80.86C67.7405 80.5079 67.2007 80.0844 66.7307 79.6066C66.2405 79.1118 65.8263 78.5565 65.4881 77.9624L64.5 76.2158L63.5119 77.9624C63.1737 78.5565 62.7595 79.1118 62.2693 79.6082C61.7993 80.0844 61.2595 80.5079 60.6529 80.86C59.8354 81.3377 59.1312 81.7659 58.5278 82.1335C57.1378 82.9789 56.6725 83.5559 56.5499 83.4846C56.4584 83.4303 56.6508 82.5756 56.6709 80.604L56.6725 80.4365C56.2738 80.4815 55.8705 80.5032 55.4625 80.5032H54.3999V80.5854C54.3705 83.4427 54.3565 84.8387 55.4098 85.453C56.4507 86.0595 57.5551 85.3878 59.7113 84.074L60.2481 83.7482L64.5 88L68.7519 83.7482L69.2887 84.074C71.4449 85.3878 72.5493 86.0595 73.5902 85.453C74.6435 84.8387 74.6295 83.4427 74.6001 80.5854C74.5985 80.3357 74.5954 80.0627 74.5939 79.5927C74.5923 79.3197 74.5923 78.9784 74.5923 78.5363C74.5923 78.1253 74.5675 77.7189 74.5194 77.3187C74.2417 75.0074 73.1869 72.9273 71.6279 71.3529C70.8957 70.613 70.0519 69.9863 69.1242 69.4992C70.0519 69.0137 70.8957 68.387 71.6279 67.6471C72.9806 66.2821 73.9517 64.537 74.3674 62.5919L73.5375 62.5996C72.9977 62.5996 72.4718 62.6601 71.9692 62.7734C71.5891 64.0236 70.9097 65.142 70.0162 66.0432C68.8791 67.1926 67.3946 67.9899 65.7394 68.2598C66.0093 66.6063 66.8082 65.1218 67.9561 63.9833C69.087 62.8633 70.5576 62.08 72.2003 61.8008C72.6347 61.7263 73.0814 61.6875 73.5375 61.6875C73.7236 61.6875 74.0897 61.6844 74.5194 61.6813L75.6037 61.6705C77.5753 61.6503 78.4316 61.458 78.4844 61.5495C78.5573 61.6736 77.9802 62.1374 77.1332 63.5272C76.7656 64.1322 76.3375 64.8349 75.8612 65.6539C75.5075 66.2588 75.0856 66.7986 74.6078 67.2702C74.1114 67.7588 73.5576 68.1745 72.962 68.5111L71.2168 69.4992L72.962 70.4889C73.5576 70.8255 74.1114 71.2412 74.6078 71.7298C75.0856 72.2014 75.5075 72.7412 75.8612 73.3461C76.3375 74.1636 76.7656 74.8678 77.1332 75.4728C77.9802 76.8626 78.5573 77.3264 78.4844 77.4505C78.4316 77.542 77.5753 77.3481 75.6037 77.3295L75.4377 77.328C75.4812 77.7251 75.5044 78.1284 75.5044 78.5363L75.5029 79.5989L75.5867 79.6004C78.444 79.6283 79.8401 79.6423 80.4529 78.5891C81.0594 77.5482 80.3877 76.4454 79.0754 74.2877L78.7496 73.751L83 69.4992L78.7496 65.249L79.0754 64.7123C80.3877 62.5546 81.0594 61.4518 80.4529 60.4094C79.8401 59.3577 78.444 59.3717 75.5867 59.3996C75.3354 59.4027 75.0639 59.4042 74.5939 59.4073C74.3193 59.4073 73.9796 59.4089 73.5375 59.4089C73.1249 59.4089 72.7184 59.4321 72.3198 59.4802C70.0084 59.7579 67.9267 60.8127 66.3537 62.3716C65.6138 63.1038 64.9871 63.9491 64.5 64.8752C64.0145 63.9491 63.3862 63.1038 62.6463 62.3716C61.2827 61.0205 59.5376 60.048 57.5908 59.6322L57.6001 60.4637C57.6001 61.0035 57.6591 61.5278 57.7739 62.0304C59.0226 62.4104 60.1426 63.0898 61.0439 63.9833C62.1918 65.1218 62.9907 66.6063 63.2606 68.2598C61.6054 67.9899 60.1209 67.1926 58.9838 66.0432C57.8638 64.914 57.0805 63.4419 56.7997 61.8008C56.7268 61.3649 56.688 60.9182 56.688 60.4637C56.688 60.2775 56.6849 59.9099 56.6802 59.4802L56.6709 58.396C56.6508 56.4244 56.4584 55.5682 56.5499 55.5154C56.6725 55.4425 57.1378 56.0196 58.5278 56.8665C59.1312 57.2341 59.8354 57.6623 60.6529 58.1385C61.2579 58.4921 61.7993 58.9156 62.2693 59.3918C62.7595 59.8882 63.1737 60.4435 63.5119 61.0376L64.5 62.7827L65.4881 61.0376C65.8263 60.4435 66.2405 59.8882 66.7307 59.3918C67.2007 58.9156 67.7405 58.4921 68.3471 58.1385C69.1646 57.6623 69.8688 57.2341 70.4722 56.8665C71.8622 56.0196 72.3275 55.4425 72.4501 55.5154C72.5416 55.5682 72.3492 56.4244 72.3291 58.396L72.3275 58.5619C72.7262 58.5185 73.1295 58.4968 73.5375 58.4968H74.6001V58.4146C74.6295 55.5558 74.6435 54.1613 73.5902 53.547C72.5493 52.9405 71.4449 53.6122 69.2887 54.9245L68.7519 55.2518L64.5 51L60.2481 55.2518L59.7113 54.9245C57.5551 53.6122 56.4507 52.9405 55.4098 53.547C54.3565 54.1613 54.3705 55.5558 54.3999 58.4146C54.4015 58.6643 54.4046 58.9373 54.4061 59.4073C54.4077 59.6803 54.4077 60.02 54.4077 60.4637C54.4077 60.8747 54.4325 61.2811 54.4806 61.6813C54.7583 63.9926 55.8131 66.0727 57.3721 67.6471C58.1043 68.387 58.9481 69.0137 59.8758 69.4992C58.9481 69.9863 58.1043 70.613 57.3721 71.3529C56.0194 72.7179 55.0483 74.463 54.6326 76.4081L55.4625 76.4004C56.0023 76.4004 56.5282 76.3399 57.0308 76.2266C57.4109 74.9764 58.0903 73.858 58.9838 72.9552ZM75.5029 58.4968H76.0877C76.1823 58.4937 76.277 58.4921 76.3716 58.4906C76.5112 58.4906 76.6524 58.4921 76.7935 58.4968H78.4689V55.5325H75.5029V57.2062C75.5075 57.3474 75.5107 57.4885 75.5091 57.6281C75.5091 57.7228 75.506 57.8174 75.5029 57.912V58.4968ZM75.5029 80.5032V81.088C75.506 81.1811 75.5091 81.2757 75.5091 81.3703C75.5107 81.5115 75.5091 81.6526 75.5029 81.7922V83.4675H78.4689V80.5032H76.7935C76.6524 80.5079 76.5112 80.5094 76.3716 80.5094C76.277 80.5079 76.1823 80.5063 76.0877 80.5032H75.5029ZM53.4971 80.5032H52.9123C52.8177 80.5063 52.723 80.5079 52.6284 80.5094C52.4888 80.5094 52.3476 80.5079 52.2065 80.5032H50.5312V83.4675H53.4971V81.7922C53.4925 81.6526 53.4894 81.5115 53.4909 81.3703C53.4909 81.2757 53.494 81.1811 53.4971 81.088V80.5032ZM53.4971 58.4968V57.912C53.494 57.8174 53.4909 57.7228 53.4909 57.6281C53.4894 57.4885 53.4909 57.3474 53.4971 57.2062V55.5325H50.5312V58.4968H52.2065C52.3476 58.4921 52.4888 58.4906 52.6284 58.4906C52.723 58.4921 52.8177 58.4937 52.9123 58.4968H53.4971ZM52.7975 70.1088C52.3042 70.5975 51.8544 71.1404 51.4619 71.7376L49.2235 69.4992L51.4619 67.2624C51.8544 67.8581 52.3042 68.4025 52.7975 68.8896C53.0147 69.1052 53.2412 69.3084 53.4754 69.4992C53.2412 69.6916 53.0147 69.8948 52.7975 70.1088ZM65.1096 81.2012C65.5967 81.6961 66.1412 82.1443 66.7384 82.5383L64.5 84.7767L62.2616 82.5383C62.8588 82.1443 63.4033 81.6961 63.8904 81.2012C64.1044 80.9841 64.3076 80.7576 64.5 80.5249C64.6924 80.7576 64.8956 80.9841 65.1096 81.2012ZM76.2025 68.8896C76.6958 68.4025 77.1456 67.8581 77.5381 67.2609L79.7765 69.4992L77.5381 71.7376C77.1456 71.1404 76.6958 70.5975 76.2025 70.1088C75.9853 69.8948 75.7588 69.6916 75.5246 69.4992C75.7588 69.3084 75.9853 69.1052 76.2025 68.8896ZM63.8904 57.7988C63.4033 57.3039 62.8588 56.8541 62.2616 56.4617L64.5 54.2233L66.7384 56.4617C66.1412 56.8541 65.5967 57.3039 65.1096 57.7988C64.8956 58.0159 64.6924 58.2408 64.5 58.4751C64.3076 58.2408 64.1044 58.0159 63.8904 57.7988Z" fill="black"/>
</g>
</g>
<defs>
<clipPath id="clip0_3206_116">
<rect width="97" height="106" fill="white"/>
</clipPath>
<clipPath id="clip1_3206_116">
<rect width="37" height="37" fill="white" transform="translate(13 19)"/>
</clipPath>
<clipPath id="clip2_3206_116">
<rect width="37" height="37" fill="white" transform="translate(13 51)"/>
</clipPath>
<clipPath id="clip3_3206_116">
<rect width="37" height="37" fill="white" transform="translate(46 19)"/>
</clipPath>
<clipPath id="clip4_3206_116">
<rect width="37" height="37" fill="white" transform="translate(46 51)"/>
</clipPath>
</defs>
</svg>
