<svg width="97" height="106" viewBox="0 0 97 106" fill="none" xmlns="http://www.w3.org/2000/svg">
<g clip-path="url(#clip0_3206_120)">
<rect width="97" height="106" fill="white"/>
<rect width="97" height="106" fill="white"/>
<g clip-path="url(#clip1_3206_120)">
<path d="M41.7354 32H39.8577V41.7962H41.7354V32Z" fill="#231915"/>
<path d="M45.7413 32H43.8635V41.7962H45.7413V32Z" fill="#231915"/>
<path d="M49.7421 32H47.8644V41.7962H49.7421V32Z" fill="#231915"/>
<path d="M63.2619 73.3608H26.333V76H63.2619V73.3608Z" fill="black"/>
<path d="M70.0918 48.2984C70.6626 48.2984 71.2335 48.2984 71.7993 48.2984C68.1089 59.9582 57.3883 68.042 44.7599 68.3643C31.0999 68.0168 19.8485 58.5983 17.0344 45.3973H14C16.2783 59.9733 28.2508 70.9431 44.7599 71.1848C59.5564 70.8927 71.5589 60.8799 74.9739 48.3034C77.2923 48.3034 79.6057 48.3034 81.924 48.3034C85.3641 55.9742 78.6893 61.2929 71.7793 60.9806C69.7363 60.9051 69.6411 63.9774 71.6441 64.0781C82.6351 64.4911 89.1896 55.677 84.4277 46.2636C84.0421 45.5786 83.5314 45.2008 82.4148 45.1958H70.1018L70.0918 48.2984Z" fill="black"/>
</g>
</g>
<defs>
<clipPath id="clip0_3206_120">
<rect width="97" height="106" fill="white"/>
</clipPath>
<clipPath id="clip1_3206_120">
<rect width="72" height="44" fill="white" transform="translate(14 32)"/>
</clipPath>
</defs>
</svg>
